<svg version="1.2" baseProfile="tiny" xmlns="http://www.w3.org/2000/svg" viewBox="0 0 22 22"><path fill="#043751" d="M15.8 10.5c0-1.5-.5-2.8-1.6-3.8s-2.3-1.6-3.8-1.6-2.7.5-3.7 1.6S5.1 9 5.1 10.5s.5 2.8 1.6 3.8 2.3 1.6 3.8 1.6 2.8-.5 3.8-1.6 1.5-2.4 1.5-3.8zm6.2 10c0 .4-.2.8-.5 1.1-.3.3-.7.5-1.1.5-.4 0-.8-.2-1.1-.5l-4.1-4.1c-1.4 1-3 1.5-4.8 1.5-1.1 0-2.2-.2-3.3-.7s-1.9-1-2.7-1.8-1.4-1.7-1.8-2.7-.6-2.2-.6-3.3.2-2.2.7-3.3 1-1.9 1.8-2.7 1.7-1.4 2.7-1.8S9.3 2 10.5 2s2.2.2 3.3.7 1.9 1 2.7 1.8 1.4 1.7 1.8 2.7.7 2.1.7 3.3c0 1.8-.5 3.4-1.5 4.8l4.1 4.1c.3.3.4.6.4 1.1z"/></svg>