<svg xmlns="http://www.w3.org/2000/svg" viewBox="0 0 146.8 107.77"><defs><style>.cls-1{fill:#fff;}</style></defs><title>Asset 4</title><g id="Layer_2" data-name="Layer 2"><g id="Layer_1-2" data-name="Layer 1"><g id="_Group_" data-name="&lt;Group&gt;"><path id="_Path_" data-name="&lt;Path&gt;" class="cls-1" d="M49.56,86.37a.92.92,0,0,1-.38.38"/><path id="_Path_2" data-name="&lt;Path&gt;" class="cls-1" d="M53,59.46a.72.72,0,1,0-.72-.72.72.72,0,0,0,.72.72Z"/><path id="_Compound_Path_" data-name="&lt;Compound Path&gt;" class="cls-1" d="M86.35,29.05H60.41l0,20.94c0,2,.86,3.79,2,4.33l10,6a1.21,1.21,0,0,0,1.72.09l10.13-6.05c1.18-.54,2-2.31,2-4.33l0-20.94ZM69,35.11H66.79V29.75H69v5.36ZM67.4,37l.32-.33-.2-.37.42,0,.25-.44.25.44.42,0-.2.37L69,37l-.41.08v.45l-.39-.29-.38.29v-.45L67.4,37Zm-6.26,6.67V38.57h2.72v5.09Zm.45-7.37.42,0,.25-.44.25.44.42,0-.2.37.32.33-.41.08v.45l-.38-.29-.39.29v-.45L61.47,37l.32-.33-.2-.37Zm3.07,5.18.42,0,.25-.44.25.44.43,0-.2.37.32.33-.41.08v.45l-.38-.29-.38.29v-.45l-.41-.08.32-.33-.2-.37Zm1.81-4.09c0-.14-.2-.17-.27-.17-.24,0-.34.4-.54.41s-.26,0-.26-.16.31-.24.43-.36c-1.68,0-1.71.77-2,.77-.44,0,.37-.81.6-1-.34-.05-.54-.48-.91-.69.18-.25.27-.14.49,0,0-.18.13-.38.52-.38.75,0,.54.73.66.73s0-.73.5-.73c.74,0,1.68,1.92.83,1.92-.36,0-.07-.27-.08-.32Zm-1.93-5.61.32-.33-.2-.37.42,0,.25-.44.25.44.43,0-.2.37.32.33-.41.08v.45L65.34,32l-.38.29v-.45l-.41-.08Zm-.68-2v5.36H61.15V29.75ZM69,57.42l-6.21-3.71a4.45,4.45,0,0,1-1.68-3.45v-5.9H69V57.42ZM66.79,43.66V38.57H69v5.09ZM77,57.85l-2.87,1.71h-.05a1.22,1.22,0,0,1-.75.26,1.2,1.2,0,0,1-.77-.28l-2.85-1.7V44.37H77V57.85Zm0-14.19H69.74V29.75H77V43.66Zm8.59,6.61a4.45,4.45,0,0,1-1.68,3.45l-6.21,3.71V44.37h7.89v5.9Zm0-6.61H77.73V29.75h7.89V43.66Z"/><path id="_Path_3" data-name="&lt;Path&gt;" class="cls-1" d="M68.62,49.16c0-.08-1,.32-.72.29a2.83,2.83,0,0,1,.79-1.06c0-.33-.47,0-.91.2,1.48-2.12.53-1.25-.3-1.1,1.32-1.42,1-1.4,0-1,.76-.61.93-1.33.81-1.54-.72,1-1.38.81-1.38,1.69a3.54,3.54,0,0,1-.51,1.86C66,49,66.31,47,65.3,47c-.32,0-1.09,0-1.32.37.21,0,.52.53.52.73s.19.78-.16.78-.75-.73-.75-1.08,0-.27,0-.77a2.81,2.81,0,0,0-1.92-2c0,.58.76.72.76,1.47-.32,0-.78-.6-.78-.23s.49.44.49.77-.55-.12-.55.23.3.25.38.56c-.22-.06-.43,0-.47.08s.07.23.24.33c-.08.07-.15.25-.15.74,0,1.65,1,2.42,1.8,2.42.54,0,.46-.38.52-.56,0,.28.29-.14.29.35s-.53.29-.53.73.83,0,.83.63a7.79,7.79,0,0,1-.1,1.08c0,.21.87-.29.82-.38.21.08.2.69.59.68s.3-.63.5-.68c-.12,0,.79.59.79.31,0-.77-.32-.44-.32-1s1.07-.39.9-.64-.24-.08-.35-.45c0,.07-.84-1.23.18-.56s1.19-1.63,1.13-1.75Z"/><path id="_Path_4" data-name="&lt;Path&gt;" class="cls-1" d="M96.28,54.64a.76.76,0,1,0-.85-.75.81.81,0,0,0,.85.75Z"/><path id="_Path_5" data-name="&lt;Path&gt;" class="cls-1" d="M92.83,56.69a.76.76,0,1,0-.85-.75.81.81,0,0,0,.85.75Z"/><path id="_Path_6" data-name="&lt;Path&gt;" class="cls-1" d="M51.84,61.42a.76.76,0,1,0-.85-.75.81.81,0,0,0,.85.75Z"/><path id="_Path_7" data-name="&lt;Path&gt;" class="cls-1" d="M54.5,61.65a.76.76,0,1,0-.85-.75.81.81,0,0,0,.85.75Z"/><path id="_Path_8" data-name="&lt;Path&gt;" class="cls-1" d="M128.3,25.88a5.34,5.34,0,0,1,.63,5.65c-.5,0-.41-.68-.5-1-.91-1.69-1.63-3.83-.81-5.74.59.09.36.82.68,1.14Z"/><path id="_Path_9" data-name="&lt;Path&gt;" class="cls-1" d="M20,27.93a8.05,8.05,0,0,0,0,3.6c-.23.23-.18-.23-.41-.18-1.76-1.27-.95-3.78-1.4-5.56a.35.35,0,0,1,.45-.09A3.25,3.25,0,0,1,20,27.93Z"/><path id="_Path_10" data-name="&lt;Path&gt;" class="cls-1" d="M132.19,28.07c.27.5-.23,1-.59,1.23a1.17,1.17,0,0,1-1.13-.5,1,1,0,0,1,.54-1.18,1.18,1.18,0,0,1,1.18.46Z"/><path id="_Path_11" data-name="&lt;Path&gt;" class="cls-1" d="M17.25,30.07a1.35,1.35,0,0,1-.59,1c-.27,0-.68,0-.86-.23a.84.84,0,0,1-.18-1,1.05,1.05,0,0,1,.86-.41c.32.14.63.23.77.59Z"/><path id="_Path_12" data-name="&lt;Path&gt;" class="cls-1" d="M133.95,30.85A.88.88,0,0,1,132.73,32a1.22,1.22,0,0,1-.5-.78,1.37,1.37,0,0,1,.77-.82,1.45,1.45,0,0,1,.95.46Z"/><path id="_Path_13" data-name="&lt;Path&gt;" class="cls-1" d="M131.37,30.89c.36.18.09.64,0,.91-.23.23-.54.59-1,.45-.23-.23-.5-.23-.59-.55a1,1,0,0,1,.63-1,1.12,1.12,0,0,1,.86.23Z"/><path id="_Path_14" data-name="&lt;Path&gt;" class="cls-1" d="M128.07,31.57c0,.5,0,1.14-.54,1.23a.86.86,0,0,1-1-.64,1.08,1.08,0,0,1,.68-1.09,1.23,1.23,0,0,1,.9.5Z"/><path id="_Path_15" data-name="&lt;Path&gt;" class="cls-1" d="M22.18,31.8c.14.45-.32.73-.59,1a.92.92,0,0,1-.91-.5c-.32-.32.09-.59.18-.86a.84.84,0,0,1,1.31.41Z"/><path id="_Path_16" data-name="&lt;Path&gt;" class="cls-1" d="M19.47,31.94a.93.93,0,0,1-.5.87.82.82,0,0,1-.91-.41.77.77,0,0,1,.41-1c.5-.18.81.27,1,.59Z"/><path id="_Path_17" data-name="&lt;Path&gt;" class="cls-1" d="M117.12,32.12a9.56,9.56,0,0,1,.9,3.28c-.18.87.14,2-.5,2.6-.63-.23-.68-1-1.09-1.41-.81-1.6-.09-3.46.18-5,.36-.14.36.32.5.55Z"/><path id="_Path_18" data-name="&lt;Path&gt;" class="cls-1" d="M17.34,32.67c.13.55-.27.82-.59,1.14a1.06,1.06,0,0,1-1.13-.64,1.14,1.14,0,0,1,.59-1.09,1.16,1.16,0,0,1,1.13.59Z"/><path id="_Path_19" data-name="&lt;Path&gt;" class="cls-1" d="M124.27,34a6.57,6.57,0,0,1,.23,4.37l-.27.23a17.68,17.68,0,0,1-1.85-3.69,6.06,6.06,0,0,1,.54-2.6c.32-.23.5,0,.63.32a1.79,1.79,0,0,0,.72,1.37Z"/><path id="_Path_20" data-name="&lt;Path&gt;" class="cls-1" d="M130,33.17a1.17,1.17,0,0,1-.68,1.09.81.81,0,0,1-1-.55,1,1,0,0,1,.5-1.09c.5-.27,1,.18,1.22.55Z"/><path id="_Path_21" data-name="&lt;Path&gt;" class="cls-1" d="M19.51,34.58a1,1,0,0,1-.68.87c-.36.27-.63-.18-1-.32a1.08,1.08,0,0,1,0-1c.14-.27.45-.27.72-.36.41.23.81.41.9.87Z"/><path id="_Path_22" data-name="&lt;Path&gt;" class="cls-1" d="M21.5,34.35c.18.46-.32.68-.5.91-.54.18-.81-.23-1-.55s.18-.73.5-1c.54-.14.81.23,1,.64Z"/><path id="_Path_23" data-name="&lt;Path&gt;" class="cls-1" d="M131.24,34.22c0,.59-1,1.19-1,1.78a4.58,4.58,0,0,1-2.8,2.55,2.17,2.17,0,0,1-1,.59c-.09-.91.72-1.73,1.22-2.55a6.71,6.71,0,0,1,3.66-2.37Z"/><path id="_Path_24" data-name="&lt;Path&gt;" class="cls-1" d="M18.61,36.13a16.5,16.5,0,0,0,1.85,2.14.38.38,0,0,1-.32.46c-2.22-.14-3.71-2.42-4.79-4,.14-.5.72-.09,1-.14.77.59,1.63.77,2.22,1.55Z"/><path id="_Path_25" data-name="&lt;Path&gt;" class="cls-1" d="M131.87,36.77a5.85,5.85,0,0,1-2.8,4.92c-.5.18-1,.68-1.54.36a22.83,22.83,0,0,1,4-5.29Z"/><path id="_Path_26" data-name="&lt;Path&gt;" class="cls-1" d="M123.18,38.09a1.11,1.11,0,0,1-.77,1.32c-.5,0-.81-.36-1-.73a1,1,0,0,1,.63-1,.75.75,0,0,1,.54-.14c.27.09.41.32.63.55Z"/><path id="_Path_27" data-name="&lt;Path&gt;" class="cls-1" d="M16.12,38.5a26.5,26.5,0,0,1,2.44,2.14c-.59.41-1.31,0-2,0C15,40.14,14,38.82,12.41,38.36c0-.5.63-.32,1-.46a8.29,8.29,0,0,1,2.76.59Z"/><path id="_Path_28" data-name="&lt;Path&gt;" class="cls-1" d="M64.56,25c-2.53-1-4.21,1.64-6.79,1.32-.32.18-.23.5-.41.73s-.36,0-.5,0c-.13-1.09-.5-2.1-.63-3.14-.27-.45-.14-1.09-.36-1.55-1.45-4,3.53-1,4.52-3.28.86-2-1.67-2.23-2.44-3.64v-.59c-.72-.73-1.49-1-1.95-1.91a6.59,6.59,0,0,0,.14-3.51c0-.27-.23-.64-.63-.5C54.66,10.07,54,11,53.21,12.17a24.34,24.34,0,0,0-2.67-2c-.68-.09-1.31-.77-2.08-.5a.62.62,0,0,0,.14.68,6.54,6.54,0,0,0,2.22,4.47l.14.68c-.81,1.87-.59,4-.81,6a33.37,33.37,0,0,1-9.82,13.8c-2.58,2.92-5.65,5.74-6.06,9.75-.13.64.09,1.41-.41,1.87a15.55,15.55,0,0,1-4.21-2.23c-2.08-1.46-5.07-1.28-6.42-3.92-.54-1,.14-2.1.63-2.87,1.54-1.46,1.31-4.05.5-5.83-.18,0-.23.18-.36.23-.14,2.69-2.26,4.56-1.45,7.52.18.86.63,1.41.86,2.23a7,7,0,0,1-1-.23,11.32,11.32,0,0,0-3-.41c-2.08,1-4.93-.23-6.6,1.69-.27,0-.63.09-.54.5,1,0,1.94.27,2.94.23,1.58.27,2.62-1,3.71-1.64h.27c.45-.46,1.22-.18,1.81-.27,2.85.32,5.07,1.69,7.42,3.1v.18c-.9.41-1.94.68-2.85,1.19a6.14,6.14,0,0,0-2.53,3.05c-.72,1.14.23,2.14.68,3.1,0,.46.09,1,.5,1.19,1.45-1.55.09-3.46.32-5.24.36-1.37,1.63-2,2.94-2.37,2.58-1.09,4.43,1,6.51,2.19,0,2.1.23,4.1-.22,6.15a5.63,5.63,0,0,1-2.13.32C28,55,25.16,57,22,58.09c-1.45.5-3.17.46-4.61,1,1.13.32,2.31-.09,3.48-.14,4.43-.64,7.82-4.05,12.62-3.46l.09.14a10.69,10.69,0,0,1-2.13,3c-.14-.5-.18-.91-.63-1.18a.84.84,0,0,0-1,.36.62.62,0,0,0,0,.68,1.48,1.48,0,0,0,1,.64c-.09.41-.59.59-.86,1-1.27,2.14-3.85,1.28-5.34,2.78-.23.32-1,.5-.68,1a6.79,6.79,0,0,0,4.66-1.19C30.19,60.78,32,59,33.62,57.22a5.43,5.43,0,0,1-1,4.15,5.33,5.33,0,0,0-1.22-.68,1.12,1.12,0,0,0-.81.91,2.67,2.67,0,0,0,.68.91c-1.54,1.09-3.48,1.18-5.25,1.68a89,89,0,0,1-9.86.73c-1.58-.09-3.39.46-4.88,0-1.72.32-3.57-.23-5,.73-.18.23,0,.46,0,.68,2.08,1.37,4.93.27,7.28.68H31.45a8,8,0,0,0,3.66-.68c2.31-1.32,3.57-3.69,4.75-6a9.34,9.34,0,0,0,.95-2.73,3.93,3.93,0,0,1,3.39-2.78,20.73,20.73,0,0,1-.77,6.92c-.27,1.46-1.22,2.87-.63,4.42.14.73.91.73,1.49.82,5.47-.09,10.95-.32,16.74.09a13.6,13.6,0,0,0,3.08.45c.09-.14.41-.18.27-.45a1.72,1.72,0,0,0-1.09-1.28c-.09-.27-.5-.18-.63-.36-2.89-1.64-6.38-.77-9.77-.73-1.76.18-3.53.5-5-.5-.68-.82-.18-3.42-.18-3.42,0-1,2.49-8.2,2.81-8.79a7.87,7.87,0,0,0,.27-2.1,8.82,8.82,0,0,0,.27-3.1,21.13,21.13,0,0,1,1.4-4.24c.27-.68.5-1.41.77-2.1a6.81,6.81,0,0,1,.91-2.37c1.48.94,2.92.91,3.63,2.58l.62,3.8c0,.23.18.68.5.41,1.18-.78.81-2.51.81-3.69.27-1.41-.72-2.1-1.13-3.33a5.45,5.45,0,0,1-.84-1.31c-.18-1-2.37-1.69-1.88-2.92A3.71,3.71,0,0,1,57.37,31a.47.47,0,0,1,.23.32l.54-.38.06-3.81c1.46,0,3.65.18,5.14.18.41.14.72.46,1.18.5l.36-.5,3.67-.71C67,26.8,66,25,64.56,25Z"/><path id="_Path_29" data-name="&lt;Path&gt;" class="cls-1" d="M68.54,26.63l.34-.07-.34.07Z"/><path id="_Path_30" data-name="&lt;Path&gt;" class="cls-1" d="M29.15,39.32a1,1,0,0,1-.68,1c-.36-.14-.63-.18-.86-.55s.27-.87.63-1c.36.09.81.14.91.55Z"/><path id="_Path_31" data-name="&lt;Path&gt;" class="cls-1" d="M26.21,39.32a1,1,0,0,1,.18,1c-.32.27-.81.5-1.09.14s-.54-.59-.32-1,.86-.59,1.22-.23Z"/><path id="_Path_32" data-name="&lt;Path&gt;" class="cls-1" d="M89.17,39.82l0,0"/><path id="_Path_33" data-name="&lt;Path&gt;" class="cls-1" d="M123.64,40.59c.18.5-.23.87-.59,1-.45-.14-1-.23-1-.82a.87.87,0,0,1,1.63-.23Z"/><path id="_Path_34" data-name="&lt;Path&gt;" class="cls-1" d="M126,40.5c.13.23.45.59.09.82a1.74,1.74,0,0,0-.45.36.88.88,0,0,1-1.09-.55c-.09-.5.32-.73.68-1s.54.14.77.32Z"/><path id="_Path_35" data-name="&lt;Path&gt;" class="cls-1" d="M14.85,41.05a.89.89,0,0,1-1.22.59,1.89,1.89,0,0,1-.36-.59.84.84,0,0,1,.5-.78,1.09,1.09,0,0,1,1.08.78Z"/><path id="_Path_36" data-name="&lt;Path&gt;" class="cls-1" d="M30.1,41.82c0,.36-.45.68-.77.87a1.17,1.17,0,0,1-1-.64.92.92,0,0,1,.54-.91,1,1,0,0,1,1.22.68Z"/><path id="_Path_37" data-name="&lt;Path&gt;" class="cls-1" d="M27.43,41.5a.7.7,0,0,1,.14.73c-.27.23-.68.64-1.13.36-.27-.23-.59-.41-.5-.87a2,2,0,0,1,.68-.55c.36-.09.54.14.81.32Z"/><path id="_Path_38" data-name="&lt;Path&gt;" class="cls-1" d="M133,42.05a1.21,1.21,0,0,1-.59.87.89.89,0,0,1-1-.23c-.27-.09-.18-.46-.18-.68a1.57,1.57,0,0,1,.86-.59,1.66,1.66,0,0,1,.91.64Z"/><path id="_Path_39" data-name="&lt;Path&gt;" class="cls-1" d="M135.85,42.46a1.13,1.13,0,0,1-.86.82c-.27,0-.77-.14-.68-.55a.81.81,0,0,1,.41-.73.8.8,0,0,1,1.13.46Z"/><path id="_Path_40" data-name="&lt;Path&gt;" class="cls-1" d="M20,43.1a.88.88,0,0,1-.54,1.09c-.32.18-.63,0-.86-.23a.78.78,0,0,1-.23-.91c.09-.41.5-.32.77-.5a1.12,1.12,0,0,1,.86.55Z"/><path id="_Path_41" data-name="&lt;Path&gt;" class="cls-1" d="M22.22,43.51c.14.36-.27.5-.36.77a.76.76,0,0,1-.81.09c-.32-.27-.68-.68-.36-1.09.36-.68,1.31-.32,1.54.23Z"/><path id="_Path_42" data-name="&lt;Path&gt;" class="cls-1" d="M130.28,43.28c0,.46-.36.77-.63,1a.78.78,0,0,1-.91-.55.94.94,0,0,1,.5-.87,1,1,0,0,1,1,.37Z"/><path id="_Path_43" data-name="&lt;Path&gt;" class="cls-1" d="M134,44c-.09.41,0,.87-.5,1.14a1.29,1.29,0,0,1-1.09-.18.83.83,0,0,1-.18-1,1.06,1.06,0,0,1,1.09-.55c.32.18.41.41.68.55Z"/><path id="_Path_44" data-name="&lt;Path&gt;" class="cls-1" d="M18.29,45c.18.36-.23.46-.36.64a.91.91,0,0,1-.9-.09c-.32-.18-.18-.64-.14-.87.41-.78,1.22-.23,1.4.32Z"/><path id="_Path_45" data-name="&lt;Path&gt;" class="cls-1" d="M131.14,45.83c.18,0,.09.32,0,.41a3.43,3.43,0,0,1-3.66-.18,14.13,14.13,0,0,0-1.81-1c.23-.59,1-.55,1.63-.68,1.31.18,2.35,1.41,3.8,1.46Z"/><path id="_Path_46" data-name="&lt;Path&gt;" class="cls-1" d="M20.46,45.42c.09.36-.18.5-.27.77s-.54.18-.77.09a.76.76,0,1,1,1-.87Z"/><path id="_Path_47" data-name="&lt;Path&gt;" class="cls-1" d="M24.44,45.7c.18.41-.09.77-.45,1s-.59-.09-.86-.14c-.23-.32-.63-.68-.23-1,.41-.68,1.22-.32,1.54.18Z"/><path id="_Path_48" data-name="&lt;Path&gt;" class="cls-1" d="M76.74,47.62c-.09.91-1.59-.13-1.38,1.08a6.93,6.93,0,0,0,.9,2.55c.43.61.21,1.56.17,2.29A4.09,4.09,0,0,1,74.72,55c-1.29-.13-3.18.65-3.78-1a6.45,6.45,0,0,1-.73-2.16c.13-.09.3-.09.43-.22,0-.3-.34-.48-.3-.78,1.46-.26-.6-1.56.64-1.64,1,1.08,2.71.74,3.61,1.9a4,4,0,0,0,.64.56c-.17-1.08-.69-2.16-.86-3.33a1.51,1.51,0,0,1,.52-1.51c.77-.61,1.42.26,1.85.74Z"/><path id="_Path_49" data-name="&lt;Path&gt;" class="cls-1" d="M28.42,47.34c.14.46-.23.73-.5,1s-.63-.27-.81-.5c-.14-.46.18-.68.45-.91a1,1,0,0,1,.86.46Z"/><path id="_Path_50" data-name="&lt;Path&gt;" class="cls-1" d="M56.33,47.79a6.25,6.25,0,0,1-.54,5.1c0,.36.09,1-.41.91-1.22-1.69-.32-4.06.18-5.83.09-.46.63-.64.77-.18Z"/><path id="_Path_51" data-name="&lt;Path&gt;" class="cls-1" d="M95,48.66a5.14,5.14,0,0,1,.09,4.24l-.36.36a10.41,10.41,0,0,1-1-3.23,11,11,0,0,0,.54-2.41c.63-.14.59.68.77,1Z"/><path id="_Path_52" data-name="&lt;Path&gt;" class="cls-1" d="M32,49.16c-.27.55-1,.68-1.54,1a5.39,5.39,0,0,1-4,.78,4.92,4.92,0,0,1,5.16-2.14c.09.18.32.09.41.32Z"/><path id="_Path_53" data-name="&lt;Path&gt;" class="cls-1" d="M13.36,50.8C15,52,15.49,53.62,16.48,55.26c.13.18.59.23.41.59-.36.27-.72-.27-1.22-.18A5,5,0,0,1,12.91,51c0-.18.27-.18.45-.18Z"/><path id="_Path_54" data-name="&lt;Path&gt;" class="cls-1" d="M93.29,52.21c0,.46,0,.91-.41,1a.83.83,0,0,1-1-.55c-.14-.32.13-.5.23-.73a.8.8,0,0,1,1.22.23Z"/><path id="_Path_55" data-name="&lt;Path&gt;" class="cls-1" d="M112.37,54.63a22.69,22.69,0,0,1,.32-2.51,1.66,1.66,0,0,0,.18-1c1.09-1.46,3.3-1,5-.87a9.6,9.6,0,0,0,2.26.5,1.65,1.65,0,0,1,1.13-.23c1.45-.78.5-2.46.59-3.78l-.54-1.37a5.3,5.3,0,0,1-.36-.91c-.27-.32-.45-.91-.72-1.23-.77-2-2.26-3.14-3.53-4.74-2.31-3-5.93-4.69-9.54-5.88s-7.19.36-10.4,1.5A2.59,2.59,0,0,1,95,32.26a9,9,0,0,1,.86-4.83c.14-1.14.9-2,1.22-3.05a32.51,32.51,0,0,0,1.85-7.84c.09-1.69-1.18-2.87-2.44-3.6a2.47,2.47,0,0,0-2.49.5,6.6,6.6,0,0,1-2.94,2.64c-.09.77.86.27,1.17.55,1,.18,2.13-.14,2.94.5.09,1.82-1,3.33-1.9,4.69a36.2,36.2,0,0,0-4.12,7.11L89,28.75l.22,11.14c1.44,2.4,3.24,5.14,5.93,6,1.45,1.18,3.26,2.6,5.2,1.55,1-.32,1.13,1.14,1.63,1.73.54,1.69-.68,2.87-.77,4.42L100,56.13c-1.36,2.64-2.58,5.47-4.66,7.7-.68,0-1.09.73-1.76.77-.36.5-1.09.14-1.54.32-1.4.59-3.39.23-4.34,1.55a.62.62,0,0,0,.36.23c2.76,0,5.84.23,8.77.09a1.09,1.09,0,0,0,.72-.87c-.41-.77.14-1.46.5-2.05.23-1.09,1-1.78,1.27-2.82.95-1.87,2-3.69,3.07-5.56l1.4-2.28a16.05,16.05,0,0,1,1.4-2.55,5.85,5.85,0,0,0,.81-1.23c0-.46-.18-.64-.45-1,.32-.32.81-.23,1.22-.32a5.12,5.12,0,0,1,2.53,3l.41,1.18.18.55-.09,1.5.18,1.41a32.52,32.52,0,0,1-.41,6.61c-.77,2.64-3.8,2.37-6,3-.54.36-1.58.18-1.58,1.09,2.62.55,5.7.23,8.5.18.45-.18.54-.59.77-1,.09-.59.68-1.09.5-1.73-.5-.64,0-1.64-.18-2.51a1.4,1.4,0,0,0,0-.87c.36-1.32.27-2.92.54-4.19l.18-1.73Z"/><path id="_Path_56" data-name="&lt;Path&gt;" class="cls-1" d="M134.63,52.85c-1.45,2-3,4.37-5.52,5.1-.18,0-.36.09-.45-.14,1.54-1.64,2.35-4.19,4.75-4.78a1.48,1.48,0,0,1,1.22-.18Z"/><path id="_Path_57" data-name="&lt;Path&gt;" class="cls-1" d="M11.14,55.08c-.23.18,0,.59-.45.64a.73.73,0,0,1-.95-.41.81.81,0,0,1,.59-1c.36.18.72.32.81.77Z"/><path id="_Path_58" data-name="&lt;Path&gt;" class="cls-1" d="M24.17,55.72c.13.41-.32.41-.54.5a4.93,4.93,0,0,1-5.2-1.32c0-.18,0-.36.18-.41,1.85.45,4,.09,5.56,1.23Z"/><path id="_Path_59" data-name="&lt;Path&gt;" class="cls-1" d="M13.63,55.13a1.2,1.2,0,0,1,.09.68,1,1,0,0,1-1.13.41,1.47,1.47,0,0,1-.59-.59,1.08,1.08,0,0,1,.77-.87,1.36,1.36,0,0,1,.86.36Z"/><path id="_Path_60" data-name="&lt;Path&gt;" class="cls-1" d="M56,55.36c.09.41-.27.68-.54.86a.89.89,0,0,1-.95-.36.66.66,0,0,1,.32-.87c.41-.09,1,0,1.17.37Z"/><path id="_Path_61" data-name="&lt;Path&gt;" class="cls-1" d="M136.35,55.54c.14.46-.27.68-.59,1a1,1,0,0,1-.86-.14c0-.23-.32-.41-.22-.73a1,1,0,0,1,1-.55,5.26,5.26,0,0,1,.63.46Z"/><path id="_Path_62" data-name="&lt;Path&gt;" class="cls-1" d="M139.33,55.36c.27.41,0,.73-.18,1a.62.62,0,0,1-.81.27c-.27-.27-.63-.41-.68-.82s.41-.64.68-.77c.45-.18.63.27,1,.27Z"/><path id="_Path_63" data-name="&lt;Path&gt;" class="cls-1" d="M9.24,56.68c0,.32-.23.5-.32.77-.23.09-.45.27-.72.18a1.33,1.33,0,0,1-.68-.73A1.18,1.18,0,0,1,8.34,56a1.17,1.17,0,0,1,.9.68Z"/><path id="_Path_64" data-name="&lt;Path&gt;" class="cls-1" d="M104.5,56.68a1.32,1.32,0,0,1,0,.59c-.27.36-.63.68-1.09.46-.27-.27-.59-.55-.45-1a.89.89,0,0,1,1.49-.09Z"/><path id="_Path_65" data-name="&lt;Path&gt;" class="cls-1" d="M16.53,57.36c-.09.32-.23.64-.63.68s-.54-.32-.77-.5c0-.41,0-.82.36-1a.82.82,0,0,1,1,.87Z"/><path id="_Path_66" data-name="&lt;Path&gt;" class="cls-1" d="M12.18,57.45a1,1,0,0,1-.45,1,1.07,1.07,0,0,1-1.22-.64,1.29,1.29,0,0,1,.81-1c.41,0,.63.46.86.68Z"/><path id="_Path_67" data-name="&lt;Path&gt;" class="cls-1" d="M107.49,57.36a.91.91,0,0,1-.5,1.09c-.54.18-1-.27-1.22-.64.23-.36.27-.87.81-1a1,1,0,0,1,.9.5Z"/><path id="_Path_68" data-name="&lt;Path&gt;" class="cls-1" d="M14.31,57.54c.14.32-.13.46-.23.68-.22,0-.36.27-.63.18s-.54-.32-.59-.64.27-.68.59-.87a.83.83,0,0,1,.86.64Z"/><path id="_Path_69" data-name="&lt;Path&gt;" class="cls-1" d="M133.86,57.91a1.35,1.35,0,0,1-.77.73c-.36.09-.59-.23-.86-.37s-.14-.59,0-.82a.91.91,0,0,1,1.67.46Z"/><path id="_Path_70" data-name="&lt;Path&gt;" class="cls-1" d="M137.3,58.09a1.17,1.17,0,0,1-1.09.77c-.41-.18-.86-.5-.54-1,.18-.18.27-.36.54-.41a.87.87,0,0,1,1.09.68Z"/><path id="_Path_71" data-name="&lt;Path&gt;" class="cls-1" d="M115.81,58.41c.23.59-.31.77-.68,1a2.07,2.07,0,0,1-.86-.36,1,1,0,0,1,.64-1.18,1.09,1.09,0,0,1,.9.5Z"/><path id="_Path_72" data-name="&lt;Path&gt;" class="cls-1" d="M103.37,59c.23.09.13.41.09.55-.27.18-.63.64-1,.36A.77.77,0,0,1,102,59a.84.84,0,0,1,1.4,0Z"/><path id="_Path_73" data-name="&lt;Path&gt;" class="cls-1" d="M105.9,59.27a.62.62,0,0,1-.36.73c-.32.32-.68,0-1-.14a.73.73,0,0,1,0-.68,1,1,0,0,1,.59-.36c.32.09.68.09.81.46Z"/><path id="_Path_74" data-name="&lt;Path&gt;" class="cls-1" d="M29.15,59.32c.27.27,0,.59-.09.87a.88.88,0,0,1-1.13.23c-.45-.18-.41-.78-.32-1.14.27-.09.27-.41.63-.41a1.58,1.58,0,0,1,.91.46Z"/><path id="_Path_75" data-name="&lt;Path&gt;" class="cls-1" d="M120.65,59.5c.09.46-.36.64-.68.73-.54.18-.81-.23-1-.59,0-.27.27-.45.36-.68.63-.27,1,.18,1.36.55Z"/><path id="_Path_76" data-name="&lt;Path&gt;" class="cls-1" d="M118.21,59.5c.18.46-.32.68-.5.91a.91.91,0,0,1-1-.18c-.23-.14-.23-.41-.23-.68.27-.23.41-.5.73-.59a1.18,1.18,0,0,1,1,.55Z"/><path id="_Path_77" data-name="&lt;Path&gt;" class="cls-1" d="M138.61,60c.09.64-.72.32-1,.5-1.9,1.14-4.34.27-6.15-.41.14-.59.81-.36,1.18-.59,1.94-1.23,3.93.27,5.88.36l.14.14Z"/><path id="_Path_78" data-name="&lt;Path&gt;" class="cls-1" d="M14.81,59.5l-.18.32a7.33,7.33,0,0,1-5.83,1l-.18-.27a8.18,8.18,0,0,1,6.06-1.23l.13.14Z"/><path id="_Path_79" data-name="&lt;Path&gt;" class="cls-1" d="M125.26,59.82a1,1,0,0,1-.45.86.9.9,0,0,1-1.18-.5c-.13-.36.23-.73.59-.87s.86,0,1,.5Z"/><path id="_Path_80" data-name="&lt;Path&gt;" class="cls-1" d="M22.9,60c-.18.36-.09.73-.54.91a1,1,0,0,1-1.13-.59c-.14-.5.23-.64.45-.86.54-.27,1,.14,1.22.55Z"/><path id="_Path_81" data-name="&lt;Path&gt;" class="cls-1" d="M19.69,60.23c.13.32-.14.5-.23.73a.83.83,0,0,1-.9.14c-.32-.27-.63-.59-.5-1.09a2.57,2.57,0,0,1,.72-.5,1,1,0,0,1,.91.73Z"/><path id="_Path_82" data-name="&lt;Path&gt;" class="cls-1" d="M128.43,61.28a1,1,0,0,1-.72.82,1,1,0,0,1-.86-.46.71.71,0,0,1,.18-.87c.09-.14.41-.14.59-.23a1,1,0,0,1,.81.73Z"/><path id="_Path_83" data-name="&lt;Path&gt;" class="cls-1" d="M16.34,60.78c.14.36-.18.5-.23.77a6.67,6.67,0,0,1-1,2c-.86,1-2.08,1-3.3,1.37l-.18-.36a11.89,11.89,0,0,1,4.57-3.83l.14.09Z"/><path id="_Path_84" data-name="&lt;Path&gt;" class="cls-1" d="M126.17,61.78c.09.55-.36.64-.68.86a1,1,0,0,1-.91-.55c-.14-.5.32-.68.59-.91a.91.91,0,0,1,1,.59Z"/><path id="_Path_85" data-name="&lt;Path&gt;" class="cls-1" d="M21.55,61.78c0,.09,0,.18.14.23,0,.5-.41.64-.68.87a1.22,1.22,0,0,1-1-.45.76.76,0,0,1,.45-1c.41,0,1,0,1.09.41Z"/><path id="_Path_86" data-name="&lt;Path&gt;" class="cls-1" d="M134.49,63.15c.45,0,.54-.59,1-.68a1.11,1.11,0,0,1,1.09.5c.18.55-.23.82-.59,1s-1-.27-1,.32a1.41,1.41,0,0,1,.63.91c-.09.18-.41.14-.54,0a5.72,5.72,0,0,1-3.26-2.82c-.18-.41-1-.73-.54-1.09,1.31-.09,2.4,1,3.12,1.78Z"/><path id="_Path_87" data-name="&lt;Path&gt;" class="cls-1" d="M138.83,61.73a.69.69,0,0,1,0,.87c-.23.46-.9.27-1.31.23-.23-.23-.45-.46-.36-.82a1.44,1.44,0,0,1,.68-.59,1.25,1.25,0,0,1,1,.32Z"/><path id="_Path_88" data-name="&lt;Path&gt;" class="cls-1" d="M122.42,64.19a6.54,6.54,0,0,1,1,1.82c-.09.14-.32.09-.41.09-1.54-.87-3.53-1.82-4.12-3.64-.14-.18-.5-.41-.45-.73,1.18-.23,2.31.64,3.12,1.28.32.46.68.68.86,1.18Z"/><path id="_Path_89" data-name="&lt;Path&gt;" class="cls-1" d="M19,62.46c.18.41-.18.73-.41.91a1,1,0,0,1-1-.36c-.32-.5.27-.91.64-1.09s.59.32.81.55Z"/><path id="_Path_90" data-name="&lt;Path&gt;" class="cls-1" d="M128.07,63.51c0,.27-.32.46-.45.64-.36,0-.72.18-1-.14-.09-.23-.32-.59,0-.82.5-.64,1.22-.14,1.54.32Z"/><path id="_Path_91" data-name="&lt;Path&gt;" class="cls-1" d="M139.33,64.15a1.07,1.07,0,0,1-.64,1.14,1.19,1.19,0,0,1-1.09-.41c-.23-.27,0-.55,0-.87a1.13,1.13,0,0,1,1.18-.32,2.42,2.42,0,0,1,.54.46Z"/><path id="_Path_92" data-name="&lt;Path&gt;" class="cls-1" d="M108,70.43c0,.55-1,.41-1.4.82a9.68,9.68,0,0,1-4.75.68v-.27A6.72,6.72,0,0,1,108,70.43Z"/><path id="_Path_93" data-name="&lt;Path&gt;" class="cls-1" d="M42,72.39a.75.75,0,0,1-1.45.32c-.18-.55.27-.77.59-1a1.06,1.06,0,0,1,.86.68Z"/><path id="_Path_94" data-name="&lt;Path&gt;" class="cls-1" d="M107.26,72.89a1.3,1.3,0,0,1-.68,1c-.41.09-.68-.14-1-.32s-.09-.5-.13-.73a1,1,0,0,1,1.81,0Z"/><path id="_Path_95" data-name="&lt;Path&gt;" class="cls-1" d="M116.26,73.08a7.41,7.41,0,0,1-3.89,1.6l-2.44,0-.23-.18c1.49-1.82,4.21-1.82,6.56-1.64v.27Z"/><path id="_Path_96" data-name="&lt;Path&gt;" class="cls-1" d="M29.64,74.17a.84.84,0,0,1-.59.87.79.79,0,0,1-.59-1.46c.5-.32,1,.23,1.18.59Z"/><path id="_Path_97" data-name="&lt;Path&gt;" class="cls-1" d="M31.9,74.63c.14.23-.09.37-.18.59a.74.74,0,0,1-.86,0,.58.58,0,0,1-.27-.78c.14-.27.41-.23.54-.41a1.28,1.28,0,0,1,.77.59Z"/><path id="_Path_98" data-name="&lt;Path&gt;" class="cls-1" d="M14.58,79.23c-.45.55-1.18-.14-1.67-.41-1.58-.91-1.54-2.69-3.12-3.74.18-.55.59,0,.9,0a6,6,0,0,0,1,.5c1.54.87,1.9,2.32,2.94,3.69Z"/><path id="_Compound_Path_2" data-name="&lt;Compound Path&gt;" class="cls-1" d="M146.43,61.55A3.6,3.6,0,0,0,143,59.68a3.12,3.12,0,0,0-2.53,1.87,2.3,2.3,0,0,0,.86,2.51.7.7,0,0,0,.9-.23c.23-.59-.41-.59-.5-1a1.51,1.51,0,0,1,.5-1.59c.45-.46,1.22-.23,1.76-.23a3.17,3.17,0,0,1,1.36,1.32,3.67,3.67,0,0,1,0,2.41,4,4,0,0,1-2.8,2.28c-3.75.55-45,.36-45,.36-4.84.46-10.36-.91-14.52,1.64-1.9.91-2.85,3-3.35,4.87a33,33,0,0,0-3.53,3.6l-.14-.14c.23-1.09.72-2.05,1-3.14.68-.91.68-2.14,1.18-3.14,1.72-2.78,3.35-5.6,6-7.56,1.13-1.5,3.12-1.23,4.84-1.23a12,12,0,0,0,6.29.91.42.42,0,0,0,.14-.32c-.63-.59-1.67-.82-2.4-1.41-1.81-.87-3.53.27-5.43.14-.09-.09-.18-.14-.14-.27a26.74,26.74,0,0,1,5.61-3,38.44,38.44,0,0,1,4.93-2c.68,0,1.31-.59,1.94-.18l2.4-.64c.09,0,.18.18.36.14,2-.68,4.61,0,6.92-.09l.32.27,2.17.55c.81.09,1.18,1,2,1.09.45-.64-.5-.91-.72-1.32a5,5,0,0,1,3,.46l-.45.5c-.27.5.13.87.54,1s.54-.14.77-.23c.59-.41,0-.82.14-1.18a43.18,43.18,0,0,1,9.64,2.73c.86.27,1.67.91,2.62.86a11.9,11.9,0,0,0-3.44-1.82c-.77-.46-1.85-.5-2.44-1.14.13-.23.45-.14.59-.32a6.72,6.72,0,0,0,3.94-2.55c.09-.27.59-.18.54-.55-.41-.46-1.09.14-1.63.09-1.9.36-2.71,2.6-4.61,3-2.31-.55-4.66-1.09-7-1.69a14.07,14.07,0,0,1-3.39-.73l-2.53-.23h-4.61c0-.09-.18-.14-.14-.27,1.63-.41,3-1.37,4.66-1.78l12.12-5.56a29.8,29.8,0,0,0,3.44-3.74.86.86,0,0,0-.5-.87.75.75,0,0,0-.9.18c-.54.41,0,.91,0,1.41a7.65,7.65,0,0,1-2.08,1.78c-.18,0-12.48,5.6-12.48,5.6a31.1,31.1,0,0,1-5.52,2l-2.62.41a1.73,1.73,0,0,1-1.13,1,10.79,10.79,0,0,1-2.08.59C92.11,57.54,86,60,81.34,64.6a5.15,5.15,0,0,0,.45-1.91,3.78,3.78,0,0,0-.5-2c-.11-.25-.44-1-.33-1.25l-.66.43a6.34,6.34,0,0,0-.36,3.87c.14.82.81,1.78.18,2.51-2.17,2.64-3.39,5.83-4.84,8.84-.54-.09-.81-.59-1-1.09a15.19,15.19,0,0,0,3.21-6.65c.32-.23.09-.82.41-1.09-.09-.73.41-1.46,0-2,.29-1-1.32-1.91-.29-2.55l-.85.41c-1.95,2.55,1,6.38-1.21,8.84v.18a7.76,7.76,0,0,1-1.81,2.19c-1.09-.46-1.49-1.69-2.13-2.6-1-1-1-2.92-.41-4.24.41-1.32-.27-2.46-.41-3.65l-.45-.27a5.26,5.26,0,0,0-.63,5.33c.45.82.5,2,1.18,2.64a14.71,14.71,0,0,0,1.94,3.37c.18.46-.27.55-.5.77-.5-.32-.41-1-.86-1.37a33.15,33.15,0,0,0-5.79-8.34c-.09-.41-.5-.77-.27-1.23A3.33,3.33,0,0,0,66,60.23c-.09-.23-.36-.5-.31-.73L65,59c.09,1.59-.95,3-.5,4.69v.09a86.08,86.08,0,0,0-15.06-9.1L49,55.79a31.27,31.27,0,0,1,4.85,2.47,31.15,31.15,0,0,1,4.52,2.42c6.15,3.42,10.22,9.07,13,15.35,0,.5.5,1,.18,1.55-1-1.46-2.31-2.28-3.44-3.46a6.64,6.64,0,0,0-3.44-5.06c-.68-1-2.13-1.09-3.26-1.41L45,67.56c-13.39-.18-25.6.41-38.9.18C4.22,67.56,2,66.93,1.42,65a3,3,0,0,1,0-2.51,2.76,2.76,0,0,1,2.31-1.23,2.42,2.42,0,0,1,1.54,1.28c0,.59-.5,1.14-.73,1.64,0,.18.23.55.54.41A2.12,2.12,0,0,0,6.26,63.1c0-.32.18-.77-.14-1A3,3,0,0,0,4,60.23a3.78,3.78,0,0,0-3.08,1c-1.09.91-1,2.55-.72,3.83a6.11,6.11,0,0,0,4.89,3.64l44,.18c4.3.23,9.14-.5,13.48.36a5.2,5.2,0,0,1,3.66,3.46c0,.09-.18,0-.32,0a19.6,19.6,0,0,0-12.85-2.64,15.72,15.72,0,0,0-5.07,1,2.57,2.57,0,0,1-2.22-.73c-1.63-1.46-4.48-1.37-6.56-.82,0,.14,0,.27,0,.32,2.22-.18,3.53,1.73,5.52,2,.45.09.81-.41,1.22,0a40.87,40.87,0,0,1-6.29,2.82c-.68-.14-1-.77-1.58-1.14-.86-1-2.44-.55-3.62-.64-.41.09-.77-.18-1,0a3.85,3.85,0,0,0,1.95,1.5c1.13.5,2.44,0,3.48.64a4.34,4.34,0,0,1-1,.64c-2.13.82-3.89,2.73-6.24,2.6A8.07,8.07,0,0,1,25,76.13a4.54,4.54,0,0,0-4.57-2.64c-.13.09-.32.09-.27.32,1,.59,1.76,1.78,2.76,2.46.63.77,1.85,0,2.44.86a8.06,8.06,0,0,0,2.94,1.28,12.82,12.82,0,0,0,2.35.64l-.32.18c-4.11,1.37-8.87,1.5-13.48,1.32-1.36,0-2.67-.46-4-.41a2.56,2.56,0,0,0,1.09.64,2.75,2.75,0,0,1-1.22.36A8.07,8.07,0,0,0,11,81.6a4.53,4.53,0,0,0-1.94.46,9.2,9.2,0,0,1-2.58,2.1c0,.18,0,.46.18.46.86-.36,1.94-.09,2.8-.46C11,84,11.82,82.37,13,81.69c1.26-1,3.07-.77,4.61-.55.9.23-.09.59.18,1.18.36.32.68.68,1.18.55a.79.79,0,0,1,.32-.23,1,1,0,0,0,0-1.14c.63-.41,1.49,0,2.17-.23,1.72,0,3.44-.41,5.11-.46.27,0,.59-.32.86,0-.13.36-.59.41-.41.91s.54.59.9.68c.45-.18.86-.5.68-1.09-.09-.32-.45-.36-.68-.5,1-.46,2-.59,3-1a8.47,8.47,0,0,0,1.9-.64c.59,0,1.09-.59,1.63-.36a9.4,9.4,0,0,1-1,2.19c-.72,2.41-1.27,5.6,0,7.93.14,0,.18,0,.27-.09-1-2.41-.41-5.19.41-7.47.63-3.87,4.61-5,7.46-6.47l.13.18c-.77,2-1.9,3.92-1.72,6.33.09.41-.18.82,0,1.09a4.79,4.79,0,0,0,1.67-2.1c.32-2-.86-4.6,1.22-6.1,3.71-1.46,7.19-3.37,11.49-3.42.14.14.45-.09.5.18-.9,1-2.22,2-2.62,3.19-1.45,2-1.4,5.42-.77,7.88.41,1.41-.81,2.19-1.4,3.28-.28.39-.36,1.05-.62,1.5l.89.1a4.85,4.85,0,0,0,1.54-3,1.25,1.25,0,0,0,.86.91c.32-.5-.27-.87-.32-1.37.72-.41,1,.5,1.63.68a11.53,11.53,0,0,0,2.76.64l.32-.32c-1-1.55-3-1.82-4.71-1.91a9.12,9.12,0,0,1-.81-5.19,8,8,0,0,1,.9-2.82,6.81,6.81,0,0,1,1.27-1.73,6.29,6.29,0,0,1,2.85-1.55h.13a.2.2,0,0,0,0,.14c-1.22,1-1.36,2.28-2.08,3.46a3.81,3.81,0,0,0-.41,4c.27.59.14,1.5.77,1.91A10.09,10.09,0,0,0,56.15,78c-.14-1.5-1-2.92-.18-4.37a3.73,3.73,0,0,1,2.44-2c2.49-.23,4.66,1,6.83,2,.45.32,1.22.59,1.31,1.23a3.7,3.7,0,0,1-5.79,3A3.13,3.13,0,0,1,60,75a1.87,1.87,0,0,1,2-.73c.45.23.86.68,1.45.41a.57.57,0,0,0,.18-.73c-.5-.27-.68-1-1.36-1a2.93,2.93,0,0,0-2.49.5,3.21,3.21,0,0,0-1,3.19,3.9,3.9,0,0,0,2.8,2.92,5.25,5.25,0,0,0,5.56-1.91,6.18,6.18,0,0,0,1-2,11.82,11.82,0,0,1,4.66,6,9.64,9.64,0,0,1,0,2.28l1.58.14A1.51,1.51,0,0,1,74.56,83a13.72,13.72,0,0,1,4.66-7.47c.77-.46.59.59.77.91a6.09,6.09,0,0,0,3.94,3.46,5,5,0,0,0,4.88-1.6c.59-1.09,1.31-2.69.32-3.83a3.12,3.12,0,0,0-2.49-1.18A3.07,3.07,0,0,0,84.15,75c0,.36,0,.77.27,1,.18,0,.54,0,.68-.23.09-.68.68-1,1.22-1.37a1.41,1.41,0,0,1,1.45.27,2.38,2.38,0,0,1,.63,1.78,2.74,2.74,0,0,1-1.49,2.14,4.6,4.6,0,0,1-4.34-.41,10,10,0,0,1-1.27-2,3.32,3.32,0,0,1,0-2.1,15.29,15.29,0,0,1,6.47-2.28,4.61,4.61,0,0,1,2.4,1.5c2.08,2.14-.45,5.19,1,7.56.54-.09.54-.82.77-1.28.68-1.64-.18-3.42-.59-5a9.37,9.37,0,0,0-1.72-2.69,1.15,1.15,0,0,1,.54-.09,11.23,11.23,0,0,1,2.76,2.37,12.24,12.24,0,0,1,1.76,7.47c-.36,1.37-1.81,2-2.94,2.5a4.23,4.23,0,0,0-1.22,1.46c.54.32,1.31,0,1.85-.23.86-.32,1.36-1.41,1.95-1.91.09,0,0,.18.09.27,0,.5-.23,1.18.23,1.32A16.22,16.22,0,0,0,95,82.69,4.53,4.53,0,0,1,95.91,85c.41.82,1.09,1.91,2.17,2.05.27-.41,0-.82-.13-1.18-.14-1.14-1.09-1.73-1.72-2.55-1.58-2.19-.86-5.6-2.08-8.06a9.58,9.58,0,0,0-2.44-3.37l.18-.18c2.22,0,4.07.68,6.11,1.09,2.49,1.23,6.11,1,7.28,4.19a12,12,0,0,0,2.58,4.92l.14-.09a1.85,1.85,0,0,0,0-1.69c-.27-2.28-2.26-2.82-3.3-4.74l.14-.18a30.62,30.62,0,0,1,3.3,1c3.62,1,6.15,4.56,6.6,8.25a17.83,17.83,0,0,1-1.67,7.79c-.14.37-.77.78-.36,1.09.5-.36.59-1,.86-1.37A12.69,12.69,0,0,0,115,82.83c0-.59-.72-1-.41-1.64a1.44,1.44,0,0,0,.77.41c.27-.18.68-.18.86-.5s.22-.59,0-.82A1.25,1.25,0,0,0,115,80a2.18,2.18,0,0,0-.54,1,9.39,9.39,0,0,0-1.63-2.41l.09-.14c2,.68,3.89,1.69,6,2.23a3,3,0,0,0,1.58.5A45.37,45.37,0,0,0,126,82.55c1.36-.14,2.49.5,3.85.18v-.09l0,0c-.5-.64-1.58,0-2.17-.5A34.12,34.12,0,0,1,118.71,80c0-.14.23-.09.36-.09a1.18,1.18,0,0,0,.72-1.14,1.22,1.22,0,0,0-1-.5,1.27,1.27,0,0,0-.68.77,1.13,1.13,0,0,0,.68.87c-.09.09-.27,0-.41,0-1.4-.64-2.76-1.23-4.12-1.87-.5-.09-.9-.5-1.4-.59-1-.5-2.08-1-3.12-1.41-2.89-1.5-6.1-2.32-9.18-3.42l-1.95-.55c-1.13-.32-2.26-.59-3.39-.91-3.84-1-9-1-12.35,1-.54-.18-.86.68-1.13.14,1-2.51,3.71-3.33,6.2-3.42,18.14-.18,35.15-.32,53-.59a5.72,5.72,0,0,0,5.2-2.6,4.58,4.58,0,0,0,.32-4.19ZM74.51,78.36A4.11,4.11,0,0,0,74,80l-.18.09c.14-.68-.54-1.09-.36-1.82-.36-.55-.36-1.23-.68-1.82s.36-1,.68-1.55c.63.27.86.87,1.31,1.41.27.77-.32,1.37-.27,2.1Z"/><path id="_Path_99" data-name="&lt;Path&gt;" class="cls-1" d="M123.59,75.49c0,.14.27.18.18.41-1.58,1.41-3.8,1.82-6.06,1.91-.18,0-.36.18-.59.14s-.18-.23-.09-.32a6.9,6.9,0,0,1,6.56-2.14Z"/><path id="_Path_100" data-name="&lt;Path&gt;" class="cls-1" d="M116.31,76.22c.18.64-.23,1-.72,1.23a1.29,1.29,0,0,1-1-.73c-.14-.36.18-.55.32-.77a.86.86,0,0,1,1.4.27Z"/><path id="_Path_101" data-name="&lt;Path&gt;" class="cls-1" d="M30.32,76.31a.94.94,0,0,1-.23,1,.92.92,0,0,1-.82.23c-.32,0-.5-.41-.59-.68a1,1,0,0,1,.59-.87c.36,0,.77,0,1,.36Z"/><path id="_Path_102" data-name="&lt;Path&gt;" class="cls-1" d="M22.22,79.27v.32a3.53,3.53,0,0,1-2.94-.68,6.08,6.08,0,0,0-2.4-2.28c0-.14-.27-.32,0-.41,2.26,0,3.62,1.82,5.34,3.05Z"/><path id="_Path_103" data-name="&lt;Path&gt;" class="cls-1" d="M130.47,76.27c-1,1.55-1.94,3.46-3.8,4.15-.32,0-.59.46-.86.14a8.34,8.34,0,0,1,4-4.33,1.48,1.48,0,0,1,.63,0Z"/><path id="_Path_104" data-name="&lt;Path&gt;" class="cls-1" d="M32.95,76.81c0,.5-.32.59-.63.87-.36,0-.54-.23-.77-.5-.18-.46.23-.64.45-.87a.94.94,0,0,1,1,.5Z"/><path id="_Path_105" data-name="&lt;Path&gt;" class="cls-1" d="M136.16,77.09c-.41.59-.23,1.46-.63,2.1-.91,1-1.68,2.23-3.12,2.46-.23-.45.32-.91.54-1.32.63-1.37,1.54-2.91,3-3.51l.23.27Z"/><path id="_Path_106" data-name="&lt;Path&gt;" class="cls-1" d="M8.2,77.5a.9.9,0,0,1,0,1,1.06,1.06,0,0,1-1,.18.85.85,0,0,1-.36-1.09c.27-.41,1.08-.64,1.4-.09Z"/><path id="_Path_107" data-name="&lt;Path&gt;" class="cls-1" d="M5.63,78c0,.23.18.41.13.64a1.06,1.06,0,0,1-.63.55.94.94,0,0,1-1-.59.89.89,0,0,1,.45-1A.92.92,0,0,1,5.63,78Z"/><path id="_Path_108" data-name="&lt;Path&gt;" class="cls-1" d="M11,78.32c.09.36.18,1-.36,1.09-.63.27-1-.18-1.36-.55A1,1,0,0,1,9.79,78a1.25,1.25,0,0,1,1.17.37Z"/><path id="_Path_109" data-name="&lt;Path&gt;" class="cls-1" d="M18.38,78.91c0,.32,0,.78-.32.87s-.63.14-.86.09c-.09-.27-.59-.5-.32-.82a1.7,1.7,0,0,1,.63-.5c.27.14.68,0,.86.36Z"/><path id="_Path_110" data-name="&lt;Path&gt;" class="cls-1" d="M140.51,79.23c-.14.32-.32.73-.68.73s-.81-.09-1-.5.23-.77.59-.91,1,.18,1.13.68Z"/><path id="_Path_111" data-name="&lt;Path&gt;" class="cls-1" d="M132.23,79.45c0,.37-.36.64-.54.78a1.09,1.09,0,0,1-1.4-.68,1.17,1.17,0,0,1,.77-.82,1.19,1.19,0,0,1,1.18.73Z"/><path id="_Path_112" data-name="&lt;Path&gt;" class="cls-1" d="M137.84,79.36a.94.94,0,0,1-.41.77,1,1,0,0,1-1.09-.18c-.41-.36-.09-.68.18-1s1.17-.18,1.31.36Z"/><path id="_Path_113" data-name="&lt;Path&gt;" class="cls-1" d="M7,80.14a1,1,0,0,1-.54,1.14,1,1,0,0,1-1-.64.85.85,0,0,1,.45-1A1,1,0,0,1,7,80.14Z"/><path id="_Path_114" data-name="&lt;Path&gt;" class="cls-1" d="M130,80.64a1,1,0,0,1-.63,1.18c-.36.09-.59-.09-.86-.32s-.41-.73,0-1a.89.89,0,0,1,1.54.09Z"/><path id="_Path_115" data-name="&lt;Path&gt;" class="cls-1" d="M31.36,81.14c.18.5-.36.59-.5.87-.18.09-.54.14-.68,0s-.5-.55-.36-1c.23-.18.32-.36.59-.46.5-.14.68.32.95.59Z"/><path id="_Path_116" data-name="&lt;Path&gt;" class="cls-1" d="M139.69,81.46c.09.32-.18.46-.23.68a1.21,1.21,0,0,1-1,.18c-.41-.23-.41-.59-.41-1,.27-.18.32-.41.63-.5a1,1,0,0,1,1,.64Z"/><path id="_Path_117" data-name="&lt;Path&gt;" class="cls-1" d="M136.89,81.6c.18.55-.32.82-.68,1-.18,0-.45-.09-.5.18a12,12,0,0,1,2.8,2.41v.36A6.11,6.11,0,0,1,134,83.78c-.32-.23-.86-.23-1.22-.55.59-.59,1.67-.36,2.49-.41.59-.64-.68-1.09.09-1.64.27,0,.45-.32.81-.23a1.54,1.54,0,0,1,.68.64Z"/><path id="_Path_118" data-name="&lt;Path&gt;" class="cls-1" d="M118.39,81.64c.09.23-.18.5-.22.73a.91.91,0,0,1-1,.18c-.23-.32-.59-.59-.45-1a.94.94,0,0,1,1.67.14Z"/><path id="_Path_119" data-name="&lt;Path&gt;" class="cls-1" d="M17.25,83.24c-.14.41-.32.68-.77.73a.89.89,0,0,1-.81-.55c0-.32.18-.5.23-.73.5-.41,1.4-.14,1.36.55Z"/><path id="_Path_120" data-name="&lt;Path&gt;" class="cls-1" d="M20.91,82.64c0,.64-.68,1-.91,1.64a4.62,4.62,0,0,1-3.62,3c-.18-.41.59-.91.77-1.32.72-1.55,2.17-2.37,3.48-3.33Z"/><path id="_Path_121" data-name="&lt;Path&gt;" class="cls-1" d="M117.3,83.28c0,.5-.41.87-.77,1s-.72-.18-.95-.37c-.36-.36-.13-.73,0-1.09.54-.55,1.31-.09,1.67.41Z"/><path id="_Path_122" data-name="&lt;Path&gt;" class="cls-1" d="M120.11,83.6a1.12,1.12,0,0,1-.81,1c-.09-.14-.32,0-.45-.09a1,1,0,0,1-.59-.82c.23-.23.32-.59.63-.64s1.09,0,1.22.55Z"/><path id="_Path_123" data-name="&lt;Path&gt;" class="cls-1" d="M27.92,83.55a1,1,0,0,1-.68,1,.89.89,0,0,1-.86-.55c-.09-.41.32-.68.54-.91.54-.18.68.23,1,.5Z"/><path id="_Path_124" data-name="&lt;Path&gt;" class="cls-1" d="M31,83.74a1.08,1.08,0,0,1-.86.77c-.32-.09-.68-.18-.81-.55s.32-.68.63-.91a1,1,0,0,1,1,.68Z"/><path id="_Path_125" data-name="&lt;Path&gt;" class="cls-1" d="M129.83,86.93c.23.18.63.41.54.73-.72.32-1.31-.5-2-.64A9.34,9.34,0,0,1,126,83.37c.41-.41.86.09,1.22.23a8.92,8.92,0,0,1,2.58,3.33Z"/><path id="_Path_126" data-name="&lt;Path&gt;" class="cls-1" d="M131.51,83.74a1.13,1.13,0,0,1-.09,1c-.27.45-.86.36-1.27.27-.23-.27-.63-.64-.36-1s.54-.45.86-.59.54.23.86.36Z"/><path id="_Path_127" data-name="&lt;Path&gt;" class="cls-1" d="M35.21,84.92c0,.36.14.91-.32,1.14a.88.88,0,0,1-1.09-.55c-.23-.55.27-.64.54-.91.36-.09.59.09.86.32Z"/><path id="_Path_128" data-name="&lt;Path&gt;" class="cls-1" d="M120,87.88a6.66,6.66,0,0,1,1.17,3.24c-.14.32.23.64,0,.87h-.18c-2-1.46-2.49-3.51-3.26-5.56a.37.37,0,0,1-.18-.45c.45-.41.77.41,1.22.55L120,87.88Z"/><path id="_Path_129" data-name="&lt;Path&gt;" class="cls-1" d="M41.09,86.33s0,.09,0,.09c-1.81,1.28-4.34,2-6.42.82a.35.35,0,0,1,.23-.41c1.31-.41,2.58-1,4-.87l2.17.36Z"/><path id="_Path_130" data-name="&lt;Path&gt;" class="cls-1" d="M30.77,86.56c-1.54,1-2.94,2.82-4.84,3.28-.36.14-.59.64-1,.36.81-2.46,3.48-3.78,5.88-4v.37Z"/><path id="_Path_131" data-name="&lt;Path&gt;" class="cls-1" d="M117.3,88.61c.13.37,0,.87-.36,1a.62.62,0,0,1-.86,0c-.41-.18-.41-.59-.41-.91s.45-.36.68-.5c.41.09.72.09.95.45Z"/><path id="_Path_132" data-name="&lt;Path&gt;" class="cls-1" d="M113.55,88.84A2.54,2.54,0,0,1,111.92,90c-1.54.55-2.94-.18-4.3-.55,0-.36.5-.23.72-.46a9.84,9.84,0,0,1,4.61-.23.48.48,0,0,1,.59,0Z"/><path id="_Path_133" data-name="&lt;Path&gt;" class="cls-1" d="M30.77,90.16c-.13.18-.18.59-.54.73a.94.94,0,0,1-.9-.18c-.09-.27-.41-.5-.18-.82s.45-.41.72-.5a1,1,0,0,1,.9.77Z"/><path id="_Path_134" data-name="&lt;Path&gt;" class="cls-1" d="M33.44,90.57a1.67,1.67,0,0,1-.63.87,1,1,0,0,1-.91-.32,1.08,1.08,0,0,1-.13-.91c.09-.23.41-.27.63-.41.45,0,.86.41,1,.78Z"/><path id="_Path_135" data-name="&lt;Path&gt;" class="cls-1" d="M116.44,91a1.21,1.21,0,0,1-.32.87.77.77,0,0,1-1,.18c-.32,0-.41-.41-.54-.64s.18-.59.32-.91a1,1,0,0,1,1.54.5Z"/><path id="_Path_136" data-name="&lt;Path&gt;" class="cls-1" d="M118.43,90.93c0,.23.18.46.09.64-.27.23-.45.82-1,.59-.27.09-.41-.27-.54-.36a.87.87,0,0,1,.54-1.23c.41-.14.68.23.91.36Z"/><path id="_Path_137" data-name="&lt;Path&gt;" class="cls-1" d="M31.82,92.26a1.24,1.24,0,0,1-.45,1.23c-.5.09-1.13.09-1.31-.5a1.22,1.22,0,0,1,.54-1.32,1.09,1.09,0,0,1,1.22.59Z"/><path id="_Path_138" data-name="&lt;Path&gt;" class="cls-1" d="M34.39,92.07c-.09,1.27-.36,2.82-1.63,3.55-.72.14-1.45.82-2.17.36v-.23c.95-1.37,2.67-2.42,3.8-3.69Z"/><path id="_Path_139" data-name="&lt;Path&gt;" class="cls-1" d="M109.34,93.12c.18.27-.14.5-.27.73s-.77.18-1.09,0-.36-.59-.23-.91a.92.92,0,0,1,.59-.5c.41,0,.77.32,1,.64Z"/><path id="_Path_140" data-name="&lt;Path&gt;" class="cls-1" d="M38.92,95.22c.63,1,.27,2.46.63,3.6-.77.09-1.09-.77-1.58-1.23-1-1.37-.86-3.19-1.31-4.78a.24.24,0,0,1,.32-.09,11.53,11.53,0,0,1,1.72,1.91c-.09.32.27.32.23.59Z"/><path id="_Path_141" data-name="&lt;Path&gt;" class="cls-1" d="M111.6,93.49c0,.37-.41.46-.63.68a1.66,1.66,0,0,1-.86-.41c-.14-.46.23-.59.45-.82a.75.75,0,0,1,1,.55Z"/><path id="_Path_142" data-name="&lt;Path&gt;" class="cls-1" d="M117,97.54c0,.14,0,.41-.27.32h-.18c-1.31-1.18-2.62-2.51-2.44-4.33l.27,0c1.22,1,2.58,2.19,2.62,4.06Z"/><path id="_Path_143" data-name="&lt;Path&gt;" class="cls-1" d="M113.59,96.08a1.06,1.06,0,0,1-.41.87c-.5.14-1.27.09-1.36-.59,0-.46.45-.68.68-.91a.93.93,0,0,1,1.09.64Z"/><path id="_Path_144" data-name="&lt;Path&gt;" class="cls-1" d="M110.61,97c-.63,1.69-2.35,2.55-3.53,3.83-.23-.14-.14-.5-.09-.68a6.3,6.3,0,0,1,3.48-4.1c.72.09,0,.59.14,1Z"/><path id="_Path_145" data-name="&lt;Path&gt;" class="cls-1" d="M114,98.41c0,.41-.41.59-.63.82a1.33,1.33,0,0,1-1-.5c0-.45.32-.59.59-.82a.94.94,0,0,1,1,.5Z"/><path id="_Compound_Path_3" data-name="&lt;Compound Path&gt;" class="cls-1" d="M80.34,15.7a1.13,1.13,0,0,1,0,2.25H66.93a1.13,1.13,0,0,1,0-2.25Zm-9.48,1.95c1.31,0,.07-1.59-.63-1.59H68.92c-1.31,0-.07,1.59.63,1.59Zm5.5,0c1.31,0,.07-1.59-.63-1.59H74.41c-1.31,0-.07,1.59.63,1.59Zm4.05-1.59h-.5c-1.31,0-.2,1.59.51,1.59.88,0,.93-1.59,0-1.59Z"/><path id="_Compound_Path_4" data-name="&lt;Compound Path&gt;" class="cls-1" d="M79.17,31.09l2.56,1,2.52-1-1,3.77,2-.41-.68,2.29.68,2.19-1.77-.48.77,4.07-2.52-1-2.56,1,1-4.07-2,.57.55-2.29-.55-2.19,2,.32-1-3.77ZM83,37.89c.58,0,.63-.79.63-1.48,0-1.55-1.23,0-1.86-1.46C81.26,36.18,80,35,80,36.37c0,.91,0,1.52.9,1.52Zm-2.51-1.4c0,.59.79.2,1.38.2s1.38.4,1.38-.2c0-.84-.79-.55-1.38-.55s-1.38-.29-1.38.55Z"/><polygon id="_Path_146" data-name="&lt;Path&gt;" class="cls-1" points="73.17 36.64 73.17 36.16 72.74 36.08 73.08 35.73 72.87 35.34 73.31 35.39 73.57 34.92 73.83 35.38 74.28 35.34 74.07 35.73 74.41 36.08 73.98 36.16 73.98 36.64 73.57 36.33 73.17 36.64 73.17 36.64"/><polygon id="_Path_147" data-name="&lt;Path&gt;" class="cls-1" points="71.18 39.2 71.18 38.72 70.75 38.64 71.09 38.29 70.88 37.9 71.32 37.95 71.59 37.48 71.85 37.94 72.29 37.9 72.08 38.29 72.42 38.64 71.99 38.72 71.99 39.2 71.59 38.89 71.18 39.2 71.18 39.2"/><polygon id="_Path_148" data-name="&lt;Path&gt;" class="cls-1" points="74.56 38.87 74.56 38.39 74.13 38.31 74.46 37.96 74.25 37.58 74.69 37.62 74.96 37.16 75.22 37.62 75.67 37.58 75.46 37.96 75.8 38.31 75.37 38.39 75.37 38.87 74.96 38.57 74.56 38.87 74.56 38.87"/><polygon id="_Path_149" data-name="&lt;Path&gt;" class="cls-1" points="74.95 40.78 74.95 40.51 74.71 40.47 74.9 40.27 74.78 40.05 75.03 40.08 75.18 39.81 75.33 40.08 75.58 40.05 75.46 40.27 75.65 40.47 75.41 40.51 75.41 40.78 75.18 40.61 74.95 40.78 74.95 40.78"/><polygon id="_Path_150" data-name="&lt;Path&gt;" class="cls-1" points="71.82 42.97 71.82 42.15 71.08 42.01 71.66 41.41 71.3 40.76 72.06 40.83 72.51 40.03 72.96 40.82 73.72 40.76 73.37 41.41 73.94 42.01 73.21 42.15 73.21 42.97 72.51 42.45 71.82 42.97 71.82 42.97"/><polygon id="_Path_151" data-name="&lt;Path&gt;" class="cls-1" points="73.42 0 75.01 3.92 79.04 2.73 77 6.43 80.43 8.86 76.29 9.56 76.54 13.78 73.42 10.95 70.29 13.78 70.54 9.56 66.4 8.86 69.83 6.43 67.79 2.73 71.82 3.92 73.42 0 73.42 0"/><path id="_Path_152" data-name="&lt;Path&gt;" class="cls-1" d="M58.82,87.86c-.48.18-.67.31-.55.81l.57,2.4a2.15,2.15,0,0,1-.16,1.57,2.92,2.92,0,0,1-1.64,1,3.32,3.32,0,0,1-1.93,0,1.43,1.43,0,0,1-.94-1.21l-.6-2.51c-.15-.63-.39-.59-.9-.52l0-.19,3-.73,0,.19c-.59.16-.86.24-.71.9L55.6,92c.1.43.35,1.47,1.64,1.16a1.46,1.46,0,0,0,1.21-2l-.54-2.3c-.11-.46-.28-.69-1.06-.53l0-.19,2-.47,0,.19Z"/><path id="_Path_153" data-name="&lt;Path&gt;" class="cls-1" d="M63.32,88.36a1.93,1.93,0,0,0-2.07-1c-.47.1-.91.44-.81.93s.3.53,1.13.68l1.44.26a1.61,1.61,0,0,1,1.3,1.17c.15.66-.23,1.71-1.89,2.08a8,8,0,0,1-1.6.09c-.19,0-.2.19-.21.32l-.26.06-.41-1.87L60.2,91a1.92,1.92,0,0,0,2.2,1.21c1.08-.24,1-1,.94-1.1-.11-.51-.57-.59-1.21-.7l-.66-.11c-1.68-.28-1.82-.93-1.9-1.27s0-1.55,1.66-1.93A8.1,8.1,0,0,1,62.7,87c.21,0,.23-.17.24-.32l.27-.06.36,1.64-.25.06Z"/><path id="_Path_154" data-name="&lt;Path&gt;" class="cls-1" d="M69.28,91.34,66,91.66l0-.19c.67-.11.89-.15.82-.79l-.39-4.06c-.64.09-1.58.22-1.65,1.47l-.27,0-.12-1.55L69.9,86l.16,1.55-.27,0c-.3-1.22-1.25-1.16-1.89-1.13l.38,4.06c.06.65.28.65,1,.62l0,.19Z"/><path id="_Compound_Path_5" data-name="&lt;Compound Path&gt;" class="cls-1" d="M77,91.34l-1.89,0L73.2,88.84H73l0,1.52c0,.62.19.65.8.73v.19l-3.12-.06V91c.63,0,.81-.07.83-.7l.07-3.42c0-.67-.27-.69-.8-.73V86l3,.06c.65,0,2.6.11,2.57,1.41,0,1-1,1.17-1.47,1.3L76.59,91a.46.46,0,0,0,.37.15v.19Zm-4-2.75c1.21,0,1.69-.15,1.71-1.15a1,1,0,0,0-1.09-1.14c-.51,0-.53.08-.58.31l0,2Z"/><path id="_Compound_Path_6" data-name="&lt;Compound Path&gt;" class="cls-1" d="M83,92.12l-3-.37,0-.19c.57,0,.74,0,.77-.21a3.93,3.93,0,0,0-.29-1.07L78.48,90A4.59,4.59,0,0,0,78,91c0,.29.4.37.71.42l0,.19-1.86-.23,0-.19c.5,0,.66-.24,1-.79l2.55-4,.26,0,1.54,4.3c.31.87.42,1.15.87,1.19l0,.19ZM80.44,90l-.69-2-1.09,1.76,1.79.22Z"/><path id="_Path_155" data-name="&lt;Path&gt;" class="cls-1" d="M88.38,93.21l-5.25-1,0-.19c.52,0,.79.07.88-.4L84.72,88c.09-.5-.28-.59-.68-.68l0-.19,3.17.58,0,.19c-.64-.09-.92-.14-1,.53L85.51,92c-.07.37.12.46.73.58a2.27,2.27,0,0,0,2.57-1.07l.26,0-.69,1.66Z"/><path id="_Path_156" data-name="&lt;Path&gt;" class="cls-1" d="M91.86,94l-3.16-.66,0-.19c.49.07.85.11,1-.36l.76-3.67c.1-.5-.32-.6-.73-.72l0-.19,3.16.66,0,.19c-.43-.07-.86-.16-1,.36l-.76,3.67c-.1.49.26.58.75.72l0,.19Z"/><path id="_Compound_Path_7" data-name="&lt;Compound Path&gt;" class="cls-1" d="M98.28,94.82l-3-.31,0-.19c.57,0,.74,0,.77-.22A4,4,0,0,0,95.77,93l-2.07-.21a4.43,4.43,0,0,0-.51,1c0,.29.41.36.72.41l0,.19L92,94.17l0-.19c.5,0,.66-.26,1-.81l2.47-4,.26,0,1.63,4.26c.33.87.45,1.14.89,1.17l0,.19Zm-2.61-2.11-.74-2-1.05,1.78,1.79.19Z"/><path id="_Compound_Path_8" data-name="&lt;Compound Path&gt;" class="cls-1" d="M74.69,32.34c0-1.86-1-.12-1.62-1.7-.42,1.34-1.68.21-1.68,1.65a1.14,1.14,0,0,0,.41,1v.55a.26.26,0,0,0,.26.26h2a.26.26,0,0,0,.26-.26v-.59a1.21,1.21,0,0,0,.4-.95Zm-1.61.36c-.54,0-1.27.37-1.27-.27,0-.91.62-.71,1.16-.71s1.39-.2,1.39.71c0,.64-.73.27-1.27.27Z"/><path id="_Path_157" data-name="&lt;Path&gt;" class="cls-1" d="M90.87,55.16a.76.76,0,1,0-.85-.75.81.81,0,0,0,.85.75Z"/><path id="_Path_158" data-name="&lt;Path&gt;" class="cls-1" d="M86.86,27.61a4.69,4.69,0,0,0-.4.8.41.41,0,1,0,.81,0s-.41-.8-.41-.8Z"/><path id="_Path_159" data-name="&lt;Path&gt;" class="cls-1" d="M59.54,27.61a4.69,4.69,0,0,0-.4.8.41.41,0,1,0,.81,0s-.41-.8-.41-.8Z"/><path id="_Path_160" data-name="&lt;Path&gt;" class="cls-1" d="M66.37,27.61a4.7,4.7,0,0,0-.4.8.41.41,0,1,0,.81,0s-.41-.8-.41-.8Z"/><path id="_Path_161" data-name="&lt;Path&gt;" class="cls-1" d="M73.2,27.61a4.69,4.69,0,0,0-.4.8.41.41,0,1,0,.81,0s-.41-.8-.41-.8Z"/><path id="_Path_162" data-name="&lt;Path&gt;" class="cls-1" d="M80,27.61a4.7,4.7,0,0,0-.4.8.41.41,0,1,0,.81,0s-.41-.8-.41-.8Z"/><path id="_Path_163" data-name="&lt;Path&gt;" class="cls-1" d="M59.56,37a4.69,4.69,0,0,1,.4.8.41.41,0,1,1-.81,0s.41-.8.41-.8Z"/><path id="_Path_164" data-name="&lt;Path&gt;" class="cls-1" d="M59.56,46.1a4.72,4.72,0,0,1,.4.8.41.41,0,1,1-.81,0l.41-.8Z"/><path id="_Path_165" data-name="&lt;Path&gt;" class="cls-1" d="M60.65,53.32a4.69,4.69,0,0,1,.4.8.41.41,0,1,1-.81,0l.41-.8Z"/><path id="_Path_166" data-name="&lt;Path&gt;" class="cls-1" d="M66.38,57.15a4.7,4.7,0,0,1,.4.8.41.41,0,1,1-.81,0s.41-.8.41-.8Z"/><path id="_Path_167" data-name="&lt;Path&gt;" class="cls-1" d="M87.21,37a4.69,4.69,0,0,0-.4.8.41.41,0,1,0,.81,0s-.41-.8-.41-.8Z"/><path id="_Path_168" data-name="&lt;Path&gt;" class="cls-1" d="M87.21,46.1a4.73,4.73,0,0,0-.4.8.41.41,0,1,0,.81,0l-.41-.8Z"/><path id="_Path_169" data-name="&lt;Path&gt;" class="cls-1" d="M86.12,53.32a4.69,4.69,0,0,0-.4.8.41.41,0,1,0,.81,0l-.41-.8Z"/><path id="_Path_170" data-name="&lt;Path&gt;" class="cls-1" d="M80.39,57.15a4.71,4.71,0,0,0-.4.8.41.41,0,1,0,.81,0s-.41-.8-.41-.8Z"/><path id="_Path_171" data-name="&lt;Path&gt;" class="cls-1" d="M73.41,61.21a4.7,4.7,0,0,0-.4.8.41.41,0,1,0,.81,0l-.41-.8Z"/><path id="_Path_172" data-name="&lt;Path&gt;" class="cls-1" d="M84.53,47.62c.09.13.3.17.57.08l.26-.74c0-.05-.3-.34-.49-.3-.73.17-1.5.26-1.93,1a1.43,1.43,0,0,0,.69,1.12c.26-.09.3.17.47.3a.3.3,0,0,1-.3.39c-.52-.52-1.42.17-1.8-.48.17-.65.52-1.38,0-2,0-.13.26-.26.13-.39-.21-.61-.86-.13-1.25-.13a1.64,1.64,0,0,0-1.55.78,1.2,1.2,0,0,0,.34.65c.17,0,.26,0,.3.17l-.43.26a.92.92,0,0,1,.17.48c-.3.13-.6-.3-.73-.52s0-1-.43-1a1.83,1.83,0,0,0-.37.13,1.24,1.24,0,0,0-.18.72,3,3,0,0,0,.17.77,7.45,7.45,0,0,1,1.63,1.59c-.39.78-.39,1.86-1.29,2.29a.72.72,0,0,0-.26.69l.21.17c.56-.3,1.63-.39,1.55-1.34a3.42,3.42,0,0,1,.81-1.13.89.89,0,0,1,1,.48,1.69,1.69,0,0,1-1.16,1.3c-.09.09,0,.22,0,.35.17.3.64.17.9.13.73-.48,1-1.34,1.68-1.6.09.43-.86.56-.26,1,.39-.09.9,0,1.16-.48-.3-.73,1-1.08.21-1.73,0-.65.69-.91.64-1.6-.26-.69-1.07-.69-1.29-1.34a1,1,0,0,1,.9,0Z"/><path id="_Path_173" data-name="&lt;Path&gt;" class="cls-1" d="M53.14,55.5a.76.76,0,1,0-.85-.75.81.81,0,0,0,.85.75Z"/><path id="_Path_174" data-name="&lt;Path&gt;" class="cls-1" d="M8.84,81.38A.81.81,0,1,0,8,80.57a.82.82,0,0,0,.84.81Z"/><path id="_Compound_Path_9" data-name="&lt;Compound Path&gt;" class="cls-1" d="M37,87.66H37l-.05-.07h0v0l0,0h-.07v-.12s0,0,0,0h.07s.08,0,.08,0a0,0,0,0,1,0,0l0,.07h0Zm-.12-.08s0,0,0,0v0h0v.06Z"/><path id="_Path_175" data-name="&lt;Path&gt;" class="cls-1" d="M37.15,87.55s0,0-.05,0l0,0,0,0,0,0s0,0,0,0a.07.07,0,0,1-.07,0H37v-.06h0s0,0,.06,0l0,0,0,0h0s0,0,0,0,0-.06.06-.06h.06v0Z"/><path id="_Path_176" data-name="&lt;Path&gt;" class="cls-1" d="M37.44,87.51h0l-.05.14h0l0-.11h0l-.05.11h0l-.06-.14h0l0,.08h0l0-.07v0h0l0,.08h0l0-.08h0Z"/><path id="_Compound_Path_10" data-name="&lt;Compound Path&gt;" class="cls-1" d="M37.45,87.66a.08.08,0,0,0,.07-.06h0s0,0,0,0a.06.06,0,0,1,.06-.05s.06,0,.06.07,0,.08-.12.09Zm.06-.06h0v0a.25.25,0,0,0,0-.06l0,0a.2.2,0,0,0,0,.05Z"/><path id="_Path_177" data-name="&lt;Path&gt;" class="cls-1" d="M37.6,87.56h.06l0,0a.07.07,0,0,1-.08.08s0,0,0,0h0l0,0,0,0,0,0h0v-.08h.09v0h-.07v0Z"/><path id="_Compound_Path_11" data-name="&lt;Compound Path&gt;" class="cls-1" d="M89.13,26.53v0H57.61v0h0l0,24.09c0,2.46,1,4.61,2.48,5.27l12.12,7.7a1.47,1.47,0,0,0,2.09.11l12.31-7.81c1.44-.66,2.48-2.81,2.48-5.27l0-24.09Zm-.89,24.41a5.41,5.41,0,0,1-2,4.2L74.32,62.7h-.07a1.46,1.46,0,0,1-1.85,0L60.54,55.14a5.42,5.42,0,0,1-2-4.2V27.38H88.24V50.94Z"/><path id="_Path_178" data-name="&lt;Path&gt;" class="cls-1" d="M77.61,61.64l.38-.18a2,2,0,0,0-.38.18Z"/><path id="_Compound_Path_12" data-name="&lt;Compound Path&gt;" class="cls-1" d="M53.84,94.57l-3,.35,0-.19c.56-.1.73-.13.7-.38a3.91,3.91,0,0,0-.54-1l-2.06.24a4.45,4.45,0,0,0-.29,1c0,.29.48.26.79.24l0,.19-1.86.22,0-.19c.49-.12.59-.4.8-1l1.55-4.45.26,0,2.51,3.81c.51.77.68,1,1.12,1l0,.19Zm-3-1.49-1.14-1.76-.65,2,1.79-.21Z"/><path id="_Compound_Path_13" data-name="&lt;Compound Path&gt;" class="cls-1" d="M106,83.28A4.76,4.76,0,0,0,103,80.46a4,4,0,0,0-3.94,1c-1.63,1.32-.5,3.51-.45,5.28,0,.36,0,.64-.32.82C91.7,87,85.6,85.33,79.08,84.65c-1.5-.26-3-.19-4.42-.49L72.84,84a76.68,76.68,0,0,0-16.6,1.87c-1.13.36-2.4.46-3.53.87-.81-.14-1.49.46-2.26.23L49,87.27a1.24,1.24,0,0,1-.5,0c-.72-1.87,1.45-3,.77-4.83a3.31,3.31,0,0,0-3.12-1.87,3.78,3.78,0,0,0-3.62,1.87c-1,2.28.27,4.65.68,6.88-.09.73.72,1.55,0,2.14a6.19,6.19,0,0,0-5.11-1c-.54.27-1.54-.09-1.81.55,1.94,1,4.43.91,6.6.82.27-.09.45-.14.68,0,.18,1.18-.23,2.78.5,3.83a4.66,4.66,0,0,0,3.48,1.5c4.16-.14,7.87-1.37,11.67-2.32.59,0,1-.36,1.67-.36a33.05,33.05,0,0,1,6.42-.87,11.33,11.33,0,0,0-1.9,4.1c-.54,1.23,1,1.41,1.4,2.1-1.4.41-2.4,1.37-3.71,1.91-2.9-.09-5.34,1-8.05,1.32,0,.59,1,.41,1,1-.14.41-.54.46-.86.68,0,.27,0,.32.27.36.27-.32.86-.09,1.13-.41.9,0,1.67-.27,2.53-.32a8.44,8.44,0,0,0,2.31-.91c.95-.27,1.54-.91,2.49-1.18,1.36,0,2.58-.46,3.84-.55V102c-1,1.69-2.13,3.42-3.21,5a.51.51,0,0,0,.32.73,2.34,2.34,0,0,0,1.76-.27c1-1.64,1.81-3.19,2.58-4.87.32-1.55,1.45-2.37,2.58-3.42.18-.09.45-.36.63-.09a20.76,20.76,0,0,0-2.17,3.19c-.36,1.28-.45,2.92.68,4,.54.46,1.36.32,2.08.37,1.76-.91,4,.55,5.38-1.18.81-.14.95.82,1.4,1.28.77.23,1.58,1,2.35.46,0-.5-.59-1-.86-1.41-.54-1-1.22-1.73-1.72-2.6a9.06,9.06,0,0,1-.72-1.69,14.3,14.3,0,0,0,2.44,1,15.07,15.07,0,0,1,2.44.73A8.31,8.31,0,0,0,86,104.83c1.13.55,2.4.64,3.57,1.09.45,0,1.13.41,1.45,0a1.91,1.91,0,0,0-.68-.5c-.14-.59.81-.27,1.13-.73a.64.64,0,0,0-.52-.34c-.65-.35-2.26-.47-2.69-.7a10.58,10.58,0,0,1-1.58-.5c-2.71,0-4.21-2.46-6.38-3.37.5-.46,1.27-.82,1.58-1.5A2.54,2.54,0,0,0,82,95.86c-.41-1.41-2.22-1.23-3.26-2l.14-.14a18.91,18.91,0,0,1,4.88.64c4.34.59,8.37,2.23,12.89,2.32,2.49,0,5.61.14,6.83-2.28.23-1.41.5-2.82.72-4.24.54-2.28,2-4.37,1.81-6.88ZM57.19,104.06l-.63-.59c.32-.41,1-.18,1.49-.46a7.85,7.85,0,0,1,3.85-.55c-1.36,1.09-3.12,1.23-4.71,1.59Zm28.24-.73a19.75,19.75,0,0,0,4.82,1.14c-.14.62-1.24,0-1.12.91-1.4-.55-3-.82-4.07-1.91.09,0,.18-.18.36-.14ZM43,84a3.29,3.29,0,0,1,1.08-2.28,3.82,3.82,0,0,1,3.58.14,1.75,1.75,0,0,1,.72.87,2,2,0,0,1-.68,2.05h-.45a5,5,0,0,1,.27-2.05c0-.55-.5-.59-.86-.82a2.64,2.64,0,0,0-2,.46,2.06,2.06,0,0,0-.59,2c.32.5,0,1.18.22,1.73l-.14.18A2.81,2.81,0,0,1,43,84Zm2.13,1.3c.68.5,1.63.27,2.44.41a1.72,1.72,0,0,1-.23,1.55c-.77-.18-1.76-.09-2.17-.82.09-.32-.14-.77,0-1.14ZM45,83.74c.14-.36,0-.91.5-1,.32-.09.81-.09.86.27a9,9,0,0,1-.23,1.59A1,1,0,0,1,45,83.74ZM66.19,98.36a4.94,4.94,0,0,1,1.45-4.1,2.62,2.62,0,0,1,1.94.09c-1.18.32-2.67.59-2.94,2.1,0,.59-.14.91.14,1.41.5.87,1.63.5,2.26,1.19a.59.59,0,0,1-.41.55,17.48,17.48,0,0,1-2.44-1.23Zm-1.63,3.14c1.09-.46,2.22-1.41,3.44-1a6.22,6.22,0,0,1-3.44,1Zm4.3.46a34.93,34.93,0,0,1-2.22,4.28c-.09.23-.45.27-.72.32,0-.64.63-1.14.9-1.69.95-1.23,1.22-2.55,2.31-3.74.27.27-.27.45-.27.82ZM70,99.32v.18H69.9v-.23h.18a.27.27,0,0,0-.18,0Zm-.41-1.23a10.79,10.79,0,0,1-2.17-.55c-.45-.46,0-1,0-1.46.63-1,2.44-1.5,3.3-.59a4.84,4.84,0,0,1-1.13,2.6Zm1,0a7.63,7.63,0,0,1,.72-1.91,3.82,3.82,0,0,1-.72,1.91Zm.5-3.69c-.59-.14-.91-.82-1.54-.82a3.61,3.61,0,0,1,1.72,0c.23.32-.14.59-.18.87Zm.54,1.37h0v-.5h0v.5Zm0,2.09c0-.18.09-.41.14-.64.23-.23.45.18.54.32a.67.67,0,0,1-.68.32ZM72.34,95A5.07,5.07,0,0,1,73,93.35a2.65,2.65,0,0,1,1.22.18c.09.91,1.22,2.14,0,2.92-.41.18-1,.59-1.45.18a1.27,1.27,0,0,1-.45-1.6Zm3.3-1.28c-.09-.41.41-.09.59-.27l1.4.09c-.72-.09-1.63,1.59-2,.18Zm2.26.59c-.54.18-1,.82-1.49,1a1.84,1.84,0,0,1,1.49-1ZM76,97.18v.14h0v-.14ZM76.1,100c0,.09,0,.23-.09.32l-1-.82a1.1,1.1,0,0,1,1.13.5Zm-1.22-1.41a.34.34,0,0,1,.41,0Zm-.63-.68c.18-.27.41-.68.72-.68,0,0,0,.09.09.14a2.32,2.32,0,0,1-.81.55Zm-1-.09H73l.27-.27c.14.09,0,.18-.09.27Zm.13,1.73c.59-.64,1.13.36,1.36.87.68,1,2.44,1.91,1.76,3.28-.86.77-2.22,0-3.17.64-.5,0-1.36.09-1.63-.41a26.58,26.58,0,0,1,1.67-4.37Zm-1.27.87.23-.36a19.32,19.32,0,0,1-1.49,3.28c-.27-1.09.86-2,1.27-2.92Zm2,5.42c-.86,0-2.17.55-3-.18,0-.37-.36-.55-.32-.91.72-.27,1.36.59,2,0a18.41,18.41,0,0,1,3.17.09c.5.14,1.27-.82,1.36.14-.36,1.5-2.17.46-3.26.91Zm2.62-6.56v-.14h.09v.14ZM77,102.1c0,.46.5.64.23,1a1.39,1.39,0,0,1-.23-1Zm1.27,2.73-.23.09c-.23-.18-.14-.68-.09-1,.27.23.5.55.32.87Zm2.26,1.09c0,.14-.27.14-.36,0a24.22,24.22,0,0,1-2.85-5.47l.18,0c1.09,1.78,1.94,3.74,3,5.47Zm1.67-4.19a.18.18,0,0,0-.09.18c-1.31,0-2.17-.73-3.17-1.41l0-.23a8.57,8.57,0,0,1,3.3,1.46ZM81,95.67c.54.14.59.73.63,1.18a2.69,2.69,0,0,1-3.3,2.42A2.89,2.89,0,0,0,81,97.72l0-2.05Zm-1-.18a3.06,3.06,0,0,1,.41,2c-.45.86-1.36.86-2.17,1a1.42,1.42,0,0,1-1-.32.47.47,0,0,0-.18-.45c.13-.59-1-1.18-.23-1.69.72-.68,2.44-2.23,3.21-.59Zm23-3.32c-.36.46,0,1.18-.5,1.59,0,.82-.68,1.23-1.27,1.55-5.38,1.18-10.67-.64-15.88-1.55-7.28-1.59-15.79-2-23.21-.36-3.48.64-6.87,1.46-10.22,2.42-2.08.27-4.34.59-6.33,0-1.63-.78-1-2.87-1.45-4.33a23.83,23.83,0,0,0-.36-3.14,2.7,2.7,0,0,1-.18-1.19c.68.09,1.36.59,2.08.78,3.8.73,7.19-.5,10.72-1.14a78.13,78.13,0,0,1,10.45-1.59c4.07,0,8.23-.27,12.12.41,1.27,0,2.35.36,3.57.46,2.53.32,4.89,1,7.46,1.18a12.37,12.37,0,0,0,1.36.23c4.07.64,8.64,1.78,12.53,0,0,1.64-.68,3.14-.9,4.74Zm-1.27-5.56c0,.73-.63.55-1,.82H99.62a2.49,2.49,0,0,1-.13-1.28,9.08,9.08,0,0,1,2.22.46Zm-.5-1.14c.5-.5-.14-3.37,1.27-1.5,0,.37,0,.91-.32,1.18s-.59.55-.95.32Zm3.66-.46a2.6,2.6,0,0,1-1.94,1.55c0-1.09,1-1.87.68-3.1a2.72,2.72,0,0,0-2.85-.91c-.41.27-.23.73-.36,1.14l-.18,1.5c-.91,0-1-.82-1.22-1.46a2.64,2.64,0,0,1,1.4-2.37,3.11,3.11,0,0,1,2.62.09,2,2,0,0,1,1.49,1c.68.64.5,1.78.36,2.6Z"/></g></g></g></svg>