<svg id="Layer_1" xmlns="http://www.w3.org/2000/svg" viewBox="0 0 470 117.2"><style>.st0,.st1{fill:#313131}.st1{fill-rule:evenodd;clip-rule:evenodd}</style><path class="st0" d="M152.5 98.6v-.4h.5c.5 0 .8-.1 1.1-.2s.4-.3.5-.6c.1-.2.1-.7.1-1.5V85.4c0-.8 0-1.3-.1-1.5s-.3-.4-.5-.5-.6-.2-1.1-.2h-.5v-.4h7.1c1.9 0 3.4.3 4.6.8 1.4.6 2.5 1.6 3.2 2.9s1.1 2.7 1.1 4.3c0 1.1-.2 2.1-.5 3.1s-.8 1.7-1.4 2.3-1.2 1.1-2 1.5-1.7.7-2.7.9c-.5.1-1.2.1-2.2.1h-7.2zm6-15V96c0 .7 0 1.1.1 1.2s.2.3.3.3c.2.1.5.2.9.2 1.3 0 2.3-.4 3-1.3.9-1.2 1.4-3.1 1.4-5.6 0-2-.3-3.7-1-4.9-.5-1-1.2-1.6-2-1.9-.4-.3-1.4-.4-2.7-.4zM174.2 87.6v8.7c0 .8.1 1.3.3 1.5s.5.3 1.1.4v.4h-5.9v-.4c.5 0 .8-.2 1.1-.4.2-.2.2-.7.2-1.4V90c0-.8-.1-1.3-.3-1.5s-.5-.3-1-.4v-.4h4.5zm-1.6-5.3c.5 0 .9.2 1.3.5s.5.8.5 1.3-.2.9-.5 1.3-.8.5-1.3.5-.9-.2-1.3-.5-.5-.8-.5-1.3.2-.9.5-1.3.8-.5 1.3-.5zM183.3 87.8h3.7v1.3h-2.1c.4.4.6.7.8 1 .2.4.3.9.3 1.3 0 .8-.2 1.5-.7 2s-1 1-1.8 1.3-1.4.5-2 .5c0 0-.5 0-1.4-.1-.4 0-.6.1-.9.3s-.4.5-.4.8c0 .3.1.5.3.7s.6.3 1 .3h2c1.6 0 2.8.2 3.4.5.9.5 1.3 1.3 1.3 2.3 0 .7-.2 1.3-.6 1.8s-.9.9-1.6 1.2c-1 .4-2.2.6-3.5.6-1 0-1.9-.1-2.7-.3s-1.4-.5-1.7-.8-.5-.7-.5-1.1c0-.4.1-.7.4-1s.8-.5 1.5-.7c-1-.5-1.5-1.2-1.5-2.1 0-.5.2-1.1.6-1.6s1.1-.9 2-1.3c-1-.4-1.8-.9-2.3-1.5s-.7-1.3-.7-2.2c0-1.1.4-2 1.3-2.8s2-1.2 3.4-1.2c.8.3 1.6.5 2.4.8zm-2.8 12.4c-.8 0-1.3.1-1.6.2-.4.2-.7.6-.7 1s.2.8.7 1.1 1.3.5 2.6.5c1.1 0 1.9-.1 2.6-.4s.9-.7.9-1.2c0-.2-.1-.4-.2-.5-.2-.2-.5-.4-1-.5s-1.4-.2-3.3-.2zm.7-12.2c-.5 0-.8.2-1.1.7s-.5 1.4-.5 2.8c0 1.2.2 2 .5 2.4s.7.7 1.1.7c.5 0 .9-.2 1.2-.6s.5-1.3.5-2.5c0-1.4-.2-2.4-.5-2.9-.4-.4-.7-.6-1.2-.6zM192.2 87.6v8.7c0 .8.1 1.3.3 1.5s.5.3 1.1.4v.4h-5.9v-.4c.5 0 .8-.2 1.1-.4.2-.2.2-.7.2-1.4V90c0-.8-.1-1.3-.3-1.5s-.5-.3-1-.4v-.4h4.5zm-1.7-5.3c.5 0 .9.2 1.3.5s.5.8.5 1.3-.2.9-.5 1.3-.8.5-1.3.5-.9-.2-1.3-.5-.5-.8-.5-1.3.2-.9.5-1.3.8-.5 1.3-.5zM198.5 83.6v4h2.6v1.2h-2.6v6.8c0 .6 0 1 .1 1.2s.2.3.3.4.3.2.4.2c.5 0 1-.4 1.4-1.2l.4.3c-.6 1.5-1.7 2.2-3.1 2.2-.7 0-1.3-.2-1.8-.6s-.8-.8-.9-1.3c-.1-.3-.1-1-.1-2.2v-5.9h-1.4v-.4c1-.7 1.8-1.4 2.5-2.2s1.3-1.6 1.8-2.6h.4zM207.9 97c-1.3 1.2-2.5 1.8-3.6 1.8-.6 0-1.1-.2-1.6-.6s-.6-.9-.6-1.5c0-.8.4-1.6 1.1-2.3s2.3-1.6 4.7-2.7v-1.1c0-.8 0-1.3-.1-1.6s-.3-.4-.5-.6-.5-.2-.8-.2c-.5 0-.9.1-1.3.3-.2.1-.3.3-.3.5s.1.4.3.6c.3.3.4.7.4 1 0 .4-.1.7-.4 1s-.7.4-1.2.4-.9-.1-1.2-.4-.5-.6-.5-1c0-.6.2-1.1.7-1.6s1.1-.9 1.9-1.2 1.6-.4 2.5-.4c1 0 1.9.2 2.5.7s1 .9 1.2 1.4c.1.3.2 1.1.2 2.3v4.3c0 .5 0 .8.1.9s.1.2.2.3.2.1.3.1c.2 0 .4-.1.6-.4l.4.3c-.4.6-.8 1-1.2 1.3s-.9.4-1.4.4c-.6 0-1.1-.1-1.5-.4s-.9-1-.9-1.6zm0-.9v-3.7c-.9.6-1.6 1.1-2.1 1.8-.3.4-.5.8-.5 1.3 0 .4.1.7.4.9.2.2.5.3.8.3.4.1.8-.1 1.4-.6zM217.7 82.7v13.6c0 .8.1 1.3.3 1.5s.5.3 1.1.4v.4h-5.9v-.4c.5 0 .8-.2 1.1-.4.2-.2.2-.7.2-1.4V85c0-.8-.1-1.3-.3-1.5s-.5-.3-1-.4v-.4h4.5zM239.3 82.7V87h-.4c-.2-1-.5-1.7-.8-2.1s-.7-.8-1.3-1c-.3-.1-.8-.2-1.6-.2H234V96c0 .8 0 1.3.1 1.5s.3.4.5.5.6.2 1.1.2h.5v.4H228v-.4h.5c.5 0 .8-.1 1.1-.2.2-.1.4-.3.5-.6.1-.2.1-.7.1-1.5V83.6h-1.1c-1.1 0-1.8.2-2.3.7-.7.6-1.1 1.5-1.3 2.7h-.5v-4.3h14.3z"/><path class="st0" d="M243.4 87.6v2.5c.7-1.1 1.4-1.9 1.9-2.3s1.1-.6 1.6-.6c.4 0 .8.1 1 .4s.4.7.4 1.1c0 .5-.1.9-.4 1.2s-.6.4-.9.4c-.4 0-.8-.1-1.1-.4s-.5-.4-.5-.4c-.1 0-.2-.1-.3-.1-.2 0-.4.1-.6.3-.3.3-.6.6-.7 1.1-.2.8-.4 1.6-.4 2.5V96.7c0 .4 0 .7.1.9.1.2.2.4.4.5s.5.2.9.2v.4h-5.9v-.4c.5 0 .8-.2 1-.4s.3-.8.3-1.8V90c0-.6 0-1-.1-1.2-.1-.2-.2-.4-.3-.5s-.4-.2-.8-.2v-.4h4.4zM255.2 97c-1.3 1.2-2.5 1.8-3.6 1.8-.6 0-1.1-.2-1.6-.6s-.6-.9-.6-1.5c0-.8.4-1.6 1.1-2.3s2.3-1.6 4.7-2.7v-1.1c0-.8 0-1.3-.1-1.6s-.3-.4-.5-.6-.5-.2-.8-.2c-.5 0-.9.1-1.3.3-.2.1-.3.3-.3.5s.1.4.3.6c.3.3.4.7.4 1 0 .4-.1.7-.4 1s-.7.4-1.1.4c-.5 0-.9-.1-1.2-.4s-.5-.6-.5-1c0-.6.2-1.1.7-1.6s1.1-.9 1.9-1.2 1.6-.4 2.5-.4c1 0 1.9.2 2.5.7s1 .9 1.2 1.4c.1.3.2 1.1.2 2.3v4.3c0 .5 0 .8.1.9s.1.2.2.3.2.1.3.1c.2 0 .4-.1.6-.4l.4.3c-.4.6-.8 1-1.2 1.3s-.9.4-1.4.4c-.6 0-1.1-.1-1.5-.4-.7-.6-.9-1-1-1.6zm0-.9v-3.7c-.9.6-1.6 1.1-2.1 1.8-.3.4-.5.8-.5 1.3 0 .4.1.7.4.9.2.2.5.3.8.3.4.1.9-.1 1.4-.6zM265.2 87.6V89c.6-.6 1.1-1.1 1.6-1.3s1.1-.4 1.7-.4c.7 0 1.3.2 1.8.6s.8.9.9 1.5c.1.4.2 1.3.2 2.6v4.3c0 .8.1 1.4.2 1.6s.5.3 1 .4v.4h-5.5v-.4c.4-.1.7-.2.9-.5.1-.2.2-.7.2-1.5v-4.9c0-.9 0-1.5-.1-1.7s-.2-.4-.4-.5-.4-.2-.6-.2c-.7 0-1.3.5-1.9 1.4v5.9c0 .8.1 1.3.2 1.6s.4.4.8.4v.4h-5.5v-.4c.5 0 .8-.2 1-.4.1-.2.2-.7.2-1.5V90c0-.8-.1-1.3-.2-1.5s-.5-.3-1-.4v-.4h4.5zM280.7 87.3l.2 3.7h-.4c-.5-1.1-1-1.9-1.5-2.3s-1-.6-1.5-.6c-.3 0-.6.1-.8.3s-.3.5-.3.7c0 .2.1.4.2.6.2.3.9.9 2.1 1.6s1.9 1.4 2.3 2 .5 1.2.5 1.8c0 .6-.2 1.2-.5 1.8s-.7 1-1.3 1.3-1.2.5-1.8.5c-.5 0-1.2-.2-2.1-.5-.2-.1-.4-.1-.5-.1-.3 0-.5.2-.6.6h-.4l-.2-3.9h.4c.4 1 .8 1.8 1.4 2.3s1.2.8 1.7.8c.4 0 .7-.1.9-.3s.4-.5.4-.8c0-.4-.1-.7-.4-1s-.8-.7-1.6-1.2c-1.2-.8-2-1.5-2.3-1.9-.5-.6-.8-1.3-.8-2.1s.3-1.6.9-2.3 1.4-1 2.5-1c.6 0 1.2.1 1.7.4.2.1.4.2.5.2.1 0 .3 0 .3-.1.1-.1.2-.2.4-.5h.6zM287.5 88.8v7.6c0 .7.1 1.2.2 1.4.2.3.7.4 1.4.4v.4h-6.5v-.4c.5 0 .8-.1 1-.2s.3-.3.4-.4.1-.6.1-1.2v-7.6h-1.6v-1.1h1.6v-1.4c0-1.1.4-2.1 1.2-2.8s1.9-1.1 3.3-1.1c1 0 1.7.2 2.1.5s.7.8.7 1.2c0 .4-.1.7-.4.9s-.7.4-1.1.4c-.4 0-.7-.1-1-.3s-.4-.4-.4-.7c0-.1 0-.2.1-.4v-.4c0-.2 0-.3-.1-.4-.1-.1-.3-.2-.5-.2s-.4.1-.6.3-.2.5-.2.9v3.5h1.6v1.1h-1.3zM295.5 87.3c1 0 1.8.2 2.7.7s1.4 1.2 1.9 2.1.6 1.9.6 3c0 1.6-.4 2.9-1.2 3.9-1 1.3-2.3 1.9-3.9 1.9s-2.9-.6-3.8-1.7-1.3-2.5-1.3-4c0-1.6.5-2.9 1.4-4.1s2.1-1.8 3.6-1.8zm.1.8c-.4 0-.7.2-1 .5s-.5.9-.6 1.8-.1 2.1-.1 3.7c0 .8.1 1.6.2 2.3.1.6.3 1 .6 1.3s.6.4 1 .4.6-.1.9-.3c.3-.3.5-.6.6-1.1.2-.7.2-2.2.2-4.5 0-1.3-.1-2.2-.2-2.7s-.4-.9-.7-1.1c-.3-.2-.6-.3-.9-.3zM306.6 87.6v2.5c.7-1.1 1.4-1.9 1.9-2.3s1.1-.6 1.6-.6c.4 0 .8.1 1 .4.3.3.4.7.4 1.1 0 .5-.1.9-.4 1.2s-.6.4-.9.4c-.4 0-.8-.1-1.1-.4s-.5-.4-.5-.4c-.1 0-.2-.1-.3-.1-.2 0-.4.1-.6.3-.3.3-.6.6-.7 1.1-.2.8-.4 1.6-.4 2.5V96.7c0 .4 0 .7.1.9.1.2.2.4.4.5s.5.2.9.2v.4h-5.9v-.4c.5 0 .8-.2 1-.4s.3-.8.3-1.8V90c0-.6 0-1-.1-1.2-.1-.2-.2-.4-.3-.5s-.4-.2-.8-.2v-.4h4.4zM316.8 87.6V89c.6-.7 1.2-1.1 1.7-1.4s1.1-.4 1.7-.4c.7 0 1.3.2 1.8.5s.8.8 1.1 1.5c.6-.7 1.2-1.2 1.8-1.5s1.2-.5 1.8-.5c.8 0 1.4.2 1.8.5s.8.8.9 1.3.3 1.4.3 2.6v4.5c0 .8.1 1.4.2 1.6s.5.3 1 .4v.4h-5.7v-.4c.4 0 .8-.2 1-.5.1-.2.2-.7.2-1.5v-4.7c0-1 0-1.6-.1-1.9s-.2-.5-.4-.6-.4-.2-.6-.2c-.3 0-.7.1-1 .4s-.7.6-1 1.1v5.9c0 .8.1 1.3.2 1.5.2.3.5.4 1 .5v.4h-5.7v-.4c.3 0 .5-.1.7-.2s.3-.3.4-.5.1-.6.1-1.2v-4.7c0-1 0-1.6-.1-1.9s-.2-.4-.4-.6-.4-.2-.6-.2c-.3 0-.6.1-.9.2-.4.2-.8.7-1.2 1.2v5.9c0 .8.1 1.3.2 1.5s.5.4 1 .4v.4h-5.6V98c.5 0 .8-.2 1-.4.1-.2.2-.7.2-1.5V90c0-.8-.1-1.3-.2-1.5s-.5-.3-1-.4v-.4h4.4zM338 97c-1.3 1.2-2.5 1.8-3.6 1.8-.6 0-1.1-.2-1.6-.6s-.6-.9-.6-1.5c0-.8.4-1.6 1.1-2.3s2.3-1.6 4.7-2.7v-1.1c0-.8 0-1.3-.1-1.6s-.3-.4-.5-.6-.5-.2-.8-.2c-.5 0-.9.1-1.3.3-.2.1-.3.3-.3.5s.1.4.3.6c.3.3.4.7.4 1 0 .4-.1.7-.4 1s-.7.4-1.1.4c-.5 0-.9-.1-1.2-.4s-.5-.6-.5-1c0-.6.2-1.1.7-1.6s1.1-.9 1.9-1.2 1.6-.4 2.5-.4c1 0 1.9.2 2.5.7s1 .9 1.2 1.4c.1.3.2 1.1.2 2.3v4.3c0 .5 0 .8.1.9s.1.2.2.3.2.1.3.1c.2 0 .4-.1.6-.4l.4.3c-.4.6-.8 1-1.2 1.3s-.9.4-1.4.4c-.6 0-1.1-.1-1.5-.4s-.9-1-1-1.6zm0-.9v-3.7c-.9.6-1.6 1.1-2.1 1.8-.3.4-.5.8-.5 1.3 0 .4.1.7.4.9.2.2.5.3.8.3.4.1.9-.1 1.4-.6zM347.9 83.6v4h2.6v1.2h-2.6v6.8c0 .6 0 1 .1 1.2s.2.3.3.4.3.2.4.2c.5 0 1-.4 1.4-1.2l.4.3c-.6 1.5-1.7 2.2-3.1 2.2-.7 0-1.3-.2-1.8-.6s-.8-.8-.9-1.3c-.1-.3-.1-1-.1-2.2v-5.9h-1.4v-.4c1-.7 1.8-1.4 2.5-2.2s1.3-1.6 1.8-2.6h.4zM355.5 87.6v8.7c0 .8.1 1.3.3 1.5s.5.3 1.1.4v.4H351v-.4c.5 0 .8-.2 1.1-.4.2-.2.2-.7.2-1.4V90c0-.8-.1-1.3-.3-1.5s-.5-.3-1-.4v-.4h4.5zm-1.7-5.3c.5 0 .9.2 1.3.5s.5.8.5 1.3-.2.9-.5 1.3-.8.5-1.3.5-.9-.2-1.3-.5-.5-.8-.5-1.3.2-.9.5-1.3.8-.5 1.3-.5zM362.7 87.3c1 0 1.8.2 2.7.7s1.4 1.2 1.9 2.1.6 1.9.6 3c0 1.6-.4 2.9-1.2 3.9-1 1.3-2.3 1.9-3.9 1.9s-2.9-.6-3.8-1.7-1.3-2.5-1.3-4c0-1.6.5-2.9 1.4-4.1s2-1.8 3.6-1.8zm0 .8c-.4 0-.7.2-1 .5s-.5.9-.6 1.8-.1 2.1-.1 3.7c0 .8.1 1.6.2 2.3.1.6.3 1 .6 1.3s.6.4 1 .4.6-.1.9-.3c.3-.3.5-.6.6-1.1.2-.7.2-2.2.2-4.5 0-1.3-.1-2.2-.2-2.7s-.4-.9-.7-1.1c-.3-.2-.5-.3-.9-.3zM373.6 87.6V89c.6-.6 1.1-1.1 1.6-1.3s1.1-.4 1.7-.4c.7 0 1.3.2 1.8.6s.8.9.9 1.5c.1.4.2 1.3.2 2.6v4.3c0 .8.1 1.4.2 1.6s.5.3 1 .4v.4h-5.5v-.4c.4-.1.7-.2.9-.5.1-.2.2-.7.2-1.5v-4.9c0-.9 0-1.5-.1-1.7s-.2-.4-.4-.5-.4-.2-.6-.2c-.7 0-1.3.5-1.9 1.4v5.9c0 .8.1 1.3.2 1.6s.4.4.8.4v.4h-5.5v-.4c.5 0 .8-.2 1-.4.1-.2.2-.7.2-1.5V90c0-.8-.1-1.3-.2-1.5s-.5-.3-1-.4v-.4h4.5zM395.6 94.1H390l-.7 1.5c-.2.5-.3.9-.3 1.3s.2.8.5 1c.2.1.7.2 1.6.3v.4h-5.3v-.4c.6-.1 1-.3 1.4-.7s.8-1.2 1.4-2.4l5.7-12.7h.2l5.7 13c.5 1.2 1 2 1.3 2.3.3.2.6.4 1.1.4v.4H395v-.4h.3c.6 0 1.1-.1 1.3-.3.2-.1.3-.3.3-.5 0-.1 0-.3-.1-.4 0-.1-.1-.4-.4-.9l-.8-1.9zm-.4-.9l-2.4-5.5-2.4 5.5h4.8zM410.5 87.8h3.7v1.3h-2.1c.4.4.6.7.8 1 .2.4.3.9.3 1.3 0 .8-.2 1.5-.7 2s-1 1-1.8 1.3-1.4.5-2 .5c0 0-.5 0-1.4-.1-.4 0-.6.1-.9.3s-.4.5-.4.8c0 .3.1.5.3.7s.6.3 1 .3h2c1.6 0 2.8.2 3.4.5.9.5 1.3 1.3 1.3 2.3 0 .7-.2 1.3-.6 1.8s-.9.9-1.6 1.2c-1 .4-2.2.6-3.5.6-1 0-1.9-.1-2.7-.3s-1.4-.5-1.7-.8-.5-.7-.5-1.1c0-.4.1-.7.4-1s.8-.5 1.5-.7c-1-.5-1.5-1.2-1.5-2.1 0-.5.2-1.1.6-1.6s1.1-.9 2-1.3c-1-.4-1.8-.9-2.3-1.5s-.7-1.3-.7-2.2c0-1.1.4-2 1.3-2.8s2-1.2 3.4-1.2c.8.3 1.6.5 2.4.8zm-2.8 12.4c-.8 0-1.3.1-1.6.2-.4.2-.7.6-.7 1s.2.8.7 1.1 1.3.5 2.6.5c1.1 0 1.9-.1 2.6-.4s.9-.7.9-1.2c0-.2-.1-.4-.2-.5-.2-.2-.5-.4-1-.5s-1.4-.2-3.3-.2zm.7-12.2c-.5 0-.8.2-1.1.7s-.5 1.4-.5 2.8c0 1.2.2 2 .5 2.4s.7.7 1.1.7c.5 0 .9-.2 1.2-.6s.5-1.3.5-2.5c0-1.4-.2-2.4-.5-2.9-.4-.4-.7-.6-1.2-.6zM424.3 92.7h-6c.1 1.5.5 2.6 1.2 3.4.5.6 1.2 1 1.9 1 .5 0 .9-.1 1.3-.4s.8-.7 1.2-1.4l.4.3c-.6 1.2-1.2 2.1-2 2.6s-1.6.8-2.5.8c-1.6 0-2.9-.6-3.7-1.9-.7-1-1-2.3-1-3.8 0-1.8.5-3.3 1.5-4.4s2.1-1.6 3.5-1.6c1.1 0 2.1.5 2.9 1.4s1.3 2.2 1.3 4zm-2.8-.8c0-1.3-.1-2.1-.2-2.6s-.3-.8-.6-1.1c-.2-.1-.4-.2-.7-.2-.4 0-.7.2-1 .6-.5.7-.7 1.6-.7 2.9v.4h3.2zM429.8 87.6V89c.6-.6 1.1-1.1 1.6-1.3s1.1-.4 1.7-.4c.7 0 1.3.2 1.8.6s.8.9.9 1.5c.1.4.2 1.3.2 2.6v4.3c0 .8.1 1.4.2 1.6s.5.3 1 .4v.4h-5.5v-.4c.4-.1.7-.2.9-.5.1-.2.2-.7.2-1.5v-4.9c0-.9 0-1.5-.1-1.7s-.2-.4-.4-.5-.4-.2-.6-.2c-.7 0-1.3.5-1.9 1.4v5.9c0 .8.1 1.3.2 1.6s.4.4.8.4v.4h-5.5v-.4c.5 0 .8-.2 1-.4.1-.2.2-.7.2-1.5V90c0-.8-.1-1.3-.2-1.5s-.5-.3-1-.4v-.4h4.5zM447.3 95.8l.4.3c-.5 1-1.2 1.7-1.9 2.2s-1.6.7-2.5.7c-1.5 0-2.6-.6-3.5-1.7s-1.3-2.4-1.3-4c0-1.5.4-2.8 1.2-3.9 1-1.4 2.3-2.1 4-2.1 1.1 0 2 .3 2.7.9s1 1.2 1 1.9c0 .4-.1.8-.4 1.1s-.6.4-1.1.4c-.5 0-.8-.2-1.1-.5s-.5-.8-.6-1.6c0-.5-.2-.8-.3-1s-.4-.3-.6-.3c-.4 0-.7.2-1 .6-.4.6-.6 1.5-.6 2.8 0 1 .2 2 .5 3s.8 1.6 1.3 2.1c.4.3.9.5 1.5.5.4 0 .7-.1 1.1-.3s.7-.6 1.2-1.1zM453.7 99l-3.5-8.1c-.5-1.2-.9-2-1.2-2.3s-.6-.5-.9-.6v-.4h5.8v.4c-.4 0-.7.1-.8.2s-.2.3-.2.5c0 .3.2.9.6 1.8l1.9 4.3 1.3-3.3c.5-1.2.7-2 .7-2.5 0-.3-.1-.5-.3-.7s-.5-.3-1-.3v-.4h3.7v.4c-.4 0-.7.2-.9.4s-.6 1-1.1 2.4l-3.1 8.1c-.8 2-1.4 3.3-1.8 3.8-.5.7-1.2 1-2 1-.6 0-1.2-.2-1.6-.6s-.6-.8-.6-1.3.1-.8.4-1.1.6-.4 1-.4.7.1.9.4.4.6.4 1.2c0 .3 0 .5.1.6s.2.1.3.1c.2 0 .4-.1.6-.3.3-.3.7-1.1 1.1-2.2l.2-1.1z"/><g><path class="st1" d="M162.9 53.3h-6.2L156 55c-.2.6-.4 1-.4 1.4 0 .5.2.9.6 1.1.2.1.8.2 1.7.3v.5h-5.8v-.5c.6-.1 1.1-.4 1.5-.8.4-.4.9-1.3 1.5-2.6l6.3-13.9h.2l6.3 14.3c.6 1.4 1.1 2.2 1.5 2.6.3.3.7.4 1.2.5v.5h-8.5v-.5h.3c.7 0 1.2-.1 1.4-.3.2-.1.3-.3.3-.6 0-.2 0-.3-.1-.5 0-.1-.1-.4-.4-1l-.7-2.2zm-.4-.9l-2.6-6-2.7 6h5.3z"/><path class="st0" d="M181.4 46.3v9.4c0 .9.1 1.5.3 1.7.2.2.5.4 1 .4v.5h-4.9v-1.6c-.6.7-1.2 1.2-1.7 1.5-.6.3-1.2.5-1.9.5s-1.3-.2-1.8-.6c-.5-.4-.9-.9-1.1-1.5-.2-.6-.3-1.5-.3-2.9v-4.8c0-.9-.1-1.5-.3-1.7-.2-.2-.5-.4-1-.4v-.5h4.9v8.2c0 .9 0 1.4.1 1.7.1.2.2.4.4.6.2.1.4.2.6.2.3 0 .6-.1.8-.2.3-.2.8-.7 1.2-1.4V49c0-.9-.1-1.5-.3-1.7-.2-.2-.5-.4-1-.4v-.5h5v-.1zM191.2 45.9l.2 4.1h-.4c-.5-1.2-1.1-2.1-1.6-2.5-.6-.4-1.1-.7-1.7-.7-.4 0-.7.1-.9.4-.2.2-.4.5-.4.8 0 .2.1.5.3.7.3.4 1 1 2.3 1.8 1.3.9 2.1 1.6 2.5 2.2.4.6.6 1.3.6 2s-.2 1.3-.5 2c-.3.6-.8 1.1-1.4 1.5-.6.3-1.3.5-2 .5-.6 0-1.3-.2-2.3-.5-.3-.1-.4-.1-.5-.1-.3 0-.5.2-.7.6h-.4l-.2-4.3h.4c.4 1.1.9 2 1.6 2.6.7.6 1.3.9 1.9.9.4 0 .7-.1 1-.4.3-.3.4-.6.4-.9 0-.4-.1-.8-.4-1.1-.3-.3-.8-.8-1.7-1.4-1.3-.9-2.2-1.6-2.6-2.1-.6-.7-.9-1.5-.9-2.3 0-.9.3-1.8 1-2.5.6-.8 1.6-1.1 2.8-1.1.7 0 1.3.2 1.9.5.2.1.4.2.6.2.2 0 .3 0 .4-.1.1-.1.2-.3.5-.6h.2v-.2zM197.5 41.9v4.4h2.9v1.3h-2.9V55c0 .7 0 1.1.1 1.4.1.2.2.4.3.5.2.1.3.2.5.2.6 0 1.1-.4 1.6-1.3l.4.3c-.7 1.6-1.8 2.5-3.4 2.5-.8 0-1.4-.2-1.9-.6-.5-.4-.9-.9-1-1.4-.1-.3-.1-1.1-.1-2.4v-6.5h-1.6v-.5c1.1-.8 2-1.6 2.8-2.4.8-.8 1.4-1.8 2-2.8h.3v-.1zM206.3 46.3V49c.8-1.2 1.5-2.1 2.1-2.5.6-.4 1.2-.6 1.7-.6s.9.2 1.1.5c.3.3.4.7.4 1.2 0 .6-.1 1-.4 1.3-.3.3-.6.5-1 .5-.5 0-.9-.1-1.2-.4-.3-.3-.5-.5-.6-.5-.1-.1-.2-.1-.3-.1-.2 0-.5.1-.7.3-.4.3-.6.7-.8 1.3-.3.8-.4 1.8-.4 2.8v3.5c0 .5 0 .8.1.9.1.2.3.4.5.5.2.1.5.2 1 .2v.5h-6.5v-.5c.5 0 .9-.2 1.1-.4.2-.2.3-.9.3-1.9v-6.7c0-.7 0-1.1-.1-1.3-.1-.2-.2-.4-.4-.5-.2-.1-.5-.2-.9-.2v-.5h5v-.1z"/><path class="st1" d="M218.3 56.5c-1.5 1.3-2.8 1.9-4 1.9-.7 0-1.3-.2-1.7-.7-.5-.5-.7-1-.7-1.7 0-.9.4-1.7 1.2-2.5.8-.7 2.5-1.7 5.2-2.9v-1.2c0-.9-.1-1.5-.2-1.7-.1-.2-.3-.4-.6-.6-.3-.2-.6-.3-.9-.3-.6 0-1 .1-1.4.4-.2.2-.3.3-.3.5s.1.4.4.7c.3.4.5.7.5 1.1 0 .4-.2.8-.5 1.1-.3.3-.7.4-1.2.4s-1-.2-1.4-.5c-.4-.3-.5-.7-.5-1.1 0-.6.2-1.2.7-1.8.5-.6 1.2-1 2-1.3.9-.3 1.8-.5 2.7-.5 1.1 0 2 .2 2.7.7.7.5 1.1 1 1.3 1.6.1.4.2 1.2.2 2.5v4.7c0 .6 0 .9.1 1 0 .1.1.2.2.3.1.1.2.1.3.1.2 0 .5-.2.7-.5l.4.3c-.4.6-.9 1.1-1.3 1.4-.5.3-1 .4-1.6.4-.7 0-1.2-.2-1.6-.5-.3-.1-.6-.6-.7-1.3zm0-.9v-4c-1 .6-1.8 1.3-2.3 2-.3.5-.5.9-.5 1.4 0 .4.1.7.4 1 .2.2.5.3.9.3.5 0 1-.2 1.5-.7z"/><path class="st0" d="M228.8 40.8v15c0 .9.1 1.4.3 1.6.2.2.6.4 1.2.4v.5h-6.5v-.5c.5 0 .9-.2 1.2-.5.2-.2.3-.7.3-1.6V43.3c0-.8-.1-1.4-.3-1.6-.2-.2-.6-.4-1.1-.4v-.5h4.9z"/><path class="st1" d="M234.3 40.4c.6 0 1 .2 1.4.6.4.4.6.9.6 1.4 0 .6-.2 1-.6 1.4-.4.4-.9.6-1.4.6-.6 0-1-.2-1.4-.6-.4-.4-.6-.9-.6-1.4 0-.5.2-1 .6-1.4.4-.4.9-.6 1.4-.6zm1.8 5.9v9.6c0 .9.1 1.4.3 1.6.2.2.6.4 1.2.4v.5h-6.5v-.5c.5 0 .9-.2 1.2-.5.2-.2.3-.7.3-1.6v-7c0-.9-.1-1.4-.3-1.6-.2-.2-.6-.4-1.1-.4v-.5h4.9zM244.6 56.5c-1.5 1.3-2.8 1.9-4 1.9-.7 0-1.3-.2-1.7-.7-.5-.5-.7-1-.7-1.7 0-.9.4-1.7 1.2-2.5.8-.7 2.5-1.7 5.2-2.9v-1.2c0-.9-.1-1.5-.2-1.7-.1-.2-.3-.4-.6-.6-.3-.2-.6-.3-.9-.3-.6 0-1 .1-1.4.4-.2.2-.3.3-.3.5s.1.4.4.7c.3.4.5.7.5 1.1 0 .4-.2.8-.5 1.1-.3.3-.7.4-1.2.4s-1-.2-1.4-.5c-.4-.3-.5-.7-.5-1.1 0-.6.2-1.2.7-1.8.5-.6 1.2-1 2.1-1.3.9-.3 1.8-.5 2.7-.5 1.1 0 2 .2 2.7.7.7.5 1.1 1 1.3 1.6.1.4.2 1.2.2 2.5v4.7c0 .6 0 .9.1 1 0 .1.1.2.2.3.1.1.2.1.3.1.2 0 .4-.2.7-.5l.4.3c-.4.6-.9 1.1-1.3 1.4-.5.3-1 .4-1.6.4-.7 0-1.2-.2-1.6-.5-.5-.1-.7-.6-.8-1.3zm0-.9v-4c-1 .6-1.8 1.3-2.3 2-.3.5-.5.9-.5 1.4 0 .4.1.7.4 1 .2.2.5.3.9.3.5 0 1-.2 1.5-.7z"/><path class="st0" d="M255 46.3v1.6c.6-.7 1.2-1.2 1.8-1.5.6-.3 1.2-.5 1.8-.5.8 0 1.4.2 1.9.7.5.4.9 1 1 1.6.1.5.2 1.4.2 2.8v4.7c0 .9.1 1.5.2 1.7.2.2.5.4 1.1.4v.5h-6v-.5c.5-.1.8-.2 1-.6.1-.2.2-.7.2-1.6v-5.4c0-1 0-1.6-.1-1.9-.1-.3-.2-.5-.4-.6-.2-.1-.4-.2-.6-.2-.7 0-1.4.5-2.1 1.6v6.5c0 .9.1 1.5.2 1.7.2.2.5.4.9.5v.5H250v-.5c.5-.1.9-.2 1.1-.5.1-.2.2-.7.2-1.7v-6.8c0-.9-.1-1.5-.3-1.7-.2-.2-.5-.4-1-.4v-.5h5v.1zM286.9 40.4v6.2h-.5c-.6-1.7-1.4-3-2.6-3.8-1.2-.9-2.4-1.3-3.8-1.3-1.3 0-2.4.4-3.3 1.1-.9.7-1.5 1.8-1.8 3.1-.4 1.3-.5 2.7-.5 4 0 1.7.2 3.1.6 4.4.4 1.3 1 2.2 1.9 2.8.9.6 1.9.9 3.1.9.4 0 .8 0 1.3-.1.4-.1.9-.2 1.4-.4v-3.6c0-.7 0-1.1-.1-1.3-.1-.2-.3-.4-.6-.6-.3-.2-.6-.2-1.1-.2h-.5V51h8.5v.5c-.6 0-1.1.1-1.4.3-.2.1-.4.3-.6.7-.1.2-.1.6-.1 1.2v3.6c-1.1.5-2.3.9-3.5 1.1-1.2.3-2.5.4-3.8.4-1.7 0-3-.2-4.1-.7-1.1-.5-2.1-1-2.9-1.8-.8-.7-1.5-1.6-2-2.5-.6-1.2-.9-2.5-.9-4 0-2.6.9-4.9 2.8-6.7 1.8-1.8 4.2-2.7 7-2.7.9 0 1.6.1 2.3.2.4.1 1 .3 1.8.6.9.3 1.4.5 1.5.5.2 0 .5-.1.7-.3.2-.2.4-.5.6-1h.6z"/><path class="st1" d="M295.2 45.9c1 0 2 .3 2.9.8.9.5 1.6 1.3 2.1 2.3.5 1 .7 2.1.7 3.3 0 1.7-.4 3.1-1.3 4.3-1 1.4-2.5 2.1-4.3 2.1-1.8 0-3.2-.6-4.2-1.9-1-1.3-1.5-2.7-1.5-4.4 0-1.7.5-3.2 1.5-4.5 1-1.4 2.4-2 4.1-2zm.1.9c-.4 0-.8.2-1.1.5-.3.3-.5 1-.6 2-.1 1-.1 2.3-.1 4.1 0 .9.1 1.8.2 2.6.1.6.3 1.1.6 1.4.3.3.7.5 1.1.5.4 0 .7-.1 1-.3.3-.3.6-.7.7-1.2.2-.8.3-2.5.3-4.9 0-1.5-.1-2.5-.2-3-.2-.5-.4-.9-.7-1.2-.5-.4-.8-.5-1.2-.5z"/><path class="st0" d="M306.6 58.7l-4.1-9.3c-.5-1.1-.9-1.8-1.1-2.1-.2-.2-.5-.4-.9-.5v-.5h6.4v.5c-.4 0-.7.1-.8.2-.2.2-.3.4-.3.7 0 .3.2.9.6 1.8l2 4.5 1.6-3.9c.5-1.1.7-1.9.7-2.4 0-.3-.1-.5-.3-.6-.2-.2-.5-.3-1-.3v-.5h3.9v.5c-.4.1-.7.2-.9.4-.2.2-.6.9-1.1 2l-4 9.5h-.7z"/><path class="st1" d="M322.7 51.9h-6.6c.1 1.6.5 2.9 1.3 3.8.6.7 1.3 1.1 2.1 1.1.5 0 1-.1 1.4-.4.4-.3.9-.8 1.4-1.6l.4.3c-.7 1.3-1.4 2.3-2.2 2.8-.8.6-1.7.8-2.7.8-1.8 0-3.1-.7-4.1-2.1-.7-1.1-1.1-2.5-1.1-4.1 0-2 .5-3.6 1.6-4.8 1.1-1.2 2.4-1.8 3.8-1.8 1.2 0 2.3.5 3.2 1.5 1 1 1.5 2.5 1.5 4.5zm-3.1-.9c0-1.4-.1-2.3-.2-2.8s-.4-.9-.7-1.2c-.2-.2-.4-.2-.7-.2-.4 0-.8.2-1.1.7-.5.8-.8 1.8-.8 3.1v.4h3.5z"/><path class="st0" d="M328.5 46.3V49c.8-1.2 1.5-2.1 2.1-2.5.6-.4 1.2-.6 1.7-.6s.9.2 1.1.5c.3.3.4.7.4 1.2 0 .6-.1 1-.4 1.3-.3.3-.6.5-1 .5-.5 0-.9-.1-1.2-.4-.3-.3-.5-.5-.6-.5-.1-.1-.2-.1-.3-.1-.2 0-.5.1-.7.3-.4.3-.6.7-.8 1.3-.3.8-.4 1.8-.4 2.8v3.5c0 .5 0 .8.1.9.1.2.3.4.5.5.2.1.5.2 1 .2v.5h-6.5v-.5c.5 0 .9-.2 1.1-.4.2-.2.3-.9.3-1.9v-6.7c0-.7 0-1.1-.1-1.3-.1-.2-.2-.4-.4-.5-.2-.1-.5-.2-.9-.2v-.5h5v-.1zM339.6 46.3v1.6c.6-.7 1.2-1.2 1.8-1.5.6-.3 1.2-.5 1.8-.5.8 0 1.4.2 1.9.7.5.4.9 1 1 1.6.1.5.2 1.4.2 2.8v4.7c0 .9.1 1.5.2 1.7.2.2.5.4 1.1.4v.5h-6.1v-.5c.5-.1.8-.2 1-.6.1-.2.2-.7.2-1.6v-5.4c0-1 0-1.6-.1-1.9-.1-.3-.2-.5-.4-.6-.2-.1-.4-.2-.6-.2-.7 0-1.4.5-2.1 1.6v6.5c0 .9.1 1.5.2 1.7.2.2.5.4.9.5v.5h-6.1v-.5c.5-.1.9-.2 1.1-.5.1-.2.2-.7.2-1.7v-6.8c0-.9-.1-1.5-.3-1.7-.2-.2-.5-.4-1-.4v-.5h5.1v.1zM353.5 46.3v1.6c.7-.7 1.3-1.2 1.8-1.5.6-.3 1.2-.4 1.9-.4.8 0 1.4.2 1.9.5.5.4.9.9 1.2 1.7.7-.8 1.3-1.3 2-1.7.6-.3 1.3-.5 2-.5.8 0 1.5.2 2 .6.5.4.8.9 1 1.5.2.6.3 1.5.3 2.8v4.9c0 .9.1 1.5.2 1.7.2.2.5.4 1.1.4v.5h-6.2v-.5c.5 0 .8-.2 1.1-.6.2-.2.2-.8.2-1.6v-5.2c0-1.1 0-1.8-.1-2-.1-.3-.2-.5-.4-.6-.2-.1-.4-.2-.6-.2-.4 0-.7.1-1.1.4-.4.3-.8.7-1.1 1.2v6.5c0 .9.1 1.4.2 1.6.2.3.6.5 1.1.5v.5h-6.2v-.5c.3 0 .6-.1.8-.2.2-.2.3-.3.4-.5.1-.2.1-.7.1-1.4v-5.2c0-1.1 0-1.8-.1-2-.1-.3-.2-.5-.4-.6-.2-.2-.4-.2-.6-.2-.3 0-.7.1-.9.3-.4.3-.8.7-1.3 1.4V56c0 .9.1 1.4.2 1.7.2.3.5.4 1.1.5v.5h-6.2v-.5c.5-.1.9-.2 1.1-.5.1-.2.2-.7.2-1.7v-6.8c0-.9-.1-1.5-.3-1.7-.2-.2-.5-.4-1-.4v-.5h4.6v-.3z"/><path class="st1" d="M379.7 51.9h-6.6c.1 1.6.5 2.9 1.3 3.8.6.7 1.3 1.1 2.1 1.1.5 0 1-.1 1.4-.4.4-.3.9-.8 1.4-1.6l.4.3c-.7 1.3-1.4 2.3-2.2 2.8-.8.6-1.7.8-2.7.8-1.8 0-3.1-.7-4.1-2.1-.7-1.1-1.1-2.5-1.1-4.1 0-2 .5-3.6 1.6-4.8 1.1-1.2 2.4-1.8 3.8-1.8 1.2 0 2.3.5 3.2 1.5.9 1 1.4 2.5 1.5 4.5zm-3.2-.9c0-1.4-.1-2.3-.2-2.8s-.4-.9-.7-1.2c-.2-.2-.4-.2-.7-.2-.4 0-.8.2-1.1.7-.5.8-.8 1.8-.8 3.1v.4h3.5z"/><path class="st0" d="M385.1 46.3v1.6c.6-.7 1.2-1.2 1.8-1.5.6-.3 1.2-.5 1.8-.5.8 0 1.4.2 1.9.7.5.4.9 1 1 1.6.1.5.2 1.4.2 2.8v4.7c0 .9.1 1.5.2 1.7.2.2.5.4 1.1.4v.5H387v-.5c.5-.1.8-.2 1-.6.1-.2.2-.7.2-1.6v-5.4c0-1 0-1.6-.1-1.9-.1-.3-.2-.5-.4-.6-.2-.1-.4-.2-.6-.2-.7 0-1.4.5-2.1 1.6v6.5c0 .9.1 1.5.2 1.7.2.2.5.4.9.5v.5H380v-.5c.5-.1.9-.2 1.1-.5.1-.2.2-.7.2-1.7v-6.8c0-.9-.1-1.5-.3-1.7-.2-.2-.5-.4-1-.4v-.5h5.1v.1zM398.3 41.9v4.4h2.9v1.3h-2.9V55c0 .7 0 1.1.1 1.4.1.2.2.4.3.5.2.1.3.2.5.2.6 0 1.1-.4 1.6-1.3l.4.3c-.7 1.6-1.8 2.5-3.4 2.5-.8 0-1.4-.2-1.9-.6-.5-.4-.9-.9-1-1.4-.1-.3-.1-1.1-.1-2.4v-6.5h-1.6v-.5c1.1-.8 2-1.6 2.8-2.4.8-.8 1.4-1.8 2-2.8h.3v-.1zM54.8 87.1c-.1.1-.2.3-.3.3M57.8 63.5c.3 0 .6-.3.6-.6 0-.4-.3-.6-.6-.6s-.6.3-.6.6.3.6.6.6zM87.1 36.8H64.4v18.4c0 1.8.8 3.3 1.8 3.8l8.7 5.2c.2.2.5.4.8.4.3 0 .5-.1.7-.3l8.9-5.3c1-.5 1.8-2 1.8-3.8V36.8zm-15.2 5.3h-2v-4.7h2v4.7zm-1.5 1.7l.3-.3-.2-.3h.4l.2-.4.2.4h.4l-.2.3.3.3-.4.1v.4l-.3-.3-.3.3v-.4l-.4-.1zM65 49.6v-4.5h2.4v4.5H65zm.4-6.4h.4l.2-.4.2.4h.4l-.2.3.3.3-.4.1v.4l-.4-.3-.3.3v-.4l-.4-.1.3-.3-.1-.3zm2.6 4.5h.4l.2-.4.2.4h.4l-.1.3.3.3-.4.1v.4l-.3-.3-.3.3v-.4l-.4-.1.3-.3-.3-.3zm1.6-3.6c0-.1-.2-.2-.2-.2-.2 0-.3.4-.5.4-.1 0-.2 0-.2-.1s.3-.2.4-.3c-1.5 0-1.5.7-1.7.7-.4 0 .3-.7.5-.9-.3 0-.5-.4-.8-.6.2-.2.2-.1.4 0 0-.2.1-.3.5-.3.7 0 .5.6.6.6.1 0 0-.6.4-.6.7 0 1.5 1.7.7 1.7-.3-.1-.1-.3-.1-.4zm-1.7-4.9l.3-.3-.2-.3h.4l.2-.4.2.4h.4l-.2.3.3.3-.3.1v.4l-.3-.3-.3.3v-.4l-.5-.1zm-.6-1.8v4.7H65v-4.7h2.3zm4.6 24.3l-5.4-3.3c-.9-.6-1.4-1.7-1.5-3v-5.2h6.9v11.5zm-2-12.1v-4.5h2v4.5h-2zm9 12.5l-2.5 1.5c-.2.1-.4.2-.7.2-.3 0-.5-.1-.7-.2l-2.5-1.5V50.2h6.4v11.9zm0-12.5h-6.4V37.4h6.4v12.2zm7.5 5.8c-.1 1.3-.6 2.4-1.5 3l-5.4 3.3V50.2h6.9v5.2zm0-5.8h-6.9V37.4h6.9v12.2z"/><path class="st0" d="M71.5 54.5c0-.1-.9.3-.6.3 0-.2.5-.7.7-.9 0-.3-.4 0-.8.2 1.3-1.9.5-1.1-.3-1 1.2-1.2.9-1.2 0-.8.7-.5.8-1.2.7-1.3-.6.8-1.2.7-1.2 1.5 0 .5-.2 1.4-.4 1.6-.3.4-.1-1.4-1-1.4-.3 0-1 0-1.2.3.2 0 .5.5.5.6 0 .2.2.7-.1.7-.3 0-.7-.6-.7-.9v-.7c0-.7-1.2-1.8-1.7-1.8 0 .5.7.6.7 1.3-.3 0-.7-.5-.7-.2s.4.4.4.7c0 .3-.5-.1-.5.2 0 .3.3.2.3.5-.2-.1-.4 0-.4.1s.1.2.2.3c-.1.1-.1.2-.1.6 0 1.5.9 2.1 1.6 2.1.5 0 .4-.3.5-.5 0 .2.3-.1.3.3s-.5.3-.5.6c0 .5.7 0 .7.6 0 .7-.1.7-.1.9 0 .2.8-.3.7-.3.2.1.2.6.5.6.2 0 .3-.6.4-.6-.1 0 .7.5.7.3 0-.7-.3-.4-.3-.9 0-.4.9-.3.8-.6-.1-.2-.2-.1-.3-.4 0 .1-.7-1.1.2-.5 1 .6 1.1-1.4 1-1.5zM95.8 59.3c.4 0 .7-.3.7-.7 0-.4-.3-.7-.7-.7-.4 0-.7.3-.7.7-.1.4.3.7.7.7zM92.7 61.1c.4 0 .7-.3.7-.7 0-.4-.3-.7-.7-.7-.4 0-.7.3-.7.7 0 .4.3.7.7.7zM56.8 65.2c.4 0 .7-.3.7-.7 0-.4-.3-.7-.7-.7-.4 0-.7.3-.7.7-.1.4.3.7.7.7zM59.1 65.4c.4 0 .7-.3.7-.7 0-.4-.3-.7-.7-.7-.4 0-.7.3-.7.7 0 .4.3.7.7.7zM123.8 34c1.1 1.3 1.3 3.4.6 5-.4 0-.4-.6-.4-.9-.8-1.5-1.4-3.4-.7-5 .5 0 .3.7.5.9zM28.9 35.8c-.2 1-.2 2.3 0 3.2-.2.2-.2-.2-.4-.2-1.5-1.1-.8-3.3-1.2-4.9.1-.1.3-.2.4-.1.7.6 1 1.2 1.2 2zM127.3 36c.2.4-.2.9-.5 1.1-.4.1-.8-.1-1-.4-.1-.4.1-.8.5-1 .3-.2.7-.1 1 .3zM26.5 37.7c-.1.4-.2.7-.5.9-.2 0-.6 0-.8-.2-.2-.2-.3-.6-.2-.8.2-.3.5-.3.8-.4.3.1.5.2.7.5zM128.8 38.4c.1.2.1.4 0 .6-.3.4-.7.5-1.1.4-.3-.2-.4-.4-.4-.7.1-.3.4-.6.7-.7.3 0 .6.2.8.4zM126.5 38.4c.3.2.1.6 0 .8-.2.2-.5.5-.8.4-.2-.2-.4-.2-.5-.5 0-.4.2-.8.6-.9.3-.1.5.1.7.2zM123.6 39c0 .4 0 1-.5 1.1-.5.2-.8-.2-.9-.6 0-.4.2-.8.6-1 .4.1.6.3.8.5zM30.8 39.2c.1.4-.3.6-.5.8-.3.1-.6-.2-.8-.4-.3-.3.1-.5.2-.8.3-.3.9 0 1.1.4zM28.4 39.3c0 .3-.2.6-.4.8-.3.1-.6-.1-.8-.4-.2-.4 0-.8.4-.9.4-.1.6.3.8.5zM114 39.5c.4.8.7 1.8.8 2.9-.2.8.1 1.8-.4 2.3-.6-.2-.6-.9-1-1.2-.7-1.4-.1-3 .2-4.4.3-.2.3.2.4.4zM26.5 40c.1.5-.2.7-.5 1-.5.1-.8-.2-1-.6 0-.4.2-.8.5-1 .4 0 .8.2 1 .6zM120.3 41.1c.5 1.2.6 2.6.2 3.8l-.2.2c-.6-1.1-1.3-2.1-1.6-3.2 0-.8.2-1.6.5-2.3.3-.2.4 0 .6.3-.1.5.1 1 .5 1.2zM125.3 40.4c0 .4-.2.8-.6 1-.4.1-.8 0-.9-.5-.1-.4.1-.8.4-1 .5-.2.9.2 1.1.5zM28.4 41.7c0 .3-.3.7-.6.8-.3.2-.6-.2-.8-.3-.1-.3-.2-.6 0-.9.1-.2.4-.2.6-.3.4.1.8.3.8.7zM30.2 41.5c.2.4-.3.6-.4.8-.5.2-.7-.2-.9-.5-.1-.4.2-.6.4-.9.5-.1.7.2.9.6zM126.4 41.3c0 .5-.8 1-.9 1.6-.4 1.1-1.4 1.9-2.5 2.2-.2.2-.6.5-.9.5-.1-.8.6-1.5 1.1-2.2.8-1.1 2-1.7 3.2-2.1zM27.7 43c.6.7.9 1.3 1.6 1.9 0 .2-.1.4-.3.4-1.9-.1-3.3-2.1-4.2-3.5.1-.4.6-.1.9-.1.7.5 1.4.6 2 1.3zM127 43.6c-.1 1.7-.9 3.5-2.5 4.3-.4.2-.9.6-1.3.3.8-1.7 2.1-3.1 3.5-4.6h.3zM119.4 44.7c.1.6-.2 1-.7 1.2-.4 0-.7-.3-.9-.6 0-.4.2-.8.6-.9.1-.1.3-.1.5-.1.1 0 .3.2.5.4zM25.5 45.1c.8.5 1.4 1.2 2.1 1.9-.5.4-1.1 0-1.7 0-1.3-.5-2.3-1.6-3.6-2 0-.4.6-.3.8-.4.8-.1 1.5.3 2.4.5z"/><path class="st0" d="M68 33.3c-2.2-.9-3.7 1.4-6 1.2-.3.2-.2.4-.4.6-.1.1-.3 0-.4 0-.1-1-.4-1.8-.6-2.8-.2-.4-.1-1-.3-1.4-1.3-3.5 3.1-.8 4-2.9.8-1.8-1.5-2-2.1-3.2v-.5c-.6-.6-1.3-.8-1.7-1.7.3-1 .4-2.1.1-3.1 0-.2-.2-.6-.6-.4-.8 1-1.3 1.9-2 2.9-.8-.6-1.5-1.3-2.3-1.8-.6-.1-1.1-.7-1.8-.4-.1.2 0 .4.1.6 0 1.6.8 2.8 1.9 3.9l.1.6c-.7 1.6-.5 3.5-.7 5.3-1.8 4.6-4.7 8.9-8.6 12.1-2.3 2.6-5 5-5.3 8.5-.1.6.1 1.2-.4 1.6-1.3-.5-2.6-1.1-3.7-2-1.8-1.3-4.4-1.1-5.6-3.4-.5-.9.1-1.8.6-2.5 1.3-1.3 1.2-3.6.4-5.1-.2 0-.2.2-.3.2-.1 2.4-2 4-1.3 6.6.2.8.6 1.2.8 2-.3-.1-.7-.1-.9-.2-.9-.1-1.7-.5-2.7-.4-1.8.8-4.3-.2-5.8 1.5-.2 0-.6.1-.5.4.9 0 1.7.2 2.6.2 1.4.2 2.3-.9 3.3-1.4h.2c.4-.4 1.1-.2 1.6-.2 2.5.3 4.4 1.5 6.5 2.7v.2c-.8.4-1.7.6-2.5 1-.9.7-1.9 1.6-2.2 2.7-.6 1 .2 1.9.6 2.7 0 .4.1.9.4 1 1.3-1.4.1-3 .3-4.6.3-1.2 1.4-1.8 2.6-2.1 2.3-1 3.9.9 5.7 1.9 0 1.8.2 3.6-.2 5.4-.6.2-1.3.3-1.9.3-3.1.2-5.6 2-8.4 2.9-1.3.4-2.8.4-4 .9 1 .3 2-.1 3.1-.1 3.9-.6 6.9-3.6 11.1-3l.1.1c-.5 1-1.1 1.8-1.9 2.6-.1-.4-.2-.8-.6-1-.3-.2-.7 0-.9.3-.1.2-.1.4 0 .6.2.4.5.4.9.6-.1.4-.5.5-.8.8-1.1 1.9-3.4 1.1-4.7 2.4-.2.3-.9.4-.6.9 1.5.2 3-.2 4.1-1l4.5-4.8c.2 1.3-.1 2.6-.9 3.6-.4-.2-.6-.5-1.1-.6-.4.1-.7.5-.7.8.2.3.3.6.6.8-1.3 1-3.1 1-4.6 1.5-2.9.4-5.7.6-8.6.6-1.4-.1-3 .4-4.3 0-1.5.3-3.1-.2-4.4.6-.2.2 0 .4 0 .6 1.8 1.2 4.3.2 6.4.6h15.6c1.2 0 2.3-.1 3.2-.6 2-1.2 3.1-3.2 4.2-5.3.4-.7.7-1.6.8-2.4.4-1.4 1.6-2.3 3-2.4.2 2.1-.2 4.2-.7 6.1-.2 1.3-1.1 2.5-.6 3.9.1.6.8.6 1.3.7 4.8-.1 9.6-.3 14.7.1.9.2 1.7.4 2.7.4.1-.1.4-.2.2-.4-.1-.4-.4-1-1-1.1-.1-.2-.4-.2-.6-.3-2.5-1.4-5.6-.7-8.6-.6-1.5.2-3.1.4-4.4-.4-.6-.7-.2-3-.2-3 0-.9 2.2-7.2 2.5-7.7.1-.6.3-1.2.2-1.8.3-.8.2-1.8.2-2.7.2-1.3.8-2.5 1.2-3.7.2-.6.4-1.2.7-1.8.2-.8.3-1.5.8-2.1 1.3.8 2.6.8 3.2 2.3l.5 3.3c0 .2.2.6.4.4 1-.7.7-2.2.7-3.2.2-1.2-.6-1.8-1-2.9-.3-.2-.7-1.2-.7-1.2-.2-.9-2.1-1.5-1.6-2.6.2-.9.5-1.8 1.3-2.3.1.1.2.2.2.3l.5-.3v-3.3c1.3 0 3.2.2 4.5.2.4.1.6.4 1 .4l.3-.4L71 35c-.9-.2-1.7-1.7-3-1.7zM71.4 34.7c.1 0 .2 0 .3-.1l-.3.1z"/><path class="st0" d="M36.9 45.8c0 .5-.2.8-.6.9-.3-.1-.6-.2-.8-.5-.2-.4.2-.8.6-.9.3.1.7.2.8.5zM34.3 45.8c.2.2.3.6.2.9-.3.2-.7.4-1 .1-.2-.2-.5-.5-.3-.8.3-.3.8-.5 1.1-.2zM89.5 46.3s.1 0 0 0M119.8 46.9c.2.4-.2.8-.5.9-.4-.1-.9-.2-.9-.7 0-.3.3-.5.6-.6.3-.1.6.2.8.4zM121.9 46.9c.1.2.4.5.1.7-.2.1-.3.2-.4.3-.4.1-.8-.1-1-.5-.1-.4.3-.6.6-.8.3-.1.5.1.7.3zM24.4 47.3c-.2.5-.6.7-1.1.5-.1-.1-.2-.3-.3-.5 0-.3.1-.6.4-.7.5.1.8.3 1 .7zM37.7 48c0 .3-.4.6-.7.8-.4 0-.7-.3-.9-.6 0-.3.2-.7.5-.8.5-.1 1 .2 1.1.6zM35.4 47.7c.1.1.2.4.1.6-.2.2-.6.6-1 .3-.2-.2-.5-.4-.4-.8.2-.2.4-.4.6-.5.3.1.5.3.7.4zM127.9 48.2c0 .3-.3.6-.5.8-.3.1-.7 0-.9-.2-.2-.1-.2-.4-.2-.6.2-.3.5-.4.8-.5.4 0 .6.3.8.5zM130.5 48.6c-.1.4-.4.7-.8.7-.2 0-.7-.1-.6-.5 0-.3.2-.6.4-.6.4-.2.8 0 1 .4zM28.9 49.1c.1.5-.1.8-.5 1-.3.2-.6 0-.8-.2-.2-.2-.4-.5-.2-.8.1-.4.4-.3.7-.4.4 0 .6.2.8.4zM30.8 49.5c.1.3-.2.4-.3.7-.2.1-.5.2-.7.1-.3-.2-.6-.6-.3-1 .3-.6 1.1-.3 1.3.2zM125.6 49.3c0 .4-.3.7-.6.9-.4.1-.7-.2-.8-.5 0-.3.2-.6.4-.8.4 0 .8.1 1 .4zM128.8 49.9c-.1.4 0 .8-.4 1-.3.1-.7 0-1-.2-.2-.2-.3-.6-.2-.8.2-.3.6-.6 1-.5.3.2.4.4.6.5zM27.4 50.8c.2.3-.2.4-.3.6-.3.2-.6 0-.8-.1-.3-.2-.2-.6-.1-.8.3-.7 1-.2 1.2.3zM126.3 51.5c.2 0 .1.3 0 .4-1 .5-2.4.6-3.2-.2-.5-.4-1.1-.6-1.6-.9.2-.5.9-.5 1.4-.6 1.3.2 2.2 1.3 3.4 1.3zM29.3 51.2c.1.3-.2.4-.2.7-.2.2-.5.2-.7.1-.4-.2-.5-.7-.3-1 .4-.5.9-.3 1.2.2zM32.8 51.4c.2.4-.1.7-.4.9-.3.2-.5-.1-.8-.1-.2-.3-.6-.6-.2-.9.4-.6 1.1-.3 1.4.1zM78.6 53.1c-.1.8-1.4-.1-1.2.9.2.8.3 1.7.8 2.2.4.5.2 1.4.2 2-.3.6-.9 1-1.5 1.3-1.1-.1-2.8.6-3.3-.8-.2-.6-.6-1.2-.6-1.9.1-.1.3-.1.4-.2 0-.3-.3-.4-.3-.7 1.3-.2-.5-1.4.6-1.4.9.9 2.4.6 3.2 1.7.2.2.3.4.6.5-.2-.9-.6-1.9-.8-2.9-.1-.5.1-1 .5-1.3.5-.6 1.1.2 1.4.6zM36.3 52.8c.1.4-.2.6-.4.8-.4.2-.6-.2-.7-.4-.1-.4.2-.6.4-.8.2 0 .5.2.7.4zM60.7 53.2c.5 1.6.3 3.2-.5 4.5 0 .3.1.8-.4.8-1.1-1.5-.3-3.6.2-5.1.1-.4.6-.6.7-.2zM94.7 54c.6 1.1.6 2.6.1 3.7l-.3.3c-.4-.9-.8-1.8-.9-2.8.2-.7.4-1.4.5-2.1.5-.1.4.6.6.9zM39.4 54.4c-.2.5-.9.6-1.3.9-1 .7-2.3.9-3.5.7 1-1.4 2.6-2.3 4.5-1.9 0 .2.2.1.3.3zM23.1 55.9c1.5 1 1.9 2.5 2.7 3.9.1.2.5.2.4.5-.3.2-.6-.2-1.1-.2-1.5-.7-2.5-2.4-2.4-4.1 0-.1.2-.1.4-.1zM93.1 57.1c0 .4 0 .8-.4.9-.4.1-.8-.1-.9-.5-.1-.3.1-.4.2-.6.4-.3.9-.1 1.1.2z"/><path class="st0" d="M109.9 59.2c0-.8.2-1.5.3-2.2.1-.2.2-.5.2-.8 1-1.3 2.9-.9 4.4-.8.6.3 1.3.3 2 .4.3-.2.7-.2 1-.2 1.3-.7.4-2.2.5-3.3l-.5-1.2c-.1-.2-.2-.5-.3-.8-.2-.3-.4-.8-.6-1.1-.7-1.8-2-2.8-3.1-4.2-2-2.6-5.2-4.1-8.4-5.2-3.1-1.1-6.3.3-9.1 1.3-.9-.2-1.3-.9-1.5-1.7-.2-1.5.2-3 .8-4.2.1-1 .8-1.8 1.1-2.7.7-2.2 1.5-4.4 1.6-6.9.1-1.5-1-2.5-2.1-3.2-.8-.2-1.6-.2-2.2.4-.5 1.1-1.6 1.8-2.6 2.3-.1.7.8.2 1 .5.9.2 1.9-.1 2.6.4.1 1.6-.8 2.9-1.7 4.1-1.3 2-2.8 4-3.6 6.2l-.2-.2.2 9.8c1.3 2.1 2.8 4.5 5.2 5.3 1.3 1 2.9 2.3 4.6 1.4.9-.3 1 1 1.4 1.5.5 1.5-.6 2.5-.7 3.9l-1 2.2C98 62.5 96.9 65 95.1 67c-.6 0-1 .6-1.5.7-.3.4-1 .1-1.3.3-1.2.5-3 .2-3.8 1.4.1.1.2.2.3.2 2.4 0 5.1.2 7.7.1.3-.1.6-.4.6-.8-.4-.7.1-1.3.4-1.8.2-1 .8-1.6 1.1-2.5.8-1.6 1.8-3.2 2.7-4.9l1.2-2c.3-.7.8-1.5 1.2-2.2.3-.3.5-.7.7-1.1 0-.4-.2-.6-.4-.8.3-.3.7-.2 1.1-.3 1 .6 2 1.6 2.2 2.6l.4 1 .2.5-.1 1.3.2 1.2c.2 1.9-.2 3.9-.4 5.8-.7 2.3-3.3 2.1-5.2 2.6-.5.3-1.4.2-1.4 1 2.3.5 5 .2 7.5.2.4-.2.5-.5.7-.9.1-.5.6-1 .4-1.5-.4-.6 0-1.4-.2-2.2.1-.2.1-.5 0-.8.3-1.2.2-2.6.5-3.7v-1.2zM129.4 57.7c-1.3 1.8-2.6 3.8-4.8 4.5-.2 0-.3.1-.4-.1 1.3-1.4 2.1-3.7 4.2-4.2.2-.2.7-.4 1-.2zM21.1 59.6c-.2.2 0 .5-.4.6-.3.2-.7 0-.8-.4-.2-.4.2-.8.5-.9.3.2.6.3.7.7zM32.5 60.2c.1.4-.3.4-.5.4-1.7.6-3.4 0-4.6-1.2 0-.2 0-.3.2-.4 1.7.5 3.6.2 4.9 1.2zM23.3 59.7c.1.2.1.4.1.6-.2.4-.6.4-1 .4-.2-.1-.4-.3-.5-.5 0-.4.4-.6.7-.8.3 0 .5.1.7.3zM60.5 59.9c.1.4-.2.6-.5.8-.4.1-.7-.1-.8-.3-.1-.3 0-.7.3-.8.3-.1.8-.1 1 .3zM130.9 60c.1.4-.2.6-.5.8-.2.1-.5 0-.8-.1 0-.2-.3-.4-.2-.6.2-.4.5-.5.9-.5.2.2.4.2.6.4zM133.5 59.9c.2.4 0 .6-.2.9-.2.3-.5.4-.7.2-.2-.2-.6-.4-.6-.7 0-.3.4-.6.6-.7.4-.1.6.3.9.3zM19.4 61c0 .3-.2.4-.3.7-.2.1-.4.2-.6.2-.3-.1-.5-.4-.6-.6.1-.4.3-.7.7-.8.4 0 .7.2.8.5z"/><path class="st0" d="M103 61c.1.2 0 .4 0 .5-.2.3-.6.6-1 .4-.2-.2-.5-.5-.4-.8.4-.4 1.1-.6 1.4-.1zM25.8 61.6c-.1.3-.2.6-.6.6-.4 0-.5-.3-.7-.4 0-.4 0-.7.3-.9.6-.2 1 .2 1 .7zM22 61.7c.1.4-.2.7-.4.9-.5.2-.9-.2-1.1-.6 0-.4.3-.8.7-.9.4 0 .6.4.8.6zM105.6 61.6c.1.4 0 .8-.4 1-.5.2-.9-.2-1.1-.6.2-.3.2-.8.7-.8.4 0 .6.2.8.4zM23.9 61.8c.1.3-.1.4-.2.6-.2 0-.3.2-.6.2-.2-.2-.5-.3-.5-.6 0-.4.2-.6.5-.8.4 0 .7.3.8.6zM128.7 62.1c-.1.3-.4.5-.7.6-.3.1-.5-.2-.8-.3-.2-.2-.1-.5 0-.7.5-.7 1.5-.3 1.5.4zM131.7 62.3c-.1.4-.6.6-1 .7-.4-.2-.8-.4-.5-.9.2-.2.2-.3.5-.4.6-.2.9.2 1 .6zM112.9 62.6c.2.5-.3.7-.6.9-.3 0-.5-.2-.8-.3-.1-.4.1-.8.6-1 .4-.1.6.1.8.4zM102 63c.2.1.1.4.1.5-.2.2-.6.6-.9.3-.3-.2-.5-.4-.4-.8.2-.4 1-.4 1.2 0zM104.2 63.3c0 .3 0 .5-.3.6-.3.3-.6 0-.9-.1-.1-.2-.2-.4 0-.6.1-.2.3-.3.5-.3.3.1.6.1.7.4zM36.9 63.4c.2.2 0 .5-.1.8-.2.2-.6.4-1 .2s-.4-.7-.3-1c.2-.1.2-.4.6-.4.4 0 .6.2.8.4zM117.1 63.5c.1.4-.3.6-.6.6-.5.2-.7-.2-.9-.5 0-.2.2-.4.3-.6.6-.2 1 .2 1.2.5zM115 63.5c.2.4-.3.6-.4.8-.3.1-.6.1-.9-.2-.2-.1-.2-.4-.2-.6.2-.2.4-.4.6-.5.4 0 .7.2.9.5zM132.9 64c.1.6-.6.3-.9.4-1.7 1-3.8.2-5.4-.4.1-.5.7-.3 1-.5 1.7-1.1 3.5.2 5.2.3l.1.2zM24.3 63.5l-.2.3c-1.5.9-3.4 1.5-5.1.9l-.2-.2c1.5-1.1 3.4-1.4 5.3-1.1l.2.1zM121.2 63.8c0 .3-.2.6-.4.8-.4.1-.9 0-1-.4-.1-.3.2-.6.5-.8.3 0 .7 0 .9.4zM31.4 64c-.2.3-.1.6-.5.8-.4.2-.9-.2-1-.5-.1-.4.2-.6.4-.8.5-.3.9.1 1.1.5zM28.6 64.2c.1.3-.1.4-.2.6-.2.2-.6.2-.8.1-.3-.2-.6-.5-.4-1 .2-.2.4-.3.6-.4.4.1.7.3.8.7zM124 65.1c0 .4-.3.6-.6.7-.3 0-.6-.2-.8-.4-.1-.2-.1-.6.2-.8.1-.1.4-.1.5-.2.3.1.6.4.7.7zM25.7 64.6c.1.3-.2.4-.2.7-.1.7-.6 1.1-.9 1.7-.8.9-1.8.9-2.9 1.2l-.2-.3c1.2-1.5 2.4-2.6 4-3.4l.2.1zM122 65.5c.1.5-.3.6-.6.8-.4 0-.6-.2-.8-.5-.1-.4.3-.6.5-.8.4-.1.8.2.9.5zM30.2 65.5c0 .1 0 .2.1.2 0 .4-.4.6-.6.8-.4 0-.6-.1-.9-.4-.2-.4 0-.8.4-.9.4-.1.9 0 1 .3zM129.3 66.7c.4 0 .5-.5.9-.6.4-.1.8.2 1 .4.2.5-.2.7-.5.9-.3.2-.9-.2-.8.3.3.2.5.5.6.8-.1.2-.4.1-.5 0-1.2-.5-2.4-1.3-2.9-2.5-.2-.4-.9-.6-.5-1 1.1.1 2 1 2.7 1.7zM133.1 65.5c.2.2.1.6 0 .8-.2.4-.8.2-1.2.2-.2-.2-.4-.4-.3-.7.2-.2.3-.4.6-.5.3-.2.6 0 .9.2zM118.7 67.6c.4.4.7 1.1.9 1.6-.1.1-.3.1-.4.1-1.3-.8-3.1-1.6-3.6-3.2-.1-.2-.4-.4-.4-.6 1-.2 2 .6 2.7 1.1.3.4.6.6.8 1zM28 66.1c.2.4-.2.6-.4.8-.4.1-.7-.1-.9-.3-.3-.4.2-.8.6-1 .3 0 .5.3.7.5zM123.6 67c0 .2-.3.4-.4.6-.3 0-.6.2-.9-.1-.1-.2-.3-.5 0-.7.4-.6 1.1-.2 1.3.2zM133.5 67.6c.1.5-.2.8-.6 1-.4.1-.7-.2-1-.4-.2-.2 0-.5 0-.8.3-.2.6-.4 1-.3.3.2.5.3.6.5zM106.1 73.1c0 .5-.9.4-1.2.7-1.2.6-2.7.6-4.2.6v-.2c1.4-1.2 3.5-1.7 5.4-1.1zM48.2 74.8c0 .4-.2.6-.6.7-.3 0-.6-.2-.7-.4-.2-.5.2-.7.5-.9.4.1.7.3.8.6zM105.4 75.3c-.1.4-.2.8-.6.9-.4.1-.6-.1-.9-.3-.2-.2-.1-.4-.1-.6.3-.8 1.3-.8 1.6 0zM113.3 75.4c-1 .6-2.1 1.4-3.4 1.4h-2.1l-.2-.2c1.3-1.6 3.7-1.6 5.8-1.4v.2h-.1zM37.3 76.4c0 .4-.2.6-.5.8-.4.1-.7-.1-.8-.4-.2-.4 0-.7.3-.9.4-.3.9.2 1 .5zM39.3 76.8c.1.2-.1.3-.2.5-.2.1-.6.2-.8 0-.3-.2-.4-.4-.2-.7.1-.2.4-.2.5-.4.3.2.6.3.7.6zM24.1 80.8c-.4.5-1-.1-1.5-.4-1.4-.8-1.3-2.4-2.7-3.3.2-.5.5 0 .8 0 .2.2.6.3.8.4 1.4.8 1.7 2.1 2.6 3.3z"/><path class="st0" d="M139.7 65.3c-.6-1.2-1.7-1.6-3-1.6-1 .1-1.8.8-2.2 1.6-.2.9.1 1.7.8 2.2.3.1.6.1.8-.2.2-.5-.4-.5-.4-.9-.2-.6 0-1 .4-1.4.4-.4 1.1-.2 1.5-.2.5.3 1 .6 1.2 1.2.2.7.2 1.4 0 2.1-.4 1-1.4 1.8-2.5 2-3.3.5-39.4.3-39.4.3-4.2.4-9.1-.8-12.7 1.4-1.7.8-2.5 2.6-2.9 4.3-1.1 1-2.2 2.1-3.1 3.2l-.1-.1c.2-1 .6-1.8.8-2.8.6-.8.6-1.9 1-2.8 1.5-2.4 2.9-4.9 5.3-6.6 1-1.3 2.7-1.1 4.2-1.1 1.6.8 3.5 1 5.5.8.1-.1.1-.2.1-.3-.6-.5-1.5-.7-2.1-1.2-1.6-.8-3.1.2-4.8.1-.1-.1-.2-.1-.1-.2 1.5-1.1 3.2-1.9 4.9-2.6 1.4-.8 2.9-1.2 4.3-1.7.6 0 1.2-.5 1.7-.2l2.1-.6c.1 0 .2.2.3.1 1.8-.6 4 0 6.1-.1l.3.2 1.9.5c.7.1 1 .9 1.8 1 .4-.6-.4-.8-.6-1.2.9-.2 1.9 0 2.7.4l-.4.4c-.2.4.1.8.5.9.3.1.5-.1.7-.2.5-.4 0-.7.1-1 2.9.5 5.8 1.2 8.4 2.4.8.2 1.5.8 2.3.8-.8-.8-2-1.2-3-1.6-.7-.4-1.6-.4-2.1-1 .1-.2.4-.1.5-.3 1.4-.2 2.5-1.2 3.5-2.2.1-.2.5-.2.5-.5-.4-.4-1 .1-1.4.1-1.7.3-2.4 2.3-4 2.6-2-.5-4.1-1-6.1-1.5-1-.2-2.1-.2-3-.6l-2.2-.2h-4c0-.1-.2-.1-.1-.2 1.4-.4 2.7-1.2 4.1-1.6l10.6-4.9c1.1-1 2.1-2.1 3-3.3 0-.3-.2-.6-.4-.8-.3-.1-.6-.1-.8.2-.5.4 0 .8 0 1.2-.5.6-1.2 1.2-1.8 1.6-.2 0-10.9 4.9-10.9 4.9-1.6.7-3.2 1.4-4.8 1.8l-2.3.4c-.2.5-.6.8-1 .9-.6.1-1.1.5-1.8.5-5.2 2-10.5 4.1-14.6 8.2.2-.5.4-1.1.4-1.7-.1-.6 0-1.3-.4-1.8-.1-.2-.4-.9-.3-1.1l-.6.4c-.4.9-.7 2.5-.3 3.4.1.7.7 1.6.2 2.2-1.9 2.3-3 5.1-4.2 7.8-.5-.1-.7-.5-.9-1 1.3-1.7 2.4-3.6 2.8-5.8.3-.2.1-.7.4-1-.1-.6.4-1.3 0-1.8.3-.9-1.2-1.7-.3-2.2l-.7.4c-1.7 2.2.9 5.6-1.1 7.8v.2c-.6.7-.8 1.4-1.6 1.9-1-.4-1.3-1.5-1.9-2.3-.9-.8-.9-2.6-.4-3.7.4-1.2-.2-2.2-.4-3.2l-.7-.2c-1 1.2-1.3 3.2-.6 4.7.4.7.4 1.7 1 2.3.4 1.2 1.1 1.9 1.7 3 .2.4-.2.5-.4.7-.4-.3-.4-.9-.8-1.2-1.3-2.8-3-5-5.1-7.3-.1-.4-.4-.7-.2-1.1.8-.7.9-2.1.5-3-.1-.2-.3-.4-.3-.6l-.5-.7c.1 1.4-.8 2.6-.4 4.1v.1c-4.1-3.1-8.6-5.8-13.2-8l-.4 1c1.2.3 4.2 2.2 4.2 2.2 1.4.5 2.7 1.4 4 2.1 5.4 3 9 8 11.4 13.5 0 .4.4.9.2 1.4-.8-1.3-2-2-3-3-.3-1.9-1.4-3.7-3-4.4-.6-.9-1.9-1-2.9-1.2l-14.4-.1c-11.7-.2-22.5.4-34.1.2-1.6-.2-3.6-.7-4.1-2.4-.3-.6-.3-1.6 0-2.2.4-.8 1.2-1 2-1.1.6.1 1.1.7 1.4 1.1 0 .5-.4 1-.6 1.4 0 .2.2.5.5.4.5-.2.9-.8 1-1.3 0-.3.2-.7-.1-.9-.2-.8-1.1-1.4-1.9-1.6-1-.1-2 .2-2.7.9-1 .8-.9 2.2-.6 3.4.6 1.8 2.5 3 4.3 3.2l38.6.2c3.8.2 8-.4 11.8.3 1.4.4 2.9 1.5 3.2 3 0 .1-.2 0-.3 0-3.1-2-7.3-2.8-11.3-2.3-1.6-.1-3 .5-4.4.9-.8.2-1.5-.2-1.9-.6-1.4-1.3-3.9-1.2-5.8-.7v.3c1.9-.2 3.1 1.5 4.8 1.7.4.1.7-.4 1.1 0-1.8.9-3.6 1.9-5.5 2.5-.6-.1-.9-.7-1.4-1-.8-.8-2.1-.5-3.2-.6-.4.1-.7-.2-.9 0 .3.6 1 1 1.7 1.3 1 .4 2.1 0 3.1.6-.2.3-.6.4-.8.6-1.9.7-3.4 2.4-5.5 2.3-2.2.2-4.4-.4-5.9-1.9-.6-1.6-2.3-2.4-4-2.3-.1.1-.3.1-.2.3.9.5 1.5 1.6 2.4 2.2.6.7 1.6 0 2.1.8.8.5 1.7 1 2.6 1.1.6.3 1.3.4 2.1.6l-.3-.3c-3.6 1.2-7.8 1.3-11.8 1.2-1.2 0-2.3-.4-3.5-.4.2.2.6.4 1 .6-.3.2-.7.3-1.1.3-.5.1-1 .2-1.5.4-.6 0-1.2.2-1.7.4-.7.7-1.5 1.5-2.3 1.8 0 .2 0 .4.2.4.8-.3 1.7-.1 2.5-.4 1.3-.1 2.1-1.6 3.1-2.2 1.1-.9 2.7-.7 4-.5.8.2-.1.5.2 1 .3.3.6.6 1 .5.1-.1.2-.2.3-.2.2-.3.2-.7 0-1 .6-.4 1.3 0 1.9-.2 1.5 0 3-.4 4.5-.4.2 0 .5-.3.8 0-.1.3-.5.4-.4.8.1.4.5.5.8.6.4-.2.8-.4.6-1-.1-.3-.4-.3-.6-.4.8-.4 1.8-.5 2.6-.9.6-.1 1.2-.3 1.7-.6.5 0 1-.5 1.4-.3-.2.7-.5 1.3-.8 1.9-.6 2.1-1.1 4.9 0 7 .1 0 .2 0 .2-.1-.8-2.1-.4-4.6.4-6.6.6-3.4 4-4.4 6.5-5.7l.1.2c-.7 1.8-1.7 3.4-1.5 5.6.1.4-.2.7 0 1 .7-.4 1.1-1.2 1.5-1.8.3-1.8-.8-4 1.1-5.4 3.3-1.3 6.3-3 10.1-3 .1.1.4-.1.4.2-.8.9-1.9 1.7-2.3 2.8-1.3 1.8-1.2 4.8-.7 6.9.4 1.2-.7 1.9-1.2 2.9-.2.3-.3.9-.5 1.3l.8.1c.7-.7 1.3-1.6 1.3-2.6.1.4.4.7.8.8.3-.4-.2-.8-.3-1.2.6-.4.9.4 1.4.6.8.2 1.5.6 2.4.6l.3-.3c-.9-1.4-2.6-1.6-4.1-1.7-.8-1.3-.8-3-.7-4.6.2-.8.3-1.7.8-2.5.2-.6.8-1.1 1.1-1.5.7-.7 1.6-1.2 2.5-1.4h.1v.1c-1.1.8-1.2 2-1.8 3-.7 1-1 2.4-.4 3.5.2.5.1 1.3.7 1.7.5-.7.6-1.6.8-2.4-.1-1.3-.9-2.6-.2-3.8.4-1 1.2-1.4 2.1-1.8 2.2-.2 4.1.9 6 1.8.4.3 1.1.5 1.2 1.1 0 1.1-.6 2.2-1.5 2.7-1.1.6-2.6.7-3.6 0-.7-.7-.9-1.8-.7-2.6.4-.5 1-.9 1.7-.6.4.2.8.6 1.3.4.2-.1.3-.4.2-.6-.4-.2-.6-.8-1.2-.9-.8-.1-1.7-.1-2.2.4-.8.7-1.2 1.8-.9 2.8.3 1.3 1.2 2.2 2.5 2.6 1.8.4 3.7-.1 4.9-1.7.5-.5.6-1.1.9-1.7 1.9 1.2 3.3 3.2 4.1 5.3 0 .7.2 1.4 0 2l1.4.1c-.1-.3 0-.7.1-1 .5-2.6 2.1-4.8 4.1-6.6.7-.4.5.5.7.8.6 1.5 2 2.6 3.5 3 1.7.3 3.3-.1 4.3-1.4.5-1 1.2-2.4.3-3.4-.6-.7-1.3-1-2.2-1-1 0-1.7.7-2.2 1.5 0 .3 0 .7.2.8.2 0 .5 0 .6-.2.1-.6.6-.9 1.1-1.2.4-.2.9 0 1.3.2.4.4.5 1 .6 1.6-.1.8-.6 1.6-1.3 1.9-1.2.6-2.8.3-3.8-.4-.5-.5-.8-1.1-1.1-1.8-.1-.6-.3-1.2 0-1.8 1.7-1 3.6-1.8 5.7-2 .8.2 1.5.7 2.1 1.3 1.8 1.9-.4 4.6.9 6.6.5-.1.5-.7.7-1.1.6-1.4-.2-3-.5-4.4-.5-.9-.8-1.6-1.5-2.4.2-.1.3-.1.5-.1.8.6 1.7 1.2 2.4 2.1 1.2 1.9 1.7 4.1 1.5 6.6-.3 1.2-1.6 1.8-2.6 2.2-.4.3-.9.8-1.1 1.3.5.3 1.2 0 1.6-.2.8-.3 1.2-1.2 1.7-1.7.1 0 0 .2.1.2 0 .4-.2 1 .2 1.2.2-.6.2-1.4.4-2 .5.6.6 1.3.8 2 .4.7 1 1.7 1.9 1.8.2-.4 0-.7-.1-1-.1-1-1-1.5-1.5-2.2-1.4-1.9-.8-4.9-1.8-7.1-.4-1.2-1.2-2-2.1-3l.2-.2c1.9 0 3.6.6 5.4 1 2.2 1.1 5.4.8 6.4 3.7.4 1.6 1.2 3.1 2.3 4.3l.1-.1c.2-.4.2-1.1 0-1.5-.2-2-2-2.5-2.9-4.2l.1-.2c1 .3 1.9.5 2.9.9 3.2.9 5.4 4 5.8 7.2 0 2.6-.5 4.7-1.5 6.8-.1.3-.7.7-.3 1 .4-.3.5-.8.8-1.2 1.3-2.2 2-5.2 1.3-8 0-.5-.6-.9-.4-1.4.2.2.4.3.7.4.2-.2.6-.2.8-.4 0-.2.2-.5 0-.7-.2-.4-.8-.4-1.2-.3-.2.2-.4.6-.5.9-.4-.7-.8-1.6-1.4-2.1l.1-.1c1.8.6 3.4 1.5 5.2 2 .4.2.8.4 1.4.4 1.5.6 3.3.8 4.9 1.2 1.2-.1 2.2.4 3.4.2v-.1c-.4-.6-1.4 0-1.9-.4-2.7-.3-5.4-1-7.8-2 0-.1.2-.1.3-.1.4-.2.7-.6.6-1-.2-.3-.5-.4-.9-.4-.2.1-.6.4-.6.7 0 .3.3.7.6.8-.1.1-.2 0-.4 0-1.2-.6-2.4-1.1-3.6-1.6-.4-.1-.8-.4-1.2-.5-.9-.4-1.8-.9-2.7-1.2-2.5-1.3-5.4-2-8.1-3-.6-.2-1.2-.3-1.7-.5-1-.3-2-.5-3-.8-3.4-.8-7.9-.9-10.8.9-.5-.2-.8.6-1 .1.8-2.2 3.3-2.9 5.4-3 15.9-.2 30.8-.3 46.5-.5 1.8 0 3.6-.6 4.6-2.3 0-1 .2-2.6-.4-3.7zm-63 14.8c-.2.5-.5.9-.4 1.4l-.2.1c.1-.6-.5-1-.3-1.6-.3-.5-.3-1.1-.6-1.6-.4-.6.3-.9.6-1.4.6.2.8.8 1.2 1.2.2.7-.4 1.2-.3 1.9z"/><path class="st0" d="M119.7 77.5c0 .1.2.2.2.4-1.4 1.2-3.3 1.6-5.3 1.7-.2 0-.3.2-.5.1-.1-.1-.2-.2-.1-.3 1.4-1.5 3.6-2.3 5.7-1.9zM113.3 78.2c.2.6-.2.9-.6 1.1-.4 0-.7-.3-.9-.6-.1-.3.2-.5.3-.7.3-.4 1.1-.4 1.2.2zM37.9 78.3c.1.3 0 .6-.2.8-.2.2-.5.2-.7.2-.3 0-.4-.4-.5-.6 0-.4.2-.6.5-.8.3 0 .7 0 .9.4zM30.8 80.9v.3c-1 .2-1.9 0-2.6-.6-.6-.8-1.2-1.6-2.1-2 0-.1-.2-.3 0-.4 2 0 3.2 1.6 4.7 2.7zM125.7 78.2c-.9 1.4-1.7 3-3.3 3.6-.3 0-.5.4-.8.1.6-1.5 2-3.2 3.5-3.8.2.1.5 0 .6.1zM40.2 78.7c0 .4-.3.5-.6.8-.3 0-.5-.2-.7-.4-.2-.4.2-.6.4-.8.4-.1.8.1.9.4zM130.7 78.9c-.4.5-.2 1.3-.6 1.8-.8.9-1.5 2-2.7 2.2-.2-.4.3-.8.5-1.2.6-1.2 1.3-2.6 2.6-3.1l.2.3zM18.5 79.3c.1.3.2.6 0 .9-.2.2-.6.3-.9.2-.4-.2-.5-.6-.3-1s1-.6 1.2-.1zM16.3 79.8c0 .2.2.4.1.6-.1.2-.3.4-.6.5-.4.1-.7-.2-.9-.5 0-.4.1-.7.4-.8.4-.3.8-.1 1 .2zM20.9 80c.1.3.2.9-.3 1-.6.2-.9-.2-1.2-.5 0-.4.2-.6.5-.8.4 0 .8 0 1 .3zM27.5 80.5c0 .3 0 .7-.3.8-.2.2-.6.1-.8.1-.1-.2-.5-.4-.3-.7.2-.2.3-.3.6-.4.2 0 .6-.1.8.2zM134.6 80.8c-.1.3-.3.6-.6.6-.4 0-.7-.1-.9-.4-.2-.4.2-.7.5-.8.4 0 .9.2 1 .6zM127.3 81c0 .3-.3.6-.5.7-.6.2-1-.2-1.2-.6.1-.4.4-.6.7-.7.5-.1.8.2 1 .6zM132.2 80.9c0 .3-.2.6-.4.7-.3.1-.7.1-1-.2-.4-.3-.1-.6.2-.8.4-.2 1.1-.1 1.2.3zM17.5 81.6c.1.4-.1.8-.5 1-.4 0-.8-.2-.9-.6 0-.4.1-.7.4-.8.4-.1.8.1 1 .4zM125.3 82.1c.1.4-.1.8-.6 1-.3.1-.5-.1-.8-.3-.2-.2-.4-.6 0-.8.4-.6 1.2-.4 1.4.1zM38.8 82.5c.2.4-.3.5-.4.8-.2.1-.5.1-.6 0-.2-.2-.4-.5-.3-.8.2-.2.3-.3.5-.4.4-.2.6.2.8.4zM133.8 82.8c.1.3-.2.4-.2.6-.2.2-.6.2-.9.2-.4-.2-.4-.5-.4-.9.2-.2.3-.4.6-.4.4-.1.8.1.9.5zM131.4 82.9c.2.5-.3.7-.6.8-.2 0-.4-.1-.4.2 1 .5 1.7 1.4 2.5 2.1v.3c-1.4 0-2.9-.4-3.9-1.5-.3-.2-.8-.2-1.1-.5.5-.5 1.5-.3 2.2-.4.5-.6-.6-1 .1-1.4.2 0 .4-.3.7-.2.2.2.3.4.5.6zM115.2 82.9c.1.2-.2.4-.2.6-.2.2-.6.3-.9.2-.2-.3-.5-.5-.4-.9.3-.6 1.3-.5 1.5.1zM26.5 84.3c-.1.4-.3.6-.7.6-.3 0-.6-.2-.7-.5 0-.3.2-.4.2-.6.4-.3 1.2-.1 1.2.5zM29.7 83.8c0 .6-.6.9-.8 1.4-.6 1.3-1.7 2.5-3.2 2.6-.2-.4.5-.8.7-1.2.6-1.4 1.9-2.1 3.1-2.9h.2v.1zM114.2 84.4c0 .4-.4.8-.7.9-.4.1-.6-.2-.8-.3-.3-.3-.1-.6 0-1 .5-.5 1.2-.1 1.5.4zM116.7 84.6c0 .4-.3.8-.7.9-.1-.1-.3 0-.4-.1-.3-.2-.5-.4-.5-.7.2-.2.3-.5.6-.6.2 0 .8.1 1 .5zM35.8 84.6c0 .4-.3.7-.6.8-.4 0-.6-.2-.8-.5-.1-.4.3-.6.5-.8.5-.1.6.3.9.5zM38.6 84.8c-.1.4-.4.6-.8.7-.3-.1-.6-.2-.7-.5 0-.4.3-.6.6-.8.3 0 .8.1.9.6zM125.2 87.6c.2.2.6.4.5.6-.6.3-1.1-.4-1.7-.6-1-1-1.7-2-2.1-3.2.4-.4.8.1 1.1.2.8.8 1.7 1.8 2.2 3zM126.7 84.8c.1.3.1.6-.1.9-.2.4-.8.3-1.1.2-.2-.2-.6-.6-.3-.9.1-.3.5-.4.8-.5.2-.1.4.1.7.3zM42.2 85.8c0 .3.1.8-.3 1-.4.1-.8 0-1-.5-.2-.5.2-.6.5-.8.4-.1.6.1.8.3zM116.5 88.4c.6.8 1 1.8 1 2.8-.1.3.2.6 0 .8h-.2c-1.8-1.3-2.2-3.1-2.9-4.9-.2-.1-.2-.2-.2-.4.4-.4.7.4 1.1.5l1.2 1.2zM47.4 87c-.1.1 0 .1 0 0-1.5 1.2-3.8 1.9-5.6.8 0-.1 0-.3.2-.4 1.2-.4 2.3-.9 3.5-.8l1.9.4zM38.3 87.2c-1.3.8-2.6 2.5-4.2 2.9-.3.1-.5.6-.9.3.7-2.2 3.1-3.3 5.2-3.5v.3h-.1zM114.2 89c.1.3 0 .8-.3.8-.2.2-.6.2-.8 0-.4-.2-.4-.5-.4-.8.1-.3.4-.3.6-.4.4.1.7.1.9.4zM110.9 89.2c-.2.6-.9.9-1.4 1-1.3.5-2.6-.2-3.8-.5 0-.3.4-.2.6-.4 1.3-.3 2.7-.6 4-.2.2 0 .5 0 .6.1zM38.3 90.4c-.1.2-.2.5-.5.6-.3.1-.6 0-.8-.2-.1-.2-.4-.4-.2-.7.1-.3.4-.4.6-.4.5.1.8.3.9.7zM40.7 90.8c-.1.2-.2.6-.6.8-.3.1-.6-.1-.8-.3-.1-.2-.2-.5-.1-.8.1-.2.4-.2.6-.4.3-.1.7.3.9.7zM113.4 91.2c0 .3-.1.5-.3.8-.2.3-.6.3-.9.2-.3 0-.4-.4-.5-.6-.2-.3.2-.5.3-.8.5-.4 1.3-.2 1.4.4zM115.2 91.1c0 .2.2.4.1.6-.2.2-.4.7-.9.5-.2.1-.4-.2-.5-.3-.2-.4 0-1 .5-1.1.4-.2.6.2.8.3zM39.2 92.2c.1.4-.1.8-.4 1.1-.4.1-1 .1-1.2-.4 0-.4 0-.9.5-1.2.5 0 .9.1 1.1.5zM41.5 92.1c-.1 1.1-.3 2.5-1.4 3.1-.6.1-1.3.7-1.9.3v-.2c.8-1.2 2.3-2.1 3.3-3.2zM107.2 93c.2.2-.1.4-.2.6-.2.3-.7.2-1 0-.3-.1-.3-.5-.2-.8.1-.2.3-.4.5-.4.4 0 .7.3.9.6zM45.5 94.8c.5 1 .2 2.2.5 3.2-.7.1-1-.7-1.4-1.1-.9-1.2-.8-2.8-1.1-4.2.1-.1.2-.1.3-.1.6.4 1 1.2 1.5 1.7-.1.3.2.3.2.5zM109.2 93.3c0 .3-.4.4-.6.6-.3 0-.5-.2-.8-.4-.1-.4.2-.5.4-.7.5-.1.9.1 1 .5zM113.9 96.9c0 .1 0 .4-.2.3h-.2c-1.1-1-2.3-2.2-2.1-3.8h.2c1.1.8 2.3 1.8 2.3 3.5zM111 95.6c0 .3-.2.6-.4.8-.4.1-1.1.1-1.2-.5 0-.4.4-.6.6-.8.5-.2.8.1 1 .5zM108.3 96.4c-.6 1.5-2.1 2.2-3.1 3.4-.2-.1-.1-.4-.1-.6.4-1.5 1.6-3 3.1-3.6.6.1 0 .5.1.8zM111.3 97.6c0 .4-.4.5-.6.7-.3 0-.6-.1-.9-.4 0-.4.3-.5.5-.7.5-.1.8.1 1 .4zM81.8 25.1c.5 0 1 .4 1 1 0 .5-.4 1-1 1H70c-.5 0-1-.4-1-1 0-.5.4-1 1-1h11.8zm-8.3 1.7c1.1 0 .1-1.4-.6-1.4h-1.1c-1.1 0-.1 1.4.6 1.4h1.1zm4.8 0c1.1 0 .1-1.4-.6-1.4h-1.1c-1.1 0-.1 1.4.6 1.4h1.1zm3.5-1.4h-.4c-1.1 0-.2 1.4.4 1.4.8 0 .9-1.4 0-1.4zM80.8 38.6l2.2.9 2.2-.9-.9 3.3 1.8-.4-.6 2 .6 1.9-1.6-.4.7 3.6-2.2-.8-2.2.9.9-3.6-1.8.5.5-2-.5-1.9 1.7.3-.8-3.4zm3.3 6c.5 0 .5-.7.5-1.3 0-1.4-1.1 0-1.6-1.3-.4 1.1-1.5.1-1.5 1.2 0 .8 0 1.3.8 1.3h1.8v.1zm-2.2-1.3c0 .5.7.2 1.2.2s1.2.3 1.2-.2c0-.7-.7-.5-1.2-.5-.5.1-1.2-.2-1.2.5zM75.5 43.5V43h-.4l.3-.3-.2-.4.4.1.3-.4.2.4.4-.1-.2.4.3.3h-.4v.5l-.3-.3-.4.3zM73.8 45.7v-.4l-.4-.1.3-.3-.2-.3h.4l.2-.4.2.4h.4l-.2.3.3.3-.3.1v.4l-.4-.3-.3.3zM76.7 45.4V45l-.4-.1.3-.3-.1-.3h.3l.3-.4.2.4h.4l-.2.3.3.3-.4.1v.4l-.3-.2-.4.2zM77.1 47.1v-.2l-.2-.1.1-.1-.1-.2h.2l.2-.2.1.2h.2l-.1.2.2.1-.2.1v.2l-.2-.1-.2.1zM74.3 49v-.7l-.6-.1.5-.5-.3-.6h.6l.4-.7.4.7h.7l-.3.6.5.5-.7.1v.7l-.6-.4-.6.4zM75.7 11.3l1.4 3.5 3.6-1.1-1.8 3.3 3 2.1-3.7.6.3 3.7-2.8-2.5-2.7 2.5.2-3.7-3.6-.6 3-2.1-1.8-3.3 3.5 1.1 1.4-3.5zM62.9 88.4c-.4.2-.6.3-.5.7l.5 2.1c.1.4.1 1-.1 1.4-.3.5-1 .7-1.4.9-.3.1-1.1.2-1.7 0-.4-.2-.7-.4-.8-1.1l-.5-2.2c-.1-.6-.3-.5-.8-.5v-.2l2.7-.6v.2c-.5.1-.8.2-.6.8l.5 2.2c.1.4.3 1.3 1.4 1 1.4-.3 1.2-1.3 1.1-1.8l-.5-2c-.1-.4-.2-.6-.9-.5v-.2l1.7-.4-.1.2zM66.9 88.8c-.2-.4-.9-1.1-1.8-.9-.4.1-.8.4-.7.8.1.4.3.5 1 .6l1.3.2c.3.1 1 .3 1.1 1 .1.6-.2 1.5-1.7 1.8-.7.2-1.2 0-1.4.1-.2 0-.2.2-.2.3l-.2.1-.4-1.6.2-.1c.3.6.9 1.3 1.9 1.1.9-.2.8-.9.8-1-.1-.4-.5-.5-1.1-.6l-.6-.1c-1.5-.2-1.6-.8-1.7-1.1-.1-.4 0-1.4 1.5-1.7.6-.1 1.1 0 1.3-.1.2 0 .2-.1.2-.3l.2-.1.3 1.4v.2zM72.1 91.4l-2.9.3v-.2c.6-.1.8-.1.7-.7l-.3-3.6c-.6.1-1.4.2-1.4 1.3H68l-.1-1.4 4.8-.5.1 1.4h-.2c-.3-1.1-1.1-1-1.7-1l.3 3.6c.1.6.2.6.8.5l.1.3zM78.8 91.4h-1.7l-1.6-2.2h-.2v1.3c0 .5.2.6.7.6v.2l-2.7-.1V91c.6 0 .7-.1.7-.6l.1-3c0-.6-.2-.6-.7-.6v-.2l2.6.1c.6 0 2.3.1 2.3 1.2 0 .8-.9 1-1.3 1.1l1.6 2c.1.1.2.1.3.1l-.1.3zM75.3 89c1.1 0 1.5-.1 1.5-1 0-.7-.3-1-1-1-.4 0-.5.1-.5.3V89z"/><path class="st0" d="M84.1 92.1l-2.6-.3v-.2c.5 0 .6 0 .7-.2 0-.2-.2-.7-.3-.9l-1.8-.2c-.3.5-.4.7-.5.8 0 .3.4.3.6.4v.2l-1.6-.2v-.2c.4 0 .6-.2.9-.7l2.2-3.5h.2l1.4 3.8c.3.8.4 1 .8 1v.2zm-2.2-1.9l-.6-1.7-1 1.5 1.6.2zM88.8 93.1l-4.6-.8v-.2c.5 0 .7.1.8-.3l.6-3.2c.1-.4-.2-.5-.6-.6v-.2l2.8.5v.2c-.6-.1-.8-.1-.9.5l-.6 3c-.1.3.1.4.6.5 1.2.2 1.7-.3 2.3-.9h.2l-.6 1.5z"/><path class="st0" d="M91.9 93.8l-2.8-.6V93c.4.1.7.1.8-.3l.7-3.2c.1-.4-.3-.5-.6-.6v-.2l2.8.6v.2c-.4-.1-.8-.1-.8.3l-.7 3.2c-.1.4.2.5.7.6l-.1.2zM97.5 94.5l-2.6-.3V94c.5 0 .6 0 .7-.2 0-.2-.2-.7-.3-.9l-1.8-.2c-.3.5-.4.7-.4.8 0 .3.4.3.6.4v.2l-1.7-.2v-.2c.4 0 .6-.2.9-.7l2.2-3.5h.2l1.4 3.7c.3.8.4 1 .8 1v.3zm-2.3-1.9l-.6-1.7-.9 1.6 1.5.1zM76.8 39.7c0-1.6-.9-.1-1.4-1.5-.4 1.2-1.5.2-1.5 1.4 0 .5.1.8.4.9v.5c0 .1.1.2.2.2h1.7c.1 0 .2-.1.2-.2v-.5c.3-.2.4-.4.4-.8zm-1.4.3c-.5 0-1.1.3-1.1-.2 0-.8.5-.6 1-.6s1.2-.2 1.2.6c0 .5-.6.2-1.1.2zM91 59.7c.4 0 .7-.3.7-.7 0-.4-.3-.7-.7-.7-.4 0-.7.3-.7.7 0 .4.3.7.7.7zM87.5 35.6s-.4.6-.4.7c0 .2.2.4.4.4s.4-.2.4-.4c0-.1-.4-.7-.4-.7zM63.6 35.6s-.4.6-.4.7c0 .2.2.4.4.4s.4-.2.4-.4c-.1-.1-.4-.7-.4-.7zM69.5 35.6s-.3.6-.3.7c0 .2.2.4.4.4s.4-.2.4-.4c-.1-.1-.5-.7-.5-.7zM75.5 35.6s-.4.6-.4.7c0 .2.2.4.4.4s.4-.2.4-.4c0-.1-.4-.7-.4-.7zM81.5 35.6s-.4.6-.4.7c0 .2.2.4.4.4s.4-.2.4-.4c0-.1-.4-.7-.4-.7zM63.6 43.8s.3.6.3.7c0 .2-.2.4-.4.4s-.4-.2-.4-.4c.1 0 .5-.7.5-.7zM63.6 51.8s.3.6.3.7c0 .2-.2.4-.4.4s-.4-.2-.4-.4c.1 0 .5-.7.5-.7zM64.5 58.1s.4.6.4.7c0 .2-.2.4-.4.4s-.4-.2-.4-.4c.1 0 .4-.7.4-.7zM69.5 61.5s.4.6.4.7c0 .2-.2.4-.4.4s-.4-.2-.4-.4c.1-.1.4-.7.4-.7zM87.8 43.8s-.3.6-.3.7c0 .2.2.4.4.4s.4-.2.4-.4c-.1 0-.5-.7-.5-.7zM87.8 51.8s-.3.6-.3.7c0 .2.2.4.4.4s.4-.2.4-.4c-.1 0-.5-.7-.5-.7zM86.9 58.1s-.4.6-.4.7c0 .2.2.4.4.4s.4-.2.4-.4c-.1 0-.4-.7-.4-.7zM81.8 61.5s-.3.6-.3.7c0 .2.2.4.4.4s.4-.2.4-.4c-.1-.1-.5-.7-.5-.7zM75.7 65s-.3.6-.3.7c0 .2.2.4.4.4s.4-.2.4-.4c-.1 0-.5-.7-.5-.7zM85.5 53.1c.1.1.3.2.5.1l.2-.6s-.3-.3-.4-.3c-.6.2-1.3.2-1.7.8 0 .4.3.8.6 1 .2-.1.3.2.4.3 0 .2-.1.3-.3.3-.5-.5-1.2.2-1.6-.4.1-.6.5-1.2 0-1.7 0-.1.2-.2.1-.3-.2-.5-.8-.1-1.1-.1-.6-.1-1 .2-1.4.7 0 .2.1.4.3.6.2 0 .2 0 .3.2l-.4.2c.1.1.1.3.2.4-.3.1-.5-.3-.6-.5 0-.3 0-.8-.4-.9-.1 0-.3.1-.3.1-.1.1-.2.4-.2.6 0 .3.1.7.1.7s1.2.9 1.4 1.4c-.3.7-.3 1.6-1.1 2-.2.2-.2.4-.2.6l.2.2c.5-.3 1.4-.3 1.4-1.2.2-.3.4-.7.7-1 .4-.1.7.1.9.4-.1.6-.5.9-1 1.1-.1.1 0 .2 0 .3.2.3.6.2.8.1.6-.4.9-1.2 1.5-1.4.1.4-.8.5-.2.9.3-.1.8 0 1-.4-.3-.6.9-.9.2-1.5 0-.6.6-.8.6-1.4-.2-.6-.9-.6-1.1-1.2 0-.3.3-.2.6-.1zM57.9 60c.4 0 .7-.3.7-.7 0-.4-.3-.7-.7-.7-.4 0-.7.3-.7.7 0 .4.3.7.7.7zM19.1 82.7c.4 0 .7-.3.7-.7 0-.4-.3-.7-.7-.7-.4 0-.7.3-.7.7 0 .4.3.7.7.7zM43.8 88.2l-.1-.1c0 .1 0 .1.1.1h-.2v-.1h.1s.1 0 .1.1c0-.1 0-.1 0 0zm-.1-.1s.1 0 0 0c.1 0 0 0 0 0zM43.9 88.1s-.1 0 0 0c-.1 0 0 0 0 0s0 .1 0 0c0 .1 0 .1 0 0 0 .1-.1.1 0 0-.1.1-.1.1 0 0l-.1.1.1-.1c-.1.1-.1.1 0 0 0 .1 0 .1 0 0 0 .1 0 .1 0 0-.1 0-.1 0 0 0-.1 0-.1 0 0 0zM44.2 88.1l-.1.1v-.1.1-.1H44v.1-.1h.2c-.1 0-.1 0 0 0-.1 0-.1 0 0 0-.1 0-.1 0 0 0-.1 0-.1 0 0 0zM44.2 88.2c0-.1 0-.1.1-.1 0 0 .1 0 .1.1h-.2zm0 0s0-.1 0 0c0-.1 0-.1 0 0 0-.1 0-.1 0 0 0-.1 0-.1 0 0 0-.1 0 0 0 0z"/><path class="st0" d="M44.3 88.1c.1 0 .1 0 0 0 .1.1.1.1 0 0 0 .1 0 .1 0 0 0 .1 0 .1 0 0 0 .1 0 .1 0 0 .1.1.1.1 0 0 .1.1.1.1 0 0zM89.5 34.6H61.9v21.1c0 2.2.9 4 2.2 4.6l10.6 6.8c.2.3.6.4 1 .4.3 0 .6-.1.9-.3l10.8-6.8c1.3-.6 2.2-2.5 2.2-4.6l-.1-21.2zM88.7 56c-.1 1.6-.7 2.9-1.8 3.7l-10.4 6.6h-.1c-.2.2-.5.3-.8.3-.3 0-.6-.1-.8-.3l-10.4-6.6c-1.1-.8-1.6-2.1-1.8-3.7V35.3h26.1V56z"/><path class="st0" d="M79.4 65.4l.3-.2c-.1.1-.2.1-.3.2zM58.5 94.3l-2.6.3v-.2c.5-.1.6-.1.6-.3 0-.2-.3-.7-.5-.9l-1.8.2c-.2.5-.3.8-.3.9 0 .3.4.2.7.2v.2l-1.6.2v-.2c.4-.1.5-.3.7-.9l1.4-3.9h.2l2.2 3.3c.4.7.6.9 1 .8v.3zM55.9 93l-1-1.5-.6 1.7 1.6-.2z"/><path class="st0" d="M104.3 84.4c-.5-1.2-1.5-2.1-2.7-2.5-1.3-.3-2.6-.1-3.5.9-1.4 1.2-.4 3.1-.4 4.6 0 .3 0 .6-.3.7-5.8-.5-11.1-2-16.8-2.6-1.3-.2-2.6-.2-3.9-.4l-1.5-.1c-5 .2-9.9.4-14.6 1.6-1 .3-2.1.4-3.1.8-.7-.1-1.3.4-2 .2l-1.3.3h-.4c-.6-1.6 1.3-2.6.7-4.2-.5-1-1.5-1.9-2.7-1.7-1.3-.2-2.5.6-3.2 1.6-.9 2 .2 4.1.6 6-.1.6.6 1.4 0 1.9-1.3-.9-2.9-1.4-4.5-.9-.5.2-1.3-.1-1.6.5 1.7.9 3.9.8 5.8.7.2-.1.4-.1.6 0 .2 1-.2 2.4.4 3.4.7 1 1.9 1.2 3.1 1.3 3.7-.1 6.9-1.2 10.2-2 .5 0 .9-.3 1.5-.3 1.8-.4 3.7-.7 5.6-.8-.8 1.1-1.3 2.3-1.7 3.6-.5 1.1.8 1.2 1.2 1.8-1.2.4-2.1 1.2-3.3 1.7-2.5-.1-4.7.9-7.1 1.2 0 .5.8.4.9.9-.1.4-.5.4-.8.6 0 .2 0 .3.2.3.2-.3.8-.1 1-.4.8 0 1.5-.2 2.2-.3.7-.3 1.4-.3 2-.8.8-.2 1.3-.8 2.2-1 1.2 0 2.3-.4 3.4-.5v.2c-.9 1.5-1.9 3-2.8 4.4-.2.3 0 .6.3.6.6.2 1.1 0 1.5-.2.8-1.4 1.6-2.8 2.3-4.3.3-1.4 1.3-2.1 2.3-3 .2-.1.4-.3.6-.1-.8.9-1.3 1.8-1.9 2.8-.3 1.1-.4 2.6.6 3.5.5.4 1.2.3 1.8.3 1.5-.8 3.5.5 4.7-1 .7-.1.8.7 1.2 1.1.7.2 1.4.9 2.1.4 0-.4-.5-.8-.8-1.2-.5-.8-1.1-1.5-1.5-2.3-.2-.6-.6-.9-.6-1.5.7.2 1.3.7 2.1.8.7.3 1.5.2 2.1.6.5.7 1.3 1.1 2 1.5 1 .5 2.1.6 3.1 1 .4 0 1 .4 1.3 0-.2-.2-.4-.3-.6-.4-.1-.5.7-.2 1-.6-.1-.2-.3-.3-.5-.3-.6-.3-2-.4-2.4-.6-.5-.1-.9-.3-1.4-.4-2.4 0-3.7-2.2-5.6-3 .4-.4 1.1-.7 1.4-1.3.4-.6.5-1.5.1-2.1-.4-1.2-1.9-1.1-2.9-1.8l.1-.1c1.5-.1 2.9.3 4.3.6 3.8.5 7.3 2 11.3 2 2.2 0 4.9.1 6-2 .2-1.2.4-2.5.6-3.7.9-2 2.2-3.8 2-6zm-42.8 18.2l-.6-.5c.3-.4.9-.2 1.3-.4 1-.3 2.2-.7 3.4-.5-1.2.9-2.7 1.1-4.1 1.4zm24.8-.7c.9.4 2.9.8 4.2 1-.1.5-1.1 0-1 .8-1.2-.5-2.7-.7-3.6-1.7.1 0 .2-.1.4-.1zM49 85c.1-.7.3-1.5 1-2 1-.5 2.3-.4 3.1.1.3.2.5.4.6.8.2.7-.1 1.4-.6 1.8h-.4c0-.6 0-1.3.2-1.8 0-.5-.4-.5-.8-.7-.7-.2-1.3.1-1.8.4-.4.5-.8 1.1-.5 1.8.3.4 0 1 .2 1.5v.1c-.5-.6-1.1-1.1-1-2zm1.9 1.1c.6.4 1.4.2 2.1.4.1.4.1 1-.2 1.4-.7-.2-1.5-.1-1.9-.7.1-.4-.1-.8 0-1.1zm-.1-1.3c.1-.3 0-.8.4-.9.3-.1.7-.1.8.2 0 .5-.1 1-.2 1.4-.6.1-.9-.3-1-.7zm18.6 12.8c-.2-1.4.4-2.6 1.3-3.6.6-.1 1.2-.2 1.7.1-1 .3-2.3.5-2.6 1.8 0 .5-.1.8.1 1.2.4.8 1.4.4 2 1 0 .2-.2.4-.4.5-.7-.3-1.5-.5-2.1-1zm-1.4 2.7c1-.4 1.9-1.2 3-.9-.8.7-2 .9-3 .9zm3.7.4c-.6 1.3-1.2 2.5-1.9 3.8-.1.2-.4.2-.6.3 0-.6.6-1 .8-1.5.8-1.1 1.1-2.2 2-3.3.2.3-.3.4-.3.7zm1-2.3v.2h-.1l.1-.2c.1 0 0 0 0 0zm-.3-1c-.7-.1-1.3-.3-1.9-.5-.4-.4 0-.8 0-1.3.6-.9 2.1-1.3 2.9-.5-.2.9-.5 1.6-1 2.3zm.8 0c.1-.5.4-1.2.6-1.7 0 .5-.2 1.2-.6 1.7zm.5-3.3c-.5-.1-.8-.7-1.3-.7.5-.2 1-.1 1.5 0 .1.2-.2.5-.2.7zm.4 1.2v-.4.4zm.1 1.9c0-.2.1-.4.1-.6.2-.2.4.2.5.3-.1.2-.4.3-.6.3zm.6-2.5c.2-.6.2-1 .6-1.5.4 0 .8 0 1.1.2.1.8 1.1 1.9 0 2.6-.4.2-.9.5-1.3.2-.5-.6-.6-1-.4-1.5zm2.9-1.1c-.1-.4.4-.1.5-.2l1.2.1c-.6-.2-1.4 1.3-1.7.1zm2 .5c-.5.2-.8.7-1.3.8.2-.4.8-.9 1.3-.8zM78 96.6v.1-.1zm.1 2.4c0 .1 0 .2-.1.3l-.9-.7c.4-.1.7.1 1 .4zM77 97.8c.1-.1.3-.1.4 0H77zm-.6-.6c.2-.2.4-.6.6-.6 0 0 0 .1.1.1-.2.2-.4.4-.7.5zm-.9-.1h-.2l.2-.2c.2 0 .1.1 0 .2zm.1 1.5c.5-.6 1 .3 1.2.8.6.9 2.1 1.7 1.5 2.9-.8.7-1.9 0-2.8.6-.4 0-1.2.1-1.4-.4.5-1.4.9-2.8 1.5-3.9zm-1.1.8l.2-.3c-.3 1-.8 2-1.3 2.9-.2-1.1.8-1.8 1.1-2.6zm1.8 4.7c-.8 0-1.9.5-2.6-.2 0-.3-.3-.5-.3-.8.6-.2 1.2.5 1.8 0 .9 0 1.9-.1 2.8.1.4.1 1.1-.7 1.2.1-.4 1.3-2 .4-2.9.8zm2.3-5.7v-.1h.1l-.1.1zm.2 2.5c0 .4.4.6.2.9-.1-.2-.3-.5-.2-.9zm1.1 2.4l-.2.1c-.2-.2-.1-.6-.1-.8.3.1.5.4.3.7zm2 .9c0 .1-.2.1-.3 0-1.2-1.5-1.7-3.1-2.5-4.8h.2c.9 1.6 1.7 3.3 2.6 4.8zm1.5-3.7c-.1 0-.1.1-.1.2-1.2 0-1.9-.6-2.8-1.2v-.2c1.1.1 1.9.7 2.9 1.2zm-1-5.3c.5.1.5.6.6 1 0 .9-.5 1.6-1.3 2-.4.2-1.1.3-1.5.2 1 0 2-.4 2.4-1.4l-.2-1.8zm-.9-.1c.2.6.6 1.1.4 1.8-.4.8-1.2.8-1.9.9-.4 0-.6-.1-.9-.3 0-.2 0-.3-.2-.4.1-.5-.9-1-.2-1.5.6-.6 2.1-2 2.8-.5zm20.1-2.9c-.3.4 0 1-.4 1.4 0 .7-.6 1.1-1.1 1.4-4.7 1-9.4-.6-13.9-1.4-6.4-1.4-13.8-1.8-20.3-.3-3.1.6-6 1.3-9 2.1-1.8.2-3.8.5-5.6 0-1.4-.7-.8-2.5-1.3-3.8.1-1-.3-1.8-.3-2.8-.1-.3-.2-.7-.2-1 .6.1 1.2.5 1.8.7 3.3.6 6.3-.4 9.4-1 3-.6 6-1.2 9.2-1.4 3.6 0 7.2-.2 10.6.4 1.1 0 2.1.3 3.1.4 2.2.3 4.3.9 6.5 1 .4.1.8.1 1.2.2 3.6.6 7.6 1.6 11 0 .1 1.3-.5 2.7-.7 4.1zm-1.1-4.9c0 .6-.6.5-.9.7h-1c-.2-.3-.1-.8-.1-1.1.7.1 1.4.1 2 .4zm-.4-1c.4-.4-.1-3 1.1-1.3 0 .3 0 .8-.3 1-.2.2-.5.5-.8.3zm3.2-.4c-.4.7-.9 1.2-1.7 1.4 0-1 .9-1.6.6-2.7-.5-.8-1.5-1-2.5-.8-.4.2-.2.6-.3 1l-.2 1.2c-.8 0-.8-.7-1.1-1.3 0-.8.4-1.7 1.2-2.1.6-.3 1.7-.3 2.3.1.5.1 1.1.4 1.3.8.7.7.5 1.7.4 2.4zM152.1 71h248.6M152.1 70.4h306.5v1.3H152.1z"/></g></svg>
